/* XPM */
static xpm_row_t number_4[] = {
/* columns rows colors chars-per-pixel */
"19 20 13 1 ",
"  c #000000",
". c #090909",
"X c #2A2A2A",
"o c #3A3A3A",
"O c #4B4B4B",
"+ c #7C7C7C",
"@ c #36FF00",
"# c #B4AC99",
"$ c #80817F",
"% c #CECECE",
"& c #9D9E9B",
"* c #EFEFEF",
"= c #FFFFFF",
/* pixels */
"@@@@@@@@@@@@@@@@@@@",
"@@@@@@@@@@@@@@@@@@@",
"@@@@@@@@........@@@",
"@@@@@@@.XOOOOOOo.@@",
"@@@@@@..+======$.@@",
"@@@@@.X+$=$+&==$.@@",
"@@@@..O===+.$==$.@@",
"@@@@.$%=%OX.$==$.@@",
"@@...===$...$==$.@@",
"@@.$==$.....$==$.@@",
"@@.$==%OOOOO%==$.@@",
"@@.$===========$.@@",
"@@.#$$$$$$$$*==$.@@",
"@@..........$==$.@@",
"@@@@@@@@@@@.$==$.@@",
"@@@@@@@@@@@.$==$.@@",
"@@@@@@@@@@@.$==$.@@",
"@@@@@@@@@@@.$==$.@@",
"@@@@@@@@@@@......@@",
"@@@@@@@@@@@@  . @@@"
};
