/* XPM */
static xpm_row_t number_0[] = {
/* columns rows colors chars-per-pixel */
"19 20 12 1 ",
"  c #090909",
". c #3A3A3A",
"X c #4B4B4B",
"o c #2A2A2A",
"O c #7C7C7C",
"+ c #36FF00",
"@ c #9D9D9D",
"# c #80817F",
"$ c #CECECE",
"% c #9D9E9B",
"& c #EFEFEF",
"* c #FFFFFF",
/* pixels */
"+++++++++++++++++++",
"+++++++++++++++++++",
"+++++         +++++",
"++++ XXXXXXXXX ++++",
"+++  *********  +++",
"++ oO*%OOOOO%*Oo ++",
"++ #**#     #**# ++",
"++ #**# + o#&**# ++",
"++ #**#   O****# ++",
"++ #**# O******# ++",
"++ #**$X@******# ++",
"++ #******O #**# ++",
"++ #****&#o #**# ++",
"++ #****#   #**# ++",
"++ #**%Oo + #**# ++",
"++ #**#     #**# ++",
"++ .X*&#####&*X. ++",
"+++  *********  +++",
"++++           ++++",
"+++++         +++++"
};
