/* XPM */
static xpm_row_t number_8[] = {
/* columns rows colors chars-per-pixel */
"20 20 10 1 ",
"  c #090909",
". c #191919",
"X c #2A2A2A",
"o c #4B4B4B",
"O c #7C7C7C",
"+ c #36FF00",
"@ c #9D9D9D",
"# c #80817F",
"$ c #CECECE",
"% c #FFFFFF",
/* pixels */
"++++++++++++++++++++",
"++++++++++++++++++++",
"+++++          +++++",
"++++ XooooooooX ++++",
"+++  O%%%%%%%%O  +++",
"++ XO#%@OOOO@%#OX ++",
"++ o%%%o    o%%%o ++",
"++ o%%%o    o%%%o ++",
"++ o%%%o    o%%%o ++",
"+++  O%%%%%%%%O  +++",
"++ .o@%%%%%%%%@o. ++",
"++ o%%%o    o%%%o ++",
"++ o%%%o    o%%%o ++",
"++ o%%%o ++ o%%%o ++",
"++ o%%%o ++ o%%%o ++",
"++ o%%%o    o%%%o ++",
"++ .o@%$####$%@o. ++",
"+++  O%%%%%%%%O  +++",
"++++            ++++",
"++++++        ++++++"
};
