/* XPM */
static xpm_row_t number_5[] = {
/* columns rows colors chars-per-pixel */
"19 20 10 1 ",
"  c #090909",
". c #3A3A3A",
"X c #4B4B4B",
"o c #2A2A2A",
"O c #7C7C7C",
"+ c #36FF00",
"@ c #80817F",
"# c #9D9E9B",
"$ c #EFEFEF",
"% c #FFFFFF",
/* pixels */
"+++++++++++++++++++",
"+++++++++++++++++++",
"+++           +++++",
"++ .XXXXXXXXXX ++++",
"++ @%%%%%%%%%%  +++",
"++ @%%#OOOOOOO ++++",
"++ @%%@        ++++",
"++ @%%@       +++++",
"++ @%%@        ++++",
"++ @%%%%%%%%%%  +++",
"++ @%%%%%%%%%%X. ++",
"++          @%%@ ++",
"++++        @%%@ ++",
"+++    ++++ @%%@ ++",
"++ oOOo +++ @%%@ ++",
"++ @%%@     @%%@ ++",
"++ .X%$@@@@@$%X. ++",
"+++  %%%%%%%%%  +++",
"++++           ++++",
"+++++         +++++"
};
