/* XPM */
static xpm_row_t number_1[] = {
/* columns rows colors chars-per-pixel */
"15 20 10 1 ",
"  c #000000",
". c #090909",
"X c #3A3A3A",
"o c #4B4B4B",
"O c #2A2A2A",
"+ c #7C7C7C",
"@ c #36FF00",
"# c #B4AC99",
"$ c #80817F",
"% c #FFFFFF",
/* pixels */
"@@@@@@@@@@@@@@@",
"@@@@@@@@@@@@@@@",
"@@@@@@....@@@@@",
"@@@@@.oooX.@@@@",
"@@@@..%%%$.@@@@",
"@@@.O+%%%$.@@@@",
"@@@.$%%%%$.@@@@",
"@@@.Xo%%%$.@@@@",
"@@@@..%%%$.@@@@",
"@@@@..%%%$.@@@@",
"@@@@..%%%$.@@@@",
"@@@@..%%%$.@@@@",
"@@@@..%%%$.@@@@",
"@@@@..%%%$.@@@@",
"@@@@..%%%$.@@@@",
"@@@...%%%$.. @@",
"@@@.#$%%%%$O.@@",
"@@@.$%%%%%%+.@@",
"@@@..........@@",
"@@@@@......@@@@"
};
