/* XPM */
static xpm_row_t number_9[] = {
/* columns rows colors chars-per-pixel */
"19 20 13 1 ",
"  c #090909",
". c #191919",
"X c #2A2A2A",
"o c #3A3A3A",
"O c #4B4B4B",
"+ c #7C7C7C",
"@ c #36FF00",
"# c #B4AC99",
"$ c #9D9D9D",
"% c #80817F",
"& c #CECECE",
"* c #9D9E9B",
"= c #FFFFFF",
/* pixels */
"@@@@@@@@@@@@@@@@@@@",
"@@@@@@@@@@@@@@@@@@@",
"@@@@@          @@@@",
"@@@@ oOOOOOOOO. @@@",
"@@@  %========O  @@",
"@@ O+*=+++++%=$+ @@",
"@@ +===     +===  @",
"@@ +===  @@ +===  @",
"@@ +===  @@ +===  @",
"@@ +===     +===  @",
"@@ +===OOOOO$===  @",
"@@   %==========  @",
"@@@@ #%%%%%%*===  @",
"@@@         +===  @",
"@@ O+++ @@@ +===  @",
"@@ +===     +===  @",
"@@ XO&=%%%%%*=+O @@",
"@@@  %========O @@@",
"@@@@           @@@@",
"@@@@@@        @@@@@"
};
