/* XPM */
static xpm_row_t tower_purple_up_left[] = {
/* columns rows colors chars-per-pixel */
"50 50 178 2 ",
"   c #020102",
".  c #080A07",
"X  c #060009",
"o  c #0A020C",
"O  c #0A0B0A",
"+  c #0A1207",
"@  c #0F0911",
"#  c #110314",
"$  c #19021D",
"%  c #1A0B1E",
"&  c #0F1011",
"*  c #141214",
"=  c #16191C",
"-  c #181919",
";  c #121619",
":  c #181D21",
">  c #220828",
",  c #290A2F",
"<  c #251C26",
"1  c #28192B",
"2  c #2A0B32",
"3  c #2F0E39",
"4  c #331A39",
"5  c #2B2C2C",
"6  c #252525",
"7  c #2F2A30",
"8  c #352739",
"9  c #343536",
"0  c #393337",
"q  c #3C3B3D",
"w  c #35363B",
"e  c #3E124C",
"r  c #3E3E45",
"t  c #421A4C",
"y  c #481B58",
"u  c #432C4B",
"i  c #482F4F",
"p  c #423E45",
"a  c #47384B",
"s  c #492553",
"d  c #4C2659",
"f  c #512B5C",
"g  c #51325B",
"h  c #511C63",
"j  c #561E6B",
"k  c #5C1C72",
"l  c #59246A",
"z  c #5A2D6A",
"x  c #583464",
"c  c #5C336B",
"v  c #5A3E65",
"b  c #5B2370",
"n  c #67207E",
"m  c #67287E",
"M  c #653876",
"N  c #3C4144",
"B  c #424143",
"V  c #474847",
"C  c #49414C",
"Z  c #464C4D",
"A  c #4D4C4C",
"S  c #474249",
"D  c #564C59",
"F  c #58475D",
"G  c #4C5458",
"H  c #525252",
"J  c #565058",
"K  c #58525C",
"L  c #615F5F",
"P  c #5E4666",
"I  c #575A61",
"U  c #62496C",
"Y  c #694277",
"T  c #674475",
"R  c #73557C",
"E  c #5C6264",
"W  c #5C636A",
"Q  c #5E6F76",
"!  c #636364",
"~  c #6A676D",
"^  c #676B74",
"/  c #736077",
"(  c #787D7F",
")  c #76777B",
"_  c #692583",
"`  c #6D2D84",
"'  c #712F87",
"]  c #732A8D",
"[  c #6C3481",
"{  c #7F2C9F",
"}  c #7A3594",
"|  c #763290",
" . c #764687",
".. c #7A5586",
"X. c #7F4595",
"o. c #6E7B81",
"O. c #823F9A",
"+. c #822BA1",
"@. c #8534A3",
"#. c #913FAF",
"$. c #8F2FB1",
"%. c #933AB4",
"&. c #9839BA",
"*. c #824A97",
"=. c #884D9C",
"-. c #855596",
";. c #8B5A9D",
":. c #8B6897",
">. c #8F45AB",
",. c #934AAE",
"<. c #8E5EA0",
"1. c #9557AD",
"2. c #994DB5",
"3. c #9C40BF",
"4. c #9B4ABA",
"5. c #9E54B9",
"6. c #A252BF",
"7. c #A35DBC",
"8. c #9369A3",
"9. c #9667A7",
"0. c #9B72AB",
"q. c #A663BE",
"w. c #A769BE",
"e. c #A972BE",
"r. c #9F42C1",
"t. c #A34DC3",
"y. c #A447C6",
"u. c #A55CC1",
"i. c #A351C1",
"p. c #B157D3",
"a. c #A763C0",
"s. c #A963C3",
"d. c #AE63C9",
"f. c #A96BC1",
"g. c #B06CCA",
"h. c #AF72C6",
"j. c #B273C9",
"k. c #BC6ED8",
"l. c #BD72D9",
"z. c #C761EE",
"x. c #C060E3",
"c. c #D067F6",
"v. c #75868D",
"b. c #778C90",
"n. c #888889",
"m. c #8B969A",
"M. c #939494",
"N. c #9B9B9C",
"B. c #8592A0",
"V. c #939EA5",
"C. c #A99EAC",
"Z. c #9FB4BC",
"A. c #A4A3A3",
"S. c #ACABAC",
"D. c #B8AFBA",
"F. c #AFB0B0",
"G. c #A3B5BC",
"H. c #B3B3B3",
"J. c #BBB2BD",
"K. c #BBBBBC",
"L. c #C1BCBC",
"P. c #BEB3C0",
"I. c #A8BBC9",
"U. c #C5BEC7",
"Y. c #ACC2CD",
"T. c #B7CCD4",
"R. c #BEDAE5",
"E. c #C3C3C3",
"W. c #CCCBCC",
"Q. c #D3D3D3",
"!. c #D9D9D9",
"~. c #DAD5DB",
"^. c #E4E4E4",
"/. c #EAEAEA",
"(. c #E8E4E8",
"). c #F4F4F4",
"_. c #F7F6F8",
"`. c #FFFFFF",
/* pixels */
"`.`.`.`.`.`.`.`.`.`.`.`.`.`.`.`.`.`.`.`.`.`.`.`.`.`.`.`.`.`.`.`.`.`.`.`.`.`.`.`.`.`.`.`.`.`.`.`.`.`.",
"`.`.`.`.`.`.`.`.`.`.`.`.`.`.`.`.`.`.`.`.`.`.`.`.`.`.`.`.`.`.`.`.`.`.`.`.`.`.`.`.`.`.`.`.`.`.`.`.`.`.",
"`.`.`.`.`.`.`.`.`.`.`.`.`.`.`.`.`.`.`.`.`.`.`.`.`.`.`.`.`.`.`.`.`.`.`.`.`.`.`.`.`.`.`.`.`.`.`.`.`.`.",
"`.`.`.`.`.`.`.`.`.`.`.`.`.`.`.`.`.`.`.`.`.`.`.`.`.`.`.`.`.`.`.`.`.`.`.`.`.`.`.`.`.`.`.`.`.`.`.`.`.`.",
"`.`.`.`.`.`.`.`.`.`.`.`.`.`.`.`.`.`.`.`.`.`.`.`.`.`.`.`.`.`.`.`.`.`.`.`.`.`.`.`.`.`.`.`.`.`.`.`.`.`.",
"`.`.`.`.`.`.`.`.`.`.`.`.`.`.`.`.`.`.`.`.`.`.`.`.`.`.`.`.`.`.`.`.`.`.`.`.`.`.`.`.`.`.`.`.`.`.`.`.`.`.",
"`.`.`.`.`.`.`.`.`.`.`.`.`.`.`.`.`.`.`.`.`.`.`.`.`.`.`.`.`.`.`.`.`.`.`.`.`.`.`.`.`.`.`.`.`.`.`.`.`.`.",
"`.`.`.`.`.`.`.`.!   O E.`.`.`.`.`.`.`.`.`.`.`.`.`.`.`.`.`.`.`.`.`.`.`.`.`.`.`.`.`.`.`.`.`.`.`.`.`.`.",
"`.`.`.`.`.`.`.! N G.) E.`.`.`.`.`.`.`.`.`.`.`.`.`.`.`.`.`.`.`.`.`.`.`.`.`.`.`.`.`.`.`.`.`.`.`.`.`.`.",
"`.`.`.`.`.`.`.F.( ( N *   N.`.`.`.`.`.`.`.`.`.`.`.`.`.`.`.`.`.`.`.`.`.`.`.`.`.`.`.`.`.`.`.`.`.`.`.`.",
"`.`.`.`.`.`.W.A H 5 ; m.W 5 S.).`.`.`.`.`.`.`.`.`.`.`.`.`.`.`.`.`.`.`.`.`.`.`.`.`.`.`.`.`.`.`.`.`.`.",
"`.`.`.`.`.`.`.`.).S.m.Z & Z 5 n.`.`.`.`.`.`.`.`.`.`.`.`.`.`.`.`.`.`.`.`.`.`.`.`.`.`.`.`.`.`.`.`.`.`.",
"`.`.`.`.`.`.`.`.^.B : ^ L.^.n.* H.`.`.`.`.`.`.`.`.`.`.`.`.`.`.`.`.`.`.`.`.`.`.`.`.`.`.`.`.`.`.`.`.`.",
"`.`.`.`.`.`.`.`.`.Q.~ A V.o.= 9 B M.).`.`.`.`.`.`.`.`.`.`.`.`.`.`.`.`.`.`.`.`.`.`.`.`.`.`.`.`.`.`.`.",
"`.`.`.`.`.`.`.`.`.`.`.A ; I S.A.A . A.`.`.`.`.`.`.`.`.`.`.`.`.`.`.`.`.`.`.`.`.`.`.`.`.`.`.`.`.`.`.`.",
"`.`.`.`.`.`.`.`.`.`.`.W.H = v.Z.w B L A.M.W.`.`.`.`.`.`.`.`.`.`.`.`.`.`.`.`.`.`.`.`.`.`.`.`.`.`.`.`.",
"`.`.`.`.`.`.`.`.`.`.`.`.).! - N W N       A /.`.`.`.`.`.`.`.`.`.`.`.`.`.`.`.`.`.`.`.`.`.`.`.`.`.`.`.",
"`.`.`.`.`.`.`.`.`.`.`.`.`.!.B q ! E J ! I * M./.^.).`.`.`.`.`.`.`.`.`.`.`.`.`.`.`.`.`.`.`.`.`.`.`.`.",
"`.`.`.`.`.`.`.`.`.`.`.`.`.`.!.!   0 V.R.B.r < u q A.`.`.`.`.`.`.`.`.`.`.`.`.`.`.`.`.`.`.`.`.`.`.`.`.",
"`.`.`.`.`.`.`.`.`.`.`.`.`.`.`.).w G T.Y.Y.Q   =.X.- W.`.`.`.`.`.`.`.`.`.`.`.`.`.`.`.`.`.`.`.`.`.`.`.",
"`.`.`.`.`.`.`.`.`.`.`.`.`.`._.A.0 7 ^ I.b.  Y k.4.h C H._.`.`.`.`.`.`.`.`.`.`.`.`.`.`.`.`.`.`.`.`.`.",
"`.`.`.`.`.`.`.`.`.`.`.`.`.`.`.`.E.- p B   U l.z.d.,.j * H.`.`.`.`.`.`.`.`.`.`.`.`.`.`.`.`.`.`.`.`.`.",
"`.`.`.`.`.`.`.`.`.`.`.`.`.`.`.`.`.N.5 X U l.c.d.q.d.t.y p E.).`.`.`.`.`.`.`.`.`.`.`.`.`.`.`.`.`.`.`.",
"`.`.`.`.`.`.`.`.`.`.`.`.`.`.`.`.`.!.K 9.p.y.u.q.q.a.d.>.j 8 A.`.`.`.`.`.`.`.`.`.`.`.`.`.`.`.`.`.`.`.",
"`.`.`.`.`.`.`.`.`.`.`.`.`.`.`.`.`.`.) d q.q.a.q.q.a.a.a.h.v 6 W.`.`.`.`.`.`.`.`.`.`.`.`.`.`.`.`.`.`.",
"`.`.`.`.`.`.`.`.`.`.`.`.`.`.`.`.`.`.K.a g -.j.d.*.*.a.6.t.1.P A S.`.`.`.`.`.`.`.`.`.`.`.`.`.`.`.`.`.",
"`.`.`.`.`.`.`.`.`.`.`.`.`.`.`.`.`.K.S . X s 8.w.u.q.q.a.u.3.h o O E.`.`.`.`.`.`.`.`.`.`.`.`.`.`.`.`.",
"`.`.`.`.`.`.`.`.`.`.`.`.`.`.`.`.H.K h. .# X u ;.f.6.7.u.&.| c f % q K.).`.`.`.`.`.`.`.`.`.`.`.`.`.`.",
"`.`.`.`.`.`.`.`.`.`.`.`.`.`.`.H.D :.i.@.S + X s <.u.r.u.[ M 0.8.X.k < S.`.`.`.`.`.`.`.`.`.`.`.`.`.`.",
"`.`.`.`.`.`.`.`.`.`.`.`.`.`.H.D ..2.+.e a 9 O o 2 M 1.g.u.{ b Y 8.e.x a _.`.`.`.`.`.`.`.`.`.`.`.`.`.",
"`.`.`.`.`.`.`.`.`.`.`.`.`.^.N.R O.%.p.,.x 1 #   X 3 -.j.2.M Y -.%.e * / ~.`.`.`.`.`.`.`.`.`.`.`.`.`.",
"`.`.`.`.`.`.`.`.`.`.`.`.`.^.5 l @., n t.a.#.| d .   s 8. .z z c } ] 2 J.`.`.`.`.`.`.`.`.`.`.`.`.`.`.",
"`.`.`.`.`.`.`.`.`.`.`.`.`.`.K.K Y M l k $.x.1.@     X g .. .[ @.m   H.`.`.`.`.`.`.`.`.`.`.`.`.`.`.`.",
"`.`.`.`.`.`.`.`.`.`.`.`.`.`.`./.V g 7.t y c o   X > $ h 2.9.5._   H.`.`.`.`.`.`.`.`.`.`.`.`.`.`.`.`.",
"`.`.`.`.`.`.`.`.`.`.`.`.`.`.`.`.E.0 ` ' 4 o 8 F P (.W.i _ y $ 2 P.`.`.`.`.`.`.`.`.`.`.`.`.`.`.`.`.`.",
"`.`.`.`.`.`.`.`.`.`.`.`.`.`.`.`._.Q.! 8 3 C.`.`.`.`._.U.D.J.J./.`.`.`.`.`.`.`.`.`.`.`.`.`.`.`.`.`.`.",
"`.`.`.`.`.`.`.`.`.`.`.`.`.`.`.`.`.`.`.`.`.`.`.`.`.`.`.`.`.`.`.`.`.`.`.`.`.`.`.`.`.`.`.`.`.`.`.`.`.`.",
"`.`.`.`.`.`.`.`.`.`.`.`.`.`.`.`.`.`.`.`.`.`.`.`.`.`.`.`.`.`.`.`.`.`.`.`.`.`.`.`.`.`.`.`.`.`.`.`.`.`.",
"`.`.`.`.`.`.`.`.`.`.`.`.`.`.`.`.`.`.`.`.`.`.`.`.`.`.`.`.`.`.`.`.`.`.`.`.`.`.`.`.`.`.`.`.`.`.`.`.`.`.",
"`.`.`.`.`.`.`.`.`.`.`.`.`.`.`.`.`.`.`.`.`.`.`.`.`.`.`.`.`.`.`.`.`.`.`.`.`.`.`.`.`.`.`.`.`.`.`.`.`.`.",
"`.`.`.`.`.`.`.`.`.`.`.`.`.`.`.`.`.`.`.`.`.`.`.`.`.`.`.`.`.`.`.`.`.`.`.`.`.`.`.`.`.`.`.`.`.`.`.`.`.`.",
"`.`.`.`.`.`.`.`.`.`.`.`.`.`.`.`.`.`.`.`.`.`.`.`.`.`.`.`.`.`.`.`.`.`.`.`.`.`.`.`.`.`.`.`.`.`.`.`.`.`.",
"`.`.`.`.`.`.`.`.`.`.`.`.`.`.`.`.`.`.`.`.`.`.`.`.`.`.`.`.`.`.`.`.`.`.`.`.`.`.`.`.`.`.`.`.`.`.`.`.`.`.",
"`.`.`.`.`.`.`.`.`.`.`.`.`.`.`.`.`.`.`.`.`.`.`.`.`.`.`.`.`.`.`.`.`.`.`.`.`.`.`.`.`.`.`.`.`.`.`.`.`.`.",
"`.`.`.`.`.`.`.`.`.`.`.`.`.`.`.`.`.`.`.`.`.`.`.`.`.`.`.`.`.`.`.`.`.`.`.`.`.`.`.`.`.`.`.`.`.`.`.`.`.`.",
"`.`.`.`.`.`.`.`.`.`.`.`.`.`.`.`.`.`.`.`.`.`.`.`.`.`.`.`.`.`.`.`.`.`.`.`.`.`.`.`.`.`.`.`.`.`.`.`.`.`.",
"`.`.`.`.`.`.`.`.`.`.`.`.`.`.`.`.`.`.`.`.`.`.`.`.`.`.`.`.`.`.`.`.`.`.`.`.`.`.`.`.`.`.`.`.`.`.`.`.`.`.",
"`.`.`.`.`.`.`.`.`.`.`.`.`.`.`.`.`.`.`.`.`.`.`.`.`.`.`.`.`.`.`.`.`.`.`.`.`.`.`.`.`.`.`.`.`.`.`.`.`.`.",
"`.`.`.`.`.`.`.`.`.`.`.`.`.`.`.`.`.`.`.`.`.`.`.`.`.`.`.`.`.`.`.`.`.`.`.`.`.`.`.`.`.`.`.`.`.`.`.`.`.`.",
"`.`.`.`.`.`.`.`.`.`.`.`.`.`.`.`.`.`.`.`.`.`.`.`.`.`.`.`.`.`.`.`.`.`.`.`.`.`.`.`.`.`.`.`.`.`.`.`.`.`."
};
