/* XPM */
static xpm_row_t tower_purple_left[] = {
/* columns rows colors chars-per-pixel */
"50 50 17 1 ",
"  c #000000",
". c #27092E",
"X c #5D306E",
"o c #444C52",
"O c #4E4850",
"+ c #676B6C",
"@ c #6D6B6B",
"# c #8333A1",
"$ c #9438B6",
"% c #9569A6",
"& c #A662BF",
"* c #CD66F3",
"= c #8B9DAC",
"- c #B9B5B5",
"; c #ABC0C8",
": c #BCD7E2",
"> c #FFFFFF",
/* pixels */
">>>>>>>>>>>>>>>>>>>>>>>>>>>>>>>>>>>>>>>>>>>>>>>>>>",
">>>>>>>>>>>>>>>>>>>>>>>>>>>>>>>>>>>>>>>>>>>>>>>>>>",
">>>>>>>>>>>>>>>>>>>>>>>>>>>>>>>>>>>>>>>>>>>>>>>>>>",
">>>>>>>>>>>>>>>>>>>>>>>>>>>>>>>>>>>>>>>>>>>>>>>>>>",
">>>>>>>>>>>>>>>>>>>>>>>>>>>>>>>>>>>>>>>>>>>>>>>>>>",
">>>>>>>>>>>>>>>>>>>>>>>>>>>>>>>>>>>>>>>>>>>>>>>>>>",
">>>>>>>>>>>>>>>>>>>>>>>>>>>>>>>>>>>>>>>>>>>>>>>>>>",
">>>>>>>>>>>>>>>>>>>>>>>>>>>>>>>>>>>>>>>>>>>>>>>>>>",
">>>>>>>>>>>>>>>>>>>>>>>>>>>>>>>>>>>>>>>>>>>>>>>>>>",
">>>>>>>>>>>>>>>>>>>>>>>>>>>>>>>>>>>>>>>>>>>>>>>>>>",
">>>>>>>>>>>>>>>>>>>>>>>>>>>>>>>>>>>>>>>>>>>>>>>>>>",
">>>>>>>>>>>>>>>>>>>>>>>>>>>>>>>>>>>>>>>>>>>>>>>>>>",
">>>>>>>>>>>>>>>>>>>>>>>>>>>>>>>>>>>>>>>>>>>>>>>>>>",
">>>>>>>>>>>>>>>>>>>>>>>>>>>>>>>>>>>>>>>>>>>>>>>>>>",
">>>>>>>>>>>>>>>>>>>>>>>>>>>>>>>>>>>>>>>>>>>>>>>>>>",
">>>>>>>>>>>>>>>>>>>>>>>>>>>>>>>>>>>>>>>>>>>>>>>>>>",
">>>>>>>>>>>>>>>>>>>>>>>>>>>>>>>>>>>>>>>>>>>>>>>>>>",
">>>>>>>>>>>>>>>>>>>>>>>>>>>>>>>>>>>>>>>>>>>>>>>>>>",
">>>>>>>>>>>>>>>>>>>>>>>>>>>>>>>>>>>>>>>>>>>>>>>>>>",
">>>>>>>>>>>>>>>>>>>>>>>>>>>>>>>>>>>>>>>>>>>>>>>>>>",
">>>>>>>>>>>>>>>>>>>+               .>>>>>>>>>>>>>>",
">>>>>>>>>>>>>>>    .&&#####%%%...#% .>>>>>>>>>>>>>",
">> >>           OOO &$&&&&&$$$X%%%#..>>>>>>>>>>>>>",
"> +  +o+-o+@o- O;== %*&&&&&&&$X%XX## >>>>>>>>>>>>>",
"> :+ : -: -: o+O:;; %*&&&&&&&$X#X%X# >>>>>>>>>>>>>",
"> +  +o-+oo+o+ O;== %*&&&X&&&&&#XXX# >>>>>>>>>>>>>",
">> >>           OOO %$&&&&&$$&&&XX##.>>>>>>>>>>>>>",
">>>>>>>>>>>>>>>    .&&%%%%%%XX%%%%%..>>>>>>>>>>>>>",
">>>>>>>>>>>>>>>>>>>+.............##.>>>>>>>>>>>>>>",
">>>>>>>>>>>>>>>>>>>>>+          ...>>>>>>>>>>>>>>>",
">>>>>>>>>>>>>>>>>>>>>O&#OOO.X  .>>>>>>>>>>>>>>>>>>",
">>>>>>>>>>>>>>>>>>>>>O%$...#&  .>>>>>>>>>>>>>>>>>>",
">>>>>>>>>>>>>>>>>>>>>O%$&&&$& .>>>>>>>>>>>>>>>>>>>",
">>>>>>>>>>>>>>>>>>>>>O%$$$$$X >>>>>>>>>>>>>>>>>>>>",
">>>>>>>>>>>>>>>>>>>>>O.#......>>>>>>>>>>>>>>>>>>>>",
">>>>>>>>>>>>>>>>>>>>>O%$&&&$%.>>>>>>>>>>>>>>>>>>>>",
">>>>>>>>>>>>>>>>>>>>>>       >>>>>>>>>>>>>>>>>>>>>",
">>>>>>>>>>>>>>>>>>>>>>>>>>>>>>>>>>>>>>>>>>>>>>>>>>",
">>>>>>>>>>>>>>>>>>>>>>>>>>>>>>>>>>>>>>>>>>>>>>>>>>",
">>>>>>>>>>>>>>>>>>>>>>>>>>>>>>>>>>>>>>>>>>>>>>>>>>",
">>>>>>>>>>>>>>>>>>>>>>>>>>>>>>>>>>>>>>>>>>>>>>>>>>",
">>>>>>>>>>>>>>>>>>>>>>>>>>>>>>>>>>>>>>>>>>>>>>>>>>",
">>>>>>>>>>>>>>>>>>>>>>>>>>>>>>>>>>>>>>>>>>>>>>>>>>",
">>>>>>>>>>>>>>>>>>>>>>>>>>>>>>>>>>>>>>>>>>>>>>>>>>",
">>>>>>>>>>>>>>>>>>>>>>>>>>>>>>>>>>>>>>>>>>>>>>>>>>",
">>>>>>>>>>>>>>>>>>>>>>>>>>>>>>>>>>>>>>>>>>>>>>>>>>",
">>>>>>>>>>>>>>>>>>>>>>>>>>>>>>>>>>>>>>>>>>>>>>>>>>",
">>>>>>>>>>>>>>>>>>>>>>>>>>>>>>>>>>>>>>>>>>>>>>>>>>",
">>>>>>>>>>>>>>>>>>>>>>>>>>>>>>>>>>>>>>>>>>>>>>>>>>",
">>>>>>>>>>>>>>>>>>>>>>>>>>>>>>>>>>>>>>>>>>>>>>>>>>"
};
