/* XPM */
static xpm_row_t cursor[] = {
/* columns rows colors chars-per-pixel */
"50 50 71 1 ",
"  c #000000",
". c #010000",
"X c #000100",
"o c #010100",
"O c #010101",
"+ c #020001",
"@ c #000201",
"# c #000002",
"$ c #010002",
"% c #000102",
"& c #010103",
"* c #020003",
"= c #000104",
"- c #17F01D",
"; c #17F11E",
": c #16F21E",
"> c #17F31F",
", c #15F41F",
"< c #18F31D",
"1 c #1BF11F",
"2 c #18F21F",
"3 c #15F020",
"4 c #16F020",
"5 c #17F120",
"6 c #16F121",
"7 c #17F121",
"8 c #14F320",
"9 c #14F221",
"0 c #16F220",
"q c #17F321",
"w c #17F023",
"e c #15F322",
"r c #14F223",
"t c #17F222",
"y c #15F421",
"u c #16F423",
"i c #15F324",
"p c #17F224",
"a c #18F020",
"s c #18F021",
"d c #19F121",
"f c #1BF121",
"g c #18F221",
"h c #19F122",
"j c #18F222",
"k c #19F322",
"l c #18F323",
"z c #18F124",
"x c #19F124",
"c c #1BF024",
"v c #18F325",
"b c #18F126",
"n c #21F42B",
"m c #FDFDFB",
"M c #FFFEFA",
"N c #FFFFFB",
"B c #FBFFFF",
"V c #FDFFFC",
"C c #FEFEFC",
"Z c #FFFEFC",
"A c #FEFFFD",
"S c #FFFFFD",
"D c #FFFDFE",
"F c #FEFDFF",
"G c #FDFFFE",
"H c #FDFEFF",
"J c #FEFEFE",
"K c #FEFEFF",
"L c #FFFEFF",
"P c #FEFFFF",
"I c #FFFFFE",
/* pixels */
"g0vggug0g0b00000gg0g0pg0xgk0xxk0ggggxuggxggxggggxu",
"0   gggg00g>0xggx000gg00xgx0k0kxuxxgggxguggguxxggg",
"k   = 0xg0>gp0g00px00u0x0gxk0k0xggguggxggxxugggugg",
"0  II    0g2gg0v00sgxx0gxg0xxx0kxggxxgugggggxggxxg",
"0x INII    gu0f0p0g200ggx00kkk0xgggggugxxuggxugggu",
"ug  IIINNI   0g0g0pgu000kkxx0x0kuxxggxggggxgggxggx",
"024 IIIIIIII    0p0ggxgx0xk0x0xkgggugxggggxgggxggx",
"0gg INIIIIBIIII   g00g0u0kx0kkx0xggxgguxxgugxguggg",
"x20  IIIIINIIBIII  =gkgxxk0xkk0xggggxugggugxgugxxg",
"0pgg IIINIIIFFIIIII   00x0kx0x0kuxxgggxggxgggxggug",
"g>u>  IIIIIIIINIIIIII =gkk00x0xkggguggxggxgggxgggx",
"40rxg  IIIImFIIIINI =   0xxkkkx0xggxxguggguxgguxgg",
"0xx0g0 INIIBNIII    00g0kxx000xkgggggugxxggxggggxu",
"000g0g  BIIII    g0x>>0p00kkxkx0uxxggxgguggguxxggg",
"x0p0x>0 IIII  00g0x0gpkgxk0xkxk0gggugxgggxxugggugg",
"0g000x0  III g0gg0000g0ux0kx00kxxggxgguxggggxggxxg",
"u0g0uxcn III g0xx0xgk0xxk0xk00xkggggxuggxggxgggggu",
"0gxg0ggx  I  00>gxxgx0k0kx0kxkx0uxxgggxguggguxxggx",
"g0000kxg0 I xg4x0k0xxk0k00xxkxk0ggguggxggxxugggugx",
"ggg2u000g=  gp0gxx0k0kxxxkk000kxxggxxgugggggxggxgg",
"gg0xg00000 x0x>0k0xk0xk00kkxxxk0gggggugxxuggxuggxg",
"0gg0xgxg00 >xg>4kx0k0kx0xx00k0kxuxxggxggggxgggxgug",
"gg0gg0gugg0x0g0g00xxxxkkk0xk0k0xgggugxggggxgggxggx",
"gguggg00pg00g00uxkk0k00xkx0kxx0kxggxgguxxgugxguggg",
"gxggggxuk0xxk0xkx00k0kkx0xk0xxk0ggggxugggugxgugxxu",
"gguxxgggx0k0kx0kkkxxxx000kx0k0kxuxxgggxggxgggxgggg",
"xggggugxxk0k00xx0xk0k0xkxxkk0k0xggguggxggxgggxgggg",
"ugxggxgg0kxxxkk00kx0kx0kk00xxx0kxggxxguggguxgguxxg",
"gxguggxuxk000kkxxxk0k0xxx00kkk0xgggggugxxggxgggggu",
"gggxxggg0kxkxx00k0kxx0k0kkxx0x0kuxxggxgguggguxxggx",
"xugggugx0xkxk0xk0k0xxk0k0xk0x0xkgggugxgggxxugggugx",
"ggxggxggkx00kx0kxx0k0kxx0kx0kkx0xggxgguxggggxggxgg",
"ggxuggxggxggggxuggxggxggggxuggxgggxuggxggxggggxugg",
"xgggxguggguxxgggxguggguxxgggxgugxgggxguggguxxgggxg",
"gugxgggxxggggugxgggxxggggugxgggxgugxgggxxggggugxgg",
"gxgguxggugxggxgguxggugxggxgguxgggxgguxggugxggxggux",
"gxgggxgggxguggxuggxggxgugxgggxgggxgggxgggxguggxugg",
"gguxgguxgggxxgggxguggggxgguxgguxgguxgguxgggxxgggxg",
"xgggxgggxugggugxgggxxuggxgggxgggxgggxgggxugggugxgg",
"ugxgugxgggxggxgguxggggxgugxgugxgugxgugxgggxggxggux",
"gxgugxgugxggggxuggxggxgggxgugxgugxgugxgugxggggxugg",
"gggxgggxgguxxgggxguggguxgggxgggxgggxgggxgguxxgggxg",
"xuggxuggxggggugxgggxxgggxuggxuggxuggxuggxggggugxgg",
"ggxgggxgugxggxgguxggugxgggxgggxgggxgggxgugxggxggux",
"ggxuggxggxguggxuggxggxguggxuggxgggxuggxggxguggxugg",
"xgggxguggggxxgggxguggggxxgggxgugxgggxguggggxxgggxg",
"gugxgggxxugggugxgggxxugggugxgggxgugxgggxxugggugxgg",
"gxgguxggggxggxgguxggggxggxgguxgggxgguxggggxggxggux",
"gxggggxuggxggxgggxggggxuggxggxgggxggggxuggxggxgggx",
"gguxxgggxguggguxgguxxgggxguggguxgguxxgggxguggguxgg"
};
