/* XPM */
static xpm_row_t cursor[] = {
/* columns rows colors chars-per-pixel */
"50 50 8 1 ",
"  c #000000",
". c #BC6D1F",
"X c #8A5B33",
"o c #2AFF00",
"O c #FBAB18",
"+ c #E08826",
"@ c #FAC33F",
"# c #FFD699",
/* pixels */
"oooooooooooooooooooooooooooooooooooooooooooooooooo",
"o    ooooooooooooooooooooooooooooooooooooooooooooo",
"o XXX    ooooooooooooooooooooooooooooooooooooooooo",
"o  #.XXXX   oooooooooooooooooooooooooooooooooooooo",
"oo ##....XXX   ooooooooooooooooooooooooooooooooooo",
"oo ####.....XXX   oooooooooooooooooooooooooooooooo",
"ooo ####.......XXX    oooooooooooooooooooooooooooo",
"oooo ####.........XXXX   ooooooooooooooooooooooooo",
"oooo #####.+++++......XXX   oooooooooooooooooooooo",
"ooooo ####O#++++++.......XXX  oooooooooooooooooooo",
"ooooo ####OO##+++++++++.....XX   ooooooooooooooooo",
"oooooo ###OOOO#+++++++++++....XXX   oooooooooooooo",
"ooooooo ###OOOO#++++++++++++.....XXX ooooooooooooo",
"ooooooo ###OOOOO##++++++++++++......X oooooooooooo",
"oooooooo ##OOOOOO##++++++++++++++....X  oooooooooo",
"oooooooo ###OOOOOOO#++++++++++++++....XX ooooooooo",
"ooooooooo ##OOOOOOOO##+++++++++++++....X ooooooooo",
"ooooooooo ###OOOOOOOO##++++++++++++....X ooooooooo",
"oooooooooo ##@@@@@@@@@##++++++++++++..X oooooooooo",
"oooooooooo ###@@@@@@@@@##+++++++++++.X ooooooooooo",
"ooooooooooo ##@@@@@@@@@@@#++++++++++.X ooooooooooo",
"oooooooooooo ##@@@@@@@@@@@##++++++++.X ooooooooooo",
"oooooooooooo ###@@@@@@@@@@@#+++++++++X ooooooooooo",
"ooooooooooooo ##@@@@@@@@@@@@##+++++++X ooooooooooo",
"oooooooooooooo ##@@@@@@@@@@@@@#++++++X ooooooooooo",
"oooooooooooooo ##@@@@@@@@@@@@@@#+++++.X oooooooooo",
"ooooooooooooooo ##OOOOOOOOOOOOOO##+++.X oooooooooo",
"oooooooooooooooo #OOOOOOOOOOOOOOOO#+++X oooooooooo",
"oooooooooooooooo ##OOOOOOOOOOOOOOOO#++.X ooooooooo",
"ooooooooooooooooo ##OOOOOOOOOOOOOOOOO++.X oooooooo",
"oooooooooooooooooo #OOOOOOOOOOOOOOOOOO+..X ooooooo",
"oooooooooooooooooo ##OOOOOOOOOOOOOOOOOO+.X ooooooo",
"ooooooooooooooooooo ##OOOO####       OOO. oooooooo",
"oooooooooooooooooooo ##O####  ooooooo OO ooooooooo",
"ooooooooooooooooooooo ##### oooooooooo  oooooooooo",
"oooooooooooooooooooooo ##  ooooooooooooooooooooooo",
"ooooooooooooooooooooooo  ooooooooooooooooooooooooo",
"oooooooooooooooooooooooooooooooooooooooooooooooooo",
"oooooooooooooooooooooooooooooooooooooooooooooooooo",
"oooooooooooooooooooooooooooooooooooooooooooooooooo",
"oooooooooooooooooooooooooooooooooooooooooooooooooo",
"oooooooooooooooooooooooooooooooooooooooooooooooooo",
"oooooooooooooooooooooooooooooooooooooooooooooooooo",
"oooooooooooooooooooooooooooooooooooooooooooooooooo",
"oooooooooooooooooooooooooooooooooooooooooooooooooo",
"oooooooooooooooooooooooooooooooooooooooooooooooooo",
"oooooooooooooooooooooooooooooooooooooooooooooooooo",
"oooooooooooooooooooooooooooooooooooooooooooooooooo",
"oooooooooooooooooooooooooooooooooooooooooooooooooo",
"oooooooooooooooooooooooooooooooooooooooooooooooooo"
};
