/* XPM */
static xpm_row_t cursor[] = {
/* columns rows colors chars-per-pixel */
"50 50 3 1 ",
"  c #000000",
"o c #17f221",
"O c #ffffff",
/* pixels */
"oooooooooooooooooooooooooooooooooooooooooooooooooo",
"o   oooooooooooooooooooooooooooooooooooooooooooooo",
"o     oooooooooooooooooooooooooooooooooooooooooooo",
"o  OO    ooooooooooooooooooooooooooooooooooooooooo",
"oo OOOO    ooooooooooooooooooooooooooooooooooooooo",
"oo  OOOOOO   ooooooooooooooooooooooooooooooooooooo",
"ooo OOOOOOOO    oooooooooooooooooooooooooooooooooo",
"ooo OOOOOOOOOOO   oooooooooooooooooooooooooooooooo",
"ooo  OOOOOOOOOOOO   oooooooooooooooooooooooooooooo",
"oooo OOOOOOOOOOOOOO   oooooooooooooooooooooooooooo",
"oooo  OOOOOOOOOOOOOOO  ooooooooooooooooooooooooooo",
"ooooo  OOOOOOOOOOOO     oooooooooooooooooooooooooo",
"oooooo OOOOOOOOO    oooooooooooooooooooooooooooooo",
"oooooo  OOOOO    ooooooooooooooooooooooooooooooooo",
"ooooooo OOOO  oooooooooooooooooooooooooooooooooooo",
"ooooooo  OOO ooooooooooooooooooooooooooooooooooooo",
"oooooooo OOO ooooooooooooooooooooooooooooooooooooo",
"oooooooo  O  ooooooooooooooooooooooooooooooooooooo",
"ooooooooo O oooooooooooooooooooooooooooooooooooooo",
"ooooooooo   oooooooooooooooooooooooooooooooooooooo",
"oooooooooo ooooooooooooooooooooooooooooooooooooooo",
"oooooooooo ooooooooooooooooooooooooooooooooooooooo",
"oooooooooooooooooooooooooooooooooooooooooooooooooo",
"oooooooooooooooooooooooooooooooooooooooooooooooooo",
"oooooooooooooooooooooooooooooooooooooooooooooooooo",
"oooooooooooooooooooooooooooooooooooooooooooooooooo",
"oooooooooooooooooooooooooooooooooooooooooooooooooo",
"oooooooooooooooooooooooooooooooooooooooooooooooooo",
"oooooooooooooooooooooooooooooooooooooooooooooooooo",
"oooooooooooooooooooooooooooooooooooooooooooooooooo",
"oooooooooooooooooooooooooooooooooooooooooooooooooo",
"oooooooooooooooooooooooooooooooooooooooooooooooooo",
"oooooooooooooooooooooooooooooooooooooooooooooooooo",
"oooooooooooooooooooooooooooooooooooooooooooooooooo",
"oooooooooooooooooooooooooooooooooooooooooooooooooo",
"oooooooooooooooooooooooooooooooooooooooooooooooooo",
"oooooooooooooooooooooooooooooooooooooooooooooooooo",
"oooooooooooooooooooooooooooooooooooooooooooooooooo",
"oooooooooooooooooooooooooooooooooooooooooooooooooo",
"oooooooooooooooooooooooooooooooooooooooooooooooooo",
"oooooooooooooooooooooooooooooooooooooooooooooooooo",
"oooooooooooooooooooooooooooooooooooooooooooooooooo",
"oooooooooooooooooooooooooooooooooooooooooooooooooo",
"oooooooooooooooooooooooooooooooooooooooooooooooooo",
"oooooooooooooooooooooooooooooooooooooooooooooooooo",
"oooooooooooooooooooooooooooooooooooooooooooooooooo",
"oooooooooooooooooooooooooooooooooooooooooooooooooo",
"oooooooooooooooooooooooooooooooooooooooooooooooooo",
"oooooooooooooooooooooooooooooooooooooooooooooooooo",
"oooooooooooooooooooooooooooooooooooooooooooooooooo"
};
