/* XPM */
static xpm_row_t cursor[] = {
/* columns rows colors chars-per-pixel */
"50 50 115 2 ",
"   c #000200",
".  c gray1",
"X  c #000701",
"o  c #020502",
"O  c #040704",
"+  c #000901",
"@  c #000D01",
"#  c #0B0B0A",
"$  c #0E0E0D",
"5.  c #001002",
"&  c #001202",
"*  c #001402",
"=  c #001703",
"-  c #001903",
";  c #031A06",
":  c #001C04",
">  c #121111",
",  c #151514",
"<  c #191818",
"1  c #1D1C1B",
"2  c #002205",
"3  c #002506",
"4  c #002807",
"5  c #002E09",
"6  c #00340B",
"7  c #00390D",
"8  c #003D0E",
"9  c #003F0F",
"0  c #112113",
"q  c #262424",
"w  c #2F2D2D",
"e  c #333433",
"r  c #3C3A3A",
"t  c #3F3D3C",
"y  c #00410F",
"u  c #004310",
"i  c #004912",
"p  c #004C14",
"a  c #005115",
"s  c #005818",
"d  c #005B19",
"f  c #005E1A",
"g  c #00621C",
"h  c #00651D",
"j  c #00691E",
"k  c #3E423D",
"l  c #006C20",
"z  c #006E20",
"x  c #007021",
"c  c #007A25",
"v  c #444141",
"b  c #494746",
"n  c #555252",
"m  c #5B5858",
"M  c #5D5B5A",
"N  c #7B7776",
"B  c #008027",
"V  c #008228",
"C  c #00882A",
"Z  c #008F2D",
"A  c #00922E",
"S  c #00942F",
"D  c #00972F",
"F  c #009A31",
"G  c #009E32",
"H  c #00A736",
"J  c #00A936",
"K  c #00AA37",
"L  c #00AF38",
"P  c #00B23A",
"I  c #00B73B",
"U  c #00B73C",
"Y  c #00B93C",
"T  c #00C13F",
"R  c #00C240",
"E  c #00C541",
"W  c #00C942",
"Q  c #00CA43",
"!  c #00CC43",
"~  c #00CE44",
"^  c #00D145",
"/  c #00D547",
"(  c #00D948",
")  c #00DD4A",
"_  c #00E24B",
"`  c #00E34C",
"'  c #00E64D",
"]  c #00E84E",
"[  c #00EC4F",
"{  c #00ED50",
"}  c #00EF51",
"|  c #00F051",
" . c #00F452",
".. c #00F553",
"X. c #00FA55",
"o. c #00FE56",
"O. c #00FF59",
"+. c #8E8989",
"@. c #94908F",
"#. c #A49F9E",
"$. c #A59F9F",
"6. c #BAB4B3",
"&. c #CCC6C5",
"*. c #D7D7D7",
"=. c #D2D9D3",
"-. c #DFE8DF",
";. c #EBE4E3",
":. c #EDE8E5",
">. c #E9F4EA",
",. c #FDF5F4",
"<. c #F7F8F2",
"1. c gray98",
"2. c #FFFBF9",
"3. c #FFFDFC",
"4. c white",
/* pixels */
"_ C f D ~ Q ^ ' X.O.O.O.O.O.O.O.O.O.O.O.O.O.O.O.O.O.O.O.O.O.O.O.O.O.O.O.O.O.O.O.O.O.O.O.O.O.O.O.O.O.",
"D       5 = 4 d F E _  .o.O.O.O.O.O.O.O.O.O.O.O.O.O.O.O.O.O.O.O.O.O.O.O.O.O.O.O.O.O.O.O.O.O.O.O.O.O.",
"z               + 3 p C Q  .o.O.O.O.O.O.O.O.O.O.O.O.O.O.O.O.O.O.O.O.O.O.O.O.O.O.O.O.O.O.O.O.O.O.O.O.",
"D                     X 5 c E ] o.O.O.O.O.O.O.O.O.O.O.O.O.O.O.O.O.O.O.O.O.O.O.O.O.O.O.O.O.O.O.O.O.O.",
"( 5     . 4.4.*.e         + 5 l I [ o.o.O.O.O.O.O.O.O.O.O.O.O.O.O.O.O.O.O.O.O.O.O.O.O.O.O.O.O.O.O.O.",
"X.C     . 4.4.4.4.=.0           3 V ~  .o.O.O.O.O.O.O.O.O.O.O.O.O.O.O.O.O.O.O.O.O.O.O.O.O.O.O.O.O.O.",
"O.Y +     #.4.4.4.4.4.-.7         = d D E [ o.O.O.O.O.O.O.O.O.O.O.O.O.O.O.O.O.O.O.O.O.O.O.O.O.O.O.O.",
"O./ 4     w 4.4.4.4.4.4.4.4.=.e X + & & y C !  .O.O.O.O.O.O.O.O.O.O.O.O.O.O.O.O.O.O.O.O.O.O.O.O.O.O.",
"O.[ h       4.4.4.4.4.4.4.4.4.4.>.6 X   X : a K _ o.O.O.O.O.O.O.O.O.O.O.O.O.O.O.O.O.O.O.O.O.O.O.O.O.",
"O.o.L @     b 4.4.4.4.4.4.4.4.4.4.4.<.k . . & 5 x T  .o.O.O.O.O.O.O.O.O.O.O.O.O.O.O.O.O.O.O.O.O.O.O.",
"O.O.] d       4.4.4.4.4.4.4.4.4.4.4.4.4.4.6.q   X 8 A _ o.O.O.O.O.O.O.O.O.O.O.O.O.O.O.O.O.O.O.O.O.O.",
"O.O.o.L X     M 4.4.4.4.4.4.4.4.4.4.4.4.4.4.1.t       h { O.O.O.O.O.O.O.O.O.O.O.O.O.O.O.O.O.O.O.O.O.",
"O.O.O.` a     $ 4.4.4.4.4.4.4.4.4.4.4.:.&.@.m 1       = ~ o.O.O.O.O.O.O.O.O.O.O.O.O.O.O.O.O.O.O.O.O.",
"O.O.O.o.P -     N 4.4.4.4.4.,                         7 ) O.O.O.O.O.O.O.O.O.O.O.O.O.O.O.O.O.O.O.O.O.",
"O.O.O.o.] j     , 4.4.4.4.1.            X @ = i u 8 g Y X.O.O.O.O.O.O.O.O.O.O.O.O.O.O.O.O.O.O.O.O.O.",
"O.O.O.O.o.Y -     &.4.4.4.      + 2 8 a j Z U / ) ) ] X.O.O.O.O.O.O.O.O.O.O.O.O.O.O.O.O.O.O.O.O.O.O.",
"O.O.O.O.O.' g   X v 4.4.4.1   & D ~ ( ` ]  .o.o.O.O.O.O.O.O.O.O.O.O.O.O.O.O.O.O.O.O.O.O.O.O.O.O.O.O.",
"O.O.O.O.O.X.K &   . ;.4.,.>   7 ^ O.O.O.O.O.O.O.O.O.O.O.O.O.O.O.O.O.O.O.O.O.O.O.O.O.O.O.O.O.O.O.O.O.",
"O.O.O.O.O.O.` d     n 4.+..   a ` O.O.O.O.O.O.O.O.O.O.O.O.O.O.O.O.O.O.O.O.O.O.O.O.O.O.O.O.O.O.O.O.O.",
"O.O.O.O.O.O.X.L &   < 4.r . X j ' O.O.O.O.O.O.O.O.O.O.O.O.O.O.O.O.O.O.O.O.O.O.O.O.O.O.O.O.O.O.O.O.O.",
"O.O.O.O.O.O.O.` s   # #..     C  .O.O.O.O.O.O.O.O.O.O.O.O.O.O.O.O.O.O.O.O.O.O.O.O.O.O.O.O.O.O.O.O.O.",
"O.O.O.O.O.O.O. .G @   ;     + P o.O.O.O.O.O.O.O.O.O.O.O.O.O.O.O.O.O.O.O.O.O.O.O.O.O.O.O.O.O.O.O.O.O.",
"O.O.O.O.O.O.O.O.Q 5         2 Q O.O.O.O.O.O.O.O.O.O.O.O.O.O.O.O.O.O.O.O.O.O.O.O.O.O.O.O.O.O.O.O.O.O.",
"O.O.O.O.O.O.O.O.' l         y ) O.O.O.O.O.O.O.O.O.O.O.O.O.O.O.O.O.O.O.O.O.O.O.O.O.O.O.O.O.O.O.O.O.O.",
"O.O.O.O.O.O.O.O.X.K =       j  .O.O.O.O.O.O.O.O.O.O.O.O.O.O.O.O.O.O.O.O.O.O.O.O.O.O.O.O.O.O.O.O.O.O.",
"O.O.O.O.O.O.O.O.O.^ 6     + H X.O.O.O.O.O.O.O.O.O.O.O.O.O.O.O.O.O.O.O.O.O.O.O.O.O.O.O.O.O.O.O.O.O.O.",
"O.O.O.O.O.O.O.O.O.] x + X d ) O.O.O.O.O.O.O.O.O.O.O.O.O.O.O.O.O.O.O.O.O.O.O.O.O.O.O.O.O.O.O.O.O.O.O.",
"O.O.O.O.O.O.O.O.O.o.~ V c R X.O.O.O.O.O.O.O.O.O.O.O.O.O.O.O.O.O.O.O.O.O.O.O.O.O.O.O.O.O.O.O.O.O.O.O.",
"O.O.O.O.O.O.O.O.O.O.O.{ { o.o.O.O.O.O.O.O.O.O.O.O.O.O.O.O.O.O.O.O.O.O.O.O.O.O.O.O.O.O.O.O.O.O.O.O.O.",
"O.O.O.O.O.O.O.O.O.O.O.O.O.O.O.O.O.O.O.O.O.O.O.O.O.O.O.O.O.O.O.O.O.O.O.O.O.O.O.O.O.O.O.O.O.O.O.O.O.O.",
"O.O.O.O.O.O.O.O.O.O.O.O.O.O.O.O.O.O.O.O.O.O.O.O.O.O.O.O.O.O.O.O.O.O.O.O.O.O.O.O.O.O.O.O.O.O.O.O.O.O.",
"O.O.O.O.O.O.O.O.O.O.O.O.O.O.O.O.O.O.O.O.O.O.O.O.O.O.O.O.O.O.O.O.O.O.O.O.O.O.O.O.O.O.O.O.O.O.O.O.O.O.",
"O.O.O.O.O.O.O.O.O.O.O.O.O.O.O.O.O.O.O.O.O.O.O.O.O.O.O.O.O.O.O.O.O.O.O.O.O.O.O.O.O.O.O.O.O.O.O.O.O.O.",
"O.O.O.O.O.O.O.O.O.O.O.O.O.O.O.O.O.O.O.O.O.O.O.O.O.O.O.O.O.O.O.O.O.O.O.O.O.O.O.O.O.O.O.O.O.O.O.O.O.O.",
"O.O.O.O.O.O.O.O.O.O.O.O.O.O.O.O.O.O.O.O.O.O.O.O.O.O.O.O.O.O.O.O.O.O.O.O.O.O.O.O.O.O.O.O.O.O.O.O.O.O.",
"O.O.O.O.O.O.O.O.O.O.O.O.O.O.O.O.O.O.O.O.O.O.O.O.O.O.O.O.O.O.O.O.O.O.O.O.O.O.O.O.O.O.O.O.O.O.O.O.O.O.",
"O.O.O.O.O.O.O.O.O.O.O.O.O.O.O.O.O.O.O.O.O.O.O.O.O.O.O.O.O.O.O.O.O.O.O.O.O.O.O.O.O.O.O.O.O.O.O.O.O.O.",
"O.O.O.O.O.O.O.O.O.O.O.O.O.O.O.O.O.O.O.O.O.O.O.O.O.O.O.O.O.O.O.O.O.O.O.O.O.O.O.O.O.O.O.O.O.O.O.O.O.O.",
"O.O.O.O.O.O.O.O.O.O.O.O.O.O.O.O.O.O.O.O.O.O.O.O.O.O.O.O.O.O.O.O.O.O.O.O.O.O.O.O.O.O.O.O.O.O.O.O.O.O.",
"O.O.O.O.O.O.O.O.O.O.O.O.O.O.O.O.O.O.O.O.O.O.O.O.O.O.O.O.O.O.O.O.O.O.O.O.O.O.O.O.O.O.O.O.O.O.O.O.O.O.",
"O.O.O.O.O.O.O.O.O.O.O.O.O.O.O.O.O.O.O.O.O.O.O.O.O.O.O.O.O.O.O.O.O.O.O.O.O.O.O.O.O.O.O.O.O.O.O.O.O.O.",
"O.O.O.O.O.O.O.O.O.O.O.O.O.O.O.O.O.O.O.O.O.O.O.O.O.O.O.O.O.O.O.O.O.O.O.O.O.O.O.O.O.O.O.O.O.O.O.O.O.O.",
"O.O.O.O.O.O.O.O.O.O.O.O.O.O.O.O.O.O.O.O.O.O.O.O.O.O.O.O.O.O.O.O.O.O.O.O.O.O.O.O.O.O.O.O.O.O.O.O.O.O.",
"O.O.O.O.O.O.O.O.O.O.O.O.O.O.O.O.O.O.O.O.O.O.O.O.O.O.O.O.O.O.O.O.O.O.O.O.O.O.O.O.O.O.O.O.O.O.O.O.O.O.",
"O.O.O.O.O.O.O.O.O.O.O.O.O.O.O.O.O.O.O.O.O.O.O.O.O.O.O.O.O.O.O.O.O.O.O.O.O.O.O.O.O.O.O.O.O.O.O.O.O.O.",
"O.O.O.O.O.O.O.O.O.O.O.O.O.O.O.O.O.O.O.O.O.O.O.O.O.O.O.O.O.O.O.O.O.O.O.O.O.O.O.O.O.O.O.O.O.O.O.O.O.O.",
"O.O.O.O.O.O.O.O.O.O.O.O.O.O.O.O.O.O.O.O.O.O.O.O.O.O.O.O.O.O.O.O.O.O.O.O.O.O.O.O.O.O.O.O.O.O.O.O.O.O.",
"O.O.O.O.O.O.O.O.O.O.O.O.O.O.O.O.O.O.O.O.O.O.O.O.O.O.O.O.O.O.O.O.O.O.O.O.O.O.O.O.O.O.O.O.O.O.O.O.O.O.",
"O.O.O.O.O.O.O.O.O.O.O.O.O.O.O.O.O.O.O.O.O.O.O.O.O.O.O.O.O.O.O.O.O.O.O.O.O.O.O.O.O.O.O.O.O.O.O.O.O.O.",
"O.O.O.O.O.O.O.O.O.O.O.O.O.O.O.O.O.O.O.O.O.O.O.O.O.O.O.O.O.O.O.O.O.O.O.O.O.O.O.O.O.O.O.O.O.O.O.O.O.O."
};
