/* XPM */
static xpm_row_t quit_xpm[] = {
/* columns rows colors chars-per-pixel */
"114 54 51 1 ",
"  c #090909",
". c #0C0C0C",
"X c #191108",
"o c #181818",
"O c #53565a",
"+ c #2A1908",
"@ c #3A2207",
"# c #9C9B98",
"$ c #2D2D2D",
"% c #3A3A3A",
"& c #181818",
"* c #4B2A07",
"= c #5B3206",
"- c #6B3A05",
"; c #7C4205",
": c #434343",
"> c #9fa5a5",
", c #4d4d4d",
"< c #535353",
"1 c #5A5A5A",
"2 c #a3a2a3",
"3 c #646464",
"4 c #6A6A6A",
"5 c #747474",
"6 c #7B7B7B",
"7 c #8C4B04",
"8 c #9D5304",
"9 c #AD5B03",
"0 c #BD6302",
"q c #CE6B02",
"w c #DE7401",
"e c #EF7C01",
"r c #FF8400",
"t c #848484",
"y c #8B8B8B",
"u c #959595",
"i c #9D9D9D",
"p c #A5A5A5",
"a c #ACACAC",
"s c #B6B6B6",
"d c #BCBCBC",
"f c #C6C6C6",
"g c #CECECE",
"h c #D5D5D5",
"j c #BBB5AD",
"k c #DDDDDD",
"l c #E7E7E7",
"z c #EEEEEE",
"x c #606060",
"c c #968D70",
"v c #FFFFFF",
/* pixels */
"vvvvvvvvvvvvvvvvvvvvvvvvvvvvvvvvvvvvvvvvvvvvvvvvvvvvvvvvvvvvvvvvvvvvvvvvvvvvvvvvvvvvvvvvvvvvvvvvvvvvvvvvvvvvvvvvvv",
"vvvvvvvvvvvvvvvvvvvvvvvvvvvvvvvvvvvvvvvvvvvvvvvvvvvvvvvvvvvvvvvvvvvvvvvvvvvvvvvvvvvvvvvvvvvvvvvvvvvvvvvvvvvvvvvvvv",
"vvvvvvvvvvvvvvvvvvvvvvvvvvvvvvvvvvvvvvvvvvvvvvvvvvvvvvvvvvvvvvvvvvvvvvvvvvvvvvvvvvvvvvvvvvvvvvvvvvvvvvvvvvvvvvvvvv",
"vvvvvvvvvvvvvvvvvvvvvvvvvvvvvvvvvvvvvvvvvvvvvvvvvvvvvvvvvvvvvvvvvvvvvvvvvvvvvvvvvvvvvvvvvvvvvvvvvvvvvvvvvvvvvvvvvv",
"vvvvvvvvvvvvvvvvvvvvvvvvvvvvvvvvvvvvvvvvvvvvvvvvvvvvvvvvvvvvvvvvvvvvvvvvvvvvvvvvvvvvvvvvvvvvvvvvvvvvvvvvvvvvvvvvvv",
"vvvvvvvvvvvvvvvvvvvvvvvvvvvvvvvvvvvvvvvvvvvvvvvvvvvvvvvvvvvvvvvvvvvvvvvvvvvvvvvvvvvvvvvvvvvvvvvvvvvvvvvvvvvvvvvvvv",
"vvvvvvvvvvvvvvvvvvvvvvvvvvvvvvvvvvvvvvvvvvvvvvvvvvvvvvvvvvvvvvvvvvvvvvvvvvvvvvvvvvvvvvvvvvvvvvvvvvvvvvvvvvvvvvvvvv",
"vvvvvvvvvvvvvvvvvvvvvvvvvvvvvvvvvvvvvvvvvvvvvvvvvvvvvvvvvvvvvvvvvvvvvvvvvvvvvvvvvvvvvvvvvvvvvvvvvvvvvvvvvvvvvvvvvv",
"vvvvvvvvvvvvvvvvvvvvvvvvvvvvvvvvvvvvvvvvvvvvvvvvvvvvvvvvvvvvvvvvvvvvvvvvvvvvvvvvvvvvvvvvvvvvvvvvvvvvvvvvvvvvvvvvvv",
"vvvvvvvvvvvvvvvvvvf5%    :ijvvvvvvvvvvt:       :jvvvs:      :svvp:       :fvp:                      :jvvvvvvvvvvvv",
"vvvvvvvvvvvvvvvvp:         .<galvvvvvt           2vs          sp           p                         $fvvvvvvvvvvv",
"vvvvvvvvvvvvvvx2  +;qrrrr8-    Ofvvvv> 0rrrrrrr-X z6 7rrrrrr7  4 8rrrrrrr;   8rrrrrrrrrrrrrrrrrrrrrr*  fvvvvvvvvvv",
"vvvvvvvvvvvvvx, X8rrrrrrrrre=@=  svvvt  8rrrrr*;* ds  ;rrrr=*7 6  ;rrrrr;*;  +rrrrrrrrrrrrrrrrrrrrr0X; yvvvvvvvvvv",
"vvvvvvvvvvvvv, +wrrq9qrrrrrrr;+;  svvvt  0rrr=;* $xvs  -rw@;;  sp  7rrr7*;  : 9rrq-   *rrr8   @8rrr@7X fvvvvvvvvvv",
"vvvvvvvvvvvvt +wrr0;w-   *8rrr;@7 $xvvv> 0rrr+; $xvvvf  r0=-  svvy ;rrr-8  fu *rq =qrr9rrr8-qrr99r8*; 2vvvvvvvvvvv",
"vvvvvvvvvvvj. 0rrw@wX      9rrr@;* pvvv> 0rrr+; yvvvvv  r0-* dvvvy ;rrr-8 4vx# w==9@  *rrr8-+   Xe*7X fvvvvvvvvvvv",
"vvvvvvvvvvv3 -rrr-8* 2jvxu +rrr0 8 &vvv> 0rrr+; yvvvvz Xr0-* dvvvy ;rrr-8 4vv3 ;+7    *rrr8-+  : 7+; 2vvvvvvvvvvvv",
"vvvvvvvvvvx# wrre 0 $xvvvv: 9rrr*-@ svv> 0rrr+; yvvvvk +r0-* dvvvy ;rrr-8 4vvf + ; yd *rrr8-+ ks  -+ fvvvvvvvvvvvv",
"vvvvvvvvvvs *rrr9@7 6vvvvvy ;rrr8X7 6vv> 0rrr+; yvvvvk +r0-* dvvvy ;rrr-8 4vvv,    fd *rrr8-+ kvs.  ,vvvvvvvvvvvvv",
"vvvvvvvvvv5 7rrr;== avvvvvf @rrre 8 4vv> 0rrr+; yvvvvk +r0-* dvvvy ;rrr-8 4vvvvkfyfvd *rrr8-+ kvvjijvvvvvvvvvvvvvv",
"vvvvvvvvvv% qrrr=;+ kvvvvvz Xrrrr+7 ,vv> 0rrr+; yvvvvk +r0-* dvvvy ;rrr-8 4vvvvvvvvvd *rrr8-+ kvvvvvvvvvvvvvvvvvvv",
"vvvvvvvvvvo errr*; ,vvvvvvv  rrrr*;+ kv> 0rrr+; yvvvvk +r0-* dvvvy ;rrr-8 4vvvvvvvvvd *rrr8-+ kvvvvvvvvvvvvvvvvvvv",
"vvvvvvvvvv  rrrr+7 6vvvvvvv# wrrr--* dv> 0rrr+; yvvvvk +r0-* dvvvy ;rrr-8 4vvvvvvvvvd *rrr8-* dvvvvvvvvvvvvvvvvvvv",
"vvvvvvvvvk +rrrr+; yvvvvvvv# wrrr--* dv> 0rrr+; yvvvvk +r0-* dvvvy ;rrr-8 4vvvvvvvvvd *rrr8-* dvvvvvvvvvvvvvvvvvvv",
"vvvvvvvvvz Xrrrr+; yvvvvvvv# wrrr--* dv> 0rrr+; yvvvvk +r0-* dvvvy ;rrr-8 4vvvvvvvvvd *rrr8-* dvvvvvvvvvvvvvvvvvvv",
"vvvvvvvvvv  rrrr+; yvvvvvvvo errr=-+ kv> 0rrr+; yvvvvk +r0-* dvvvy ;rrr-8 4vvvvvvvvvd *rrr8-* dvvvvvvvvvvvvvvvvvvv",
"vvvvvvvvvvo errr*; yvvvvvvv  rrrr@;X zv1 9rrr+; yvvvvk +r0-* dvvvy ;rrr-8 4vvvvvvvvvd *rrr8-* dvvvvvvvvvvvvvvvvvvv",
"vvvvvvvvvv< 9rrr=; 2vvvvzvk +rrrrX7 2vv4 8rrr@; yvvvvk +r0-* dvvvy ;rrr-8 4vvvvvvvvvd *rrr8-* dvvvvvvvvvvvvvvvvvvv",
"vvvvvvvvvvy ;rrr;-X lvv2 2s *rrrq 8 4vv4 8rrr*; yvvvvk +r0-* dvvvy ;rrr-8 4vvvvvvvvvd *rrr8-* dvvvvvvvvvvvvvvvvvvv",
"vvvvvvvvvvf @rrr0@= af: X   ;rrr;@= pvv6 7rrr*; yvvvvd *r9-+ kvvvy ;rrr-8 4vvvvvvvvvd *rrr8-* dvvvvvvvvvvvvvvvvvvv",
"vvvvvvvvvvv& 0rrrX; 2   -7@ 0rreX;X lvvy ;rrr*8 &vvvva =r8;+ kvvvy ;rrr-8 4vvvvvvvvvd *rrr8-* dvvvvvvvvvvvvvvvvvvv",
"vvvvvvvvvvvt *rrr;;X  ;r7 ;7rrr;X; 2vvvd *rrr;;@ fvvv5 7r78 ,vvvvy ;rrr-8 4vvvvvvvvvd *rrr8-* dvvvvvvvvvvvvvvvvvvv",
"vvvvvvvvvvvx$ 7rrr*; Xrrrq@0rr9 ;X fvvvxo err9+; &vvp  qr=8 4vvvvy ;rrr-8 4vvvvvvvvvd *rrr8-* dvvvvvvvvvvvvvvvvvvv",
"vvvvvvvvvvvvs  qrrw;=  *qrrrrwX== 2fvvvv< 8rrr@;@     ;rr@8 4vvvs. ;rrr-8  fvvvvvvvj$ *rrr8-* svvvvvvvvvvvvvvvvvvv",
"vvvvvvvvvvvvv5 Xqrre9X  Xerrw+ q    2dxvp Xwrrr;=   @8rr79* pvvs  -rrrrw;; $xvvvvvj. *errrr-7 .jvvvvvvvvvvvvvvvvvv",
"vvvvvvvvvvvvvv2  ;rrrrrrrrrrr; @0;;X  $xv2 +0rrrrrrrrrr897 $xvv6 7rrrrrrr7* ,vvvvvi -rrrrrrr;- &xvvvvvvvvvvvvvvvvv",
"vvvvvvvvvvvvvvv5  ;9qrrre;;rrr9*  -7 * dvz X-0wwrrrrwq9r;  svvvs          =+ 5vvvvj.         @@ 2vvvvvvvvvvvvvvvvv",
"vvvvvvvvvvvvvvvvf  ;8rrrrr99rrrrrreX;+ kvv2  X;8rrrrr0;X  svvvvk +rrrrrrrrrq %vvvvv# wrrrrrrrrwX zvvvvvvvvvvvvvvvv",
"vvvvvvvvvvvvvvvvvf          8rrrrr;@- ,vvvvj2           :fvvvvvv:            5vvvvv3            2vvvvvvvvvvvvvvvvv",
"vvvvvvvvvvvvvvvvvvfy:     :  ;rrrw 8 .jvvvvvvfy:     :tfvvvvvvvvj:         %5vvvvvvx3#        #3xvvvvvvvvvvvvvvvvv",
"vvvvvvvvvvvvvvvvvvvvvvvvvvvp  +;r-;+ pvvvvvvvvvvvvvvvvvvvvvvvvvvvvvvvvvvvvvvvvvvvvvvvvvvvvvvvvvvvvvvvvvvvvvvvvvvvv",
"vvvvvvvvvvvvvvvvvvvvvvvvvvvvf:    = ,vvvvvvvvvvvvvvvvvvvvvvvvvvvvvvvvvvvvvvvvvvvvvvvvvvvvvvvvvvvvvvvvvvvvvvvvvvvvv",
"vvvvvvvvvvvvvvvvvvvvvvvvvvvvvvf: O Olvvvvvvvvvvvvvvvvvvvvvvvvvvvvvvvvvvvvvvvvvvvvvvvvvvvvvvvvvvvvvvvvvvvvvvvvvvvvv",
"vvvvvvvvvvvvvvvvvvvvvvvvvvvvvvvvvlalvvvvvvvvvvvvvvvvvvvvvvvvvvvvvvvvvvvvvvvvvvvvvvvvvvvvvvvvvvvvvvvvvvvvvvvvvvvvvv",
"vvvvvvvvvvvvvvvvvvvvvvvvvvvvvvvvvvvvvvvvvvvvvvvvvvvvvvvvvvvvvvvvvvvvvvvvvvvvvvvvvvvvvvvvvvvvvvvvvvvvvvvvvvvvvvvvvv",
"vvvvvvvvvvvvvvvvvvvvvvvvvvvvvvvvvvvvvvvvvvvvvvvvvvvvvvvvvvvvvvvvvvvvvvvvvvvvvvvvvvvvvvvvvvvvvvvvvvvvvvvvvvvvvvvvvv",
"vvvvvvvvvvvvvvvvvvvvvvvvvvvvvvvvvvvvvvvvvvvvvvvvvvvvvvvvvvvvvvvvvvvvvvvvvvvvvvvvvvvvvvvvvvvvvvvvvvvvvvvvvvvvvvvvvv",
"vvvvvvvvvvvvvvvvvvvvvvvvvvvvvvvvvvvvvvvvvvvvvvvvvvvvvvvvvvvvvvvvvvvvvvvvvvvvvvvvvvvvvvvvvvvvvvvvvvvvvvvvvvvvvvvvvv",
"vvvvvvvvvvvvvvvvvvvvvvvvvvvvvvvvvvvvvvvvvvvvvvvvvvvvvvvvvvvvvvvvvvvvvvvvvvvvvvvvvvvvvvvvvvvvvvvvvvvvvvvvvvvvvvvvvv",
"vvvvvvvvvvvvvvvvvvvvvvvvvvvvvvvvvvvvvvvvvvvvvvvvvvvvvvvvvvvvvvvvvvvvvvvvvvvvvvvvvvvvvvvvvvvvvvvvvvvvvvvvvvvvvvvvvv",
"vvvvvvvvvvvvvvvvvvvvvvvvvvvvvvvvvvvvvvvvvvvvvvvvvvvvvvvvvvvvvvvvvvvvvvvvvvvvvvvvvvvvvvvvvvvvvvvvvvvvvvvvvvvvvvvvvv",
"vvvvvvvvvvvvvvvvvvvvvvvvvvvvvvvvvvvvvvvvvvvvvvvvvvvvvvvvvvvvvvvvvvvvvvvvvvvvvvvvvvvvvvvvvvvvvvvvvvvvvvvvvvvvvvvvvv",
"vvvvvvvvvvvvvvvvvvvvvvvvvvvvvvvvvvvvvvvvvvvvvvvvvvvvvvvvvvvvvvvvvvvvvvvvvvvvvvvvvvvvvvvvvvvvvvvvvvvvvvvvvvvvvvvvvv",
"vvvvvvvvvvvvvvvvvvvvvvvvvvvvvvvvvvvvvvvvvvvvvvvvvvvvvvvvvvvvvvvvvvvvvvvvvvvvvvvvvvvvvvvvvvvvvvvvvvvvvvvvvvvvvvvvvv"
};
