/* XPM */
static xpm_row_t quit_glow_xpm[] = {
/* columns rows colors chars-per-pixel */
"114 54 128 2 ",
"   c #090909",
".  c #0C0C0C",
"X  c #191108",
"o  c #181818",
"O  c #1B1B1B",
"+  c #53565a",
"@  c #2A1908",
"#  c #3A2207",
"$  c #272727",
"%  c #282828",
"&  c #898e8c",
"*  c #2C2C2C",
"=  c #161616",
"-  c #393939",
";  c #3A3A3A",
":  c #E3DFD5",
">  c #4B2A07",
",  c #5B3206",
"<  c #6B3A05",
"1  c #7C4205",
"2  c #404040",
"3  c #414141",
"4  c #464646",
"5  c #1C1C1C",
"6  c #9fa5a5",
"7  c #4B4B4B",
"8  c #b7b2af",
"9  c #505050",
"0  c #515151",
"q  c #555555",
"w  c #595959",
"e  c #5A5A5A",
"r  c #5B5B5B",
"t  c #242424",
"y  c #5F5F5F",
"u  c #606060",
"i  c #262626",
"p  c #656565",
"a  c #666666",
"s  c #CDCFD0",
"d  c #A0A4A2",
"f  c #717171",
"g  c #747474",
"h  c #63666A",
"j  c #767676",
"k  c #7E7E7E",
"l  c #7f7f7f",
"z  c #8C4B04",
"x  c #9D5304",
"c  c #AD5B03",
"v  c #BD6302",
"b  c #CE6B02",
"n  c #DE7401",
"m  c #EF7C01",
"M  c #FF8400",
"N  c #808080",
"B  c #848484",
"V  c #868686",
"C  c #888888",
"Z  c #8D8D8D",
"A  c #3B3B3B",
"S  c #9c9c9c",
"D  c #9D9D9D",
"F  c #555557",
"G  c #9F9F9F",
"H  c #A0A0A0",
"J  c #404040",
"K  c #A5A5A5",
"L  c #A7A7A7",
"P  c #ACACAC",
"I  c #A3A3A0",
"U  c #AEAEAE",
"Y  c #AFAFAF",
"T  c #454545",
"R  c #B2B2B2",
"E  c #847A67",
"W  c #B4B4B4",
"Q  c #80857F",
"!  c #BBBBBB",
"~  c #BCBCBC",
"^  c #80817F",
"/  c #808080",
"(  c #bfbfbf",
")  c #C0C0C0",
"_  c #C1C1C1",
"`  c #4C4C4C",
"'  c #C6C6C6",
"]  c #CBCBCB",
"[  c #cccccc",
"{  c #CDCDCD",
"}  c #CECECE",
"|  c #AEACAA",
" . c #D0D0D0",
".. c #A3A8AB",
"X. c #D2D2D2",
"o. c #e8e8e5",
"O. c #BBB5AD",
"+. c #DADADA",
"@. c #DDDDDD",
"#. c #DFDFDF",
"$. c #DCD7D1",
"%. c #E1E1E1",
"&. c #E2E2E2",
"*. c #595959",
"=. c #e5e5e5",
"-. c #bec3af",
";. c #E9E9E9",
":. c #EAEAEA",
">. c #79877a",
",. c #464646",
"<. c #EEEEEE",
"1. c #EFEFEF",
"2. c #A49A79",
"3. c #F1F1F1",
"4. c #f2f2f2",
"5. c #F3F3F3",
"6. c #F4F4F4",
"7. c #606060",
"8. c #F6F6F6",
"9. c #968D70",
"0. c #F8F8F8",
"q. c #F9F9F9",
"w. c #98AFC7",
"e. c #FBFBFB",
"r. c #686763",
"t. c #FDFDFD",
"y. c #FEFEFE",
"u. c #FFFFFF",
/* pixels */
"u.u.u.u.u.u.u.u.u.u.u.u.u.u.u.u.u.u.u.u.u.u.u.u.u.u.u.u.u.u.u.u.u.u.u.u.u.u.u.u.u.u.u.u.u.u.u.u.u.u.u.u.u.u.u.u.u.u.u.u.u.u.u.u.u.u.u.u.u.u.u.u.u.u.u.u.e.e.e.u.u.u.e.e.e.u.u.u.e.e.e.u.u.u.u.u.u.u.u.u.u.u.u.u.u.u.u.u.u.u.u.u.u.u.",
"u.u.u.u.u.u.u.u.u.u.u.u.u.u.u.u.u.u.u.u.u.u.u.u.u.u.u.u.u.u.u.u.u.u.u.u.u.u.u.u.u.u.u.u.u.u.e.e.e.e.u.u.u.u.e.e.e.e.u.u.u.u.e.u.e.e.u.u.u.u.e.e.e.e.u.u.u.u.u.e.u.u.e.e.e.e.u.u.e.u.e.e.u.u.e.u.e.e.u.u.u.u.u.u.u.u.u.u.u.u.u.u.u.u.",
"u.u.u.u.u.u.u.u.u.u.u.u.u.u.u.u.u.u.e.e.e.e.e.e.e.e.u.e.u.u.e.e.e.e.e.e.e.e.u.e.e.e.u.e.u.e.e.e.e.e.u.u.u.u.u.u.e.e.e.e.e.e.e.e.e.e.e.e.e.e.e.e.e.e.e.e.e.e.e.e.e.e.e.e.e.e.e.e.e.e.e.e.e.e.e.e.e.e.u.u.e.u.u.u.u.u.u.u.u.u.u.u.u.u.",
"u.u.u.u.u.u.u.u.u.u.u.u.u.u.u.e.u.u.e.e.e.e.e.e.e.e.e.e.e.e.e.e.e.e.e.e.e.e.e.e.e.e.e.e.e.e.e.e.e.e.e.e.e.e.e.e.e.e.e.e.e.e.e.e.e.e.e.e.e.e.e.e.e.e.e.e.e.e.e.e.e.e.e.e.e.e.e.e.e.e.e.e.e.e.e.e.e.e.e.e.e.e.u.u.u.u.u.u.u.u.u.u.u.u.",
"u.u.u.u.u.u.u.u.u.u.u.u.u.e.e.e.e.e.e.e.e.e.e.e.e.e.e.e.e.e.e.e.e.e.e.e.e.e.e.e.e.e.e.e.e.e.e.e.e.e.e.e.e.e.e.e.e.e.e.e.e.e.e.e.e.e.e.e.e.e.e.e.e.e.e.e.e.e.e.e.e.e.e.e.e.e.e.e.e.e.e.e.e.e.e.e.e.e.e.e.e.e.u.u.u.u.u.u.u.u.u.u.u.u.",
"u.u.u.u.u.u.u.u.u.u.u.u.e.e.e.e.e.e.e.e.e.e.e.e.e.e.e.e.e.e.e.e.e.e.e.e.e.e.e.e.e.e.e.e.e.e.e.e.e.e.e.e.e.e.e.e.e.e.e.e.e.e.e.e.e.e.e.e.e.e.e.e.e.e.9.9.e.9.9.e.e.e.e.9.9.9.e.9.9.9.e.e.e.e.e.e.e.e.e.e.e.e.e.u.e.u.u.u.u.u.u.u.u.u.",
"u.u.u.u.u.u.u.u.u.u.u.u.u.e.e.e.e.e.e.e.e.e.e.e.e.e.e.e.e.e.e.e.e.e.e.e.e.e.e.e.e.e.e.e.e.e.e.e.e.e.e.e.9.9.9.9.e.e.9.9.9.9.e.e.9.9.9.9.e.9.e.e.9.9.e.9.9.9.9.9.9.9.9.9.9.9.9.9.9.9.9.9.9.9.e.e.9.e.e.e.e.e.e.e.e.e.u.u.u.u.u.u.u.u.",
"u.u.u.u.u.u.u.u.u.e.u.e.e.e.e.e.e.e.e.9.9.9.e.e.9.9.e.e.e.9.9.9.9.9.9.e.e.e.e.e.9.9.9.9.e.e.9.9.9.9.e.e.9.9.9.9.9.9.9.9.9.9.9.9.9.9.9.9.9.9.9.9.9.9.9.9.9.9.9.9.9.9.9.9.9.9.9.9.9.9.9.9.9.9.9.9.9.9.e.e.e.e.e.e.e.e.u.u.u.u.u.u.u.u.",
"u.u.u.u.u.u.u.u.e.e.e.e.e.e.e.e.e.e.e.9.9.9.9.9.9.9.9.9.9.9.9.9.9.9.9.9.9.9.9.9.9.9.9.9.9.9.9.9.9.9.9.9.9.9.9.9.9.9.9.9.9.9.9.9.9.9.9.9.9.9.9.9.9.9.9.9.9.9.9.9.9.9.9.9.9.9.9.9.9.9.9.9.9.9.9.9.9.9.e.e.e.e.e.e.e.e.u.u.u.u.u.u.u.u.",
"u.u.u.u.u.u.u.u.e.e.e.e.e.e.e.9.9.9.) d :         2 A | 9.9.9.9.9.9.9.9.9.9.N 2               2 | 9.9.9.Y 2             2 Y 9.9.G 2               2 ( 9.G 2                                             2 | e.e.e.e.u.u.u.u.u.u.u.u.",
"u.u.u.u.u.u.u.u.e.e.e.e.e.e.9.9.J 2                   . 0 ' K @.9.9.9.9.9.k                       e 9.Y                     Y G                       G                                                   % ) e.e.e.u.u.u.u.u.u.u.u.",
"u.u.u.u.u.u.u.e.e.e.e.e.e.e.<.e     @ 1 b M M M M x <         + ( 9.3.9.9.4   v M M M M M M M < X   %.g   z M M M M M M z     a   x M M M M M M M 1       x M M M M M M M M M M M M M M M M M M M M M M >     ) e.e.u.u.u.u.u.u.u.u.",
"u.u.u.u.u.e.e.e.e.e.e.e.9.<.6   X x M M M M M M M M M m , # ,     Y 3.3.3.k     x M M M M M > 1 >   W Y     1 M M M M , > z   g     1 M M M M M 1 > 1     @ M M M M M M M M M M M M M M M M M M M M M v X 1   C e.e.e.e.u.u.u.u.u.u.",
"u.u.u.u.u.e.e.e.e.e.e.e.9.6   @ n M M b c b M M M M M M M 1 @ 1     Y 3.3.3.k     v M M M , 1 >   % -.3.Y     < M n # 1 1     Y G     z M M M z > 1     2   c M M b <       > M M M x       # x M M M # z X   ) e.e.e.e.u.u.u.u.u.u.",
"u.u.u.u.e.e.e.e.e.e.e.9.N   @ n M M v 1 n <       > x M M M 1 # z   % -.3.3.3.4   v M M M @ 1   % -.3.3.3.(     M v , <     Y 3.3.V   1 M M M < x     ! Z   > M b   , b M M c M M M x < b M M c c M x > 1   e e.e.e.e.e.u.u.u.u.u.u.",
"u.u.u.u.e.e.e.e.e.e.9.| .   v M M n # n X             c M M M # 1 >   S 3.3.3.4   v M M M @ 1   V 3.3.3.3.3.    M v < >   R 3.3.3.V   1 M M M < x   a 3.-.$   n , , c #     > M M M x < @       X m > z X   ) e.e.e.e.e.u.u.u.u.u.u.",
"u.u.u.e.e.e.e.e.e.e.9.u   < M M M < x >   e ] 3.-.Z   @ M M M v   x   : 3.3.3.4   v M M M @ 1   V 3.3.3.3.%.  X M v < >   R 3.3.3.V   1 M M M < x   a 3.3.t   1 @ z         > M M M x < @     2   z @ 1   t e.e.e.e.e.e.u.u.u.u.u.u.",
"u.u.u.e.e.e.e.e.e.9.<.%   n M M m   v   % -.3.3.3.3.2   c M M M > < #   Y 3.3.4   v M M M @ 1   V 3.3.3.3...  @ M v < >   R 3.3.3.V   1 M M M < x   a 3.3.!   @   1   V R   > M M M x < @   ..Y     < @   ) e.e.e.e.e.e.u.u.u.u.u.u.",
"u.u.u.e.e.e.e.e.e.9.Y   > M M M c # z   g 3.3.3.3.3.V   1 M M M x X z   g 3.3.4   v M M M @ 1   V 3.3.3.3...  @ M v < >   R 3.3.3.V   1 M M M < x   a 3.3.3.6         ! R   > M M M x < @   ..3.Y .     6 9.e.e.e.e.u.u.u.u.u.u.u.u.",
"u.u.u.e.e.e.e.e.e.9.d   z M M M 1 , ,   J 3.3.3.3.3.!   # M M M m   x   a 3.3.4   v M M M @ 1   V 3.3.3.3...  @ M v < >   R 3.3.3.V   1 M M M < x   a 3.3.3.3...! V ! 3.R   > M M M x < @   ..3.3.| A | 9.e.e.e.e.e.u.u.u.u.u.u.u.u.",
"u.u.e.u.e.e.e.9.9.9.:   b M M M , 1 @   ..3.3.3.3.3.%.  X M M M M @ z   6 3.3.4   v M M M @ 1   V 3.3.3.3...  @ M v < >   R 3.3.3.V   1 M M M < x   a 3.3.3.3.3.3.3.3.3.R   > M M M x < @   ..3.3.3.9.9.9.9.e.e.e.e.u.u.u.u.u.u.u.u.",
"u.u.e.u.e.e.e.9.9.9.o   m M M M > 1   6 3.3.3.3.3.3.3.    M M M M > 1 @   ..3.4   v M M M @ 1   V 3.3.3.3...  @ M v < >   R 3.3.3.V   1 M M M < x   a 3.3.3.3.3.3.3.3.3.R   > M M M x < @   ..3.3.3.9.9.9.9.e.e.e.e.u.u.u.u.u.u.u.u.",
"u.u.e.e.e.e.e.9.9.9.    M M M M @ z   g 3.3.3.3.3.3.3.$   n M M M < < >   R 3.4   v M M M @ 1   V 3.3.3.3...  @ M v < >   R 3.3.3.V   1 M M M < x   a 3.3.3.3.3.3.3.3.3.R   > M M M x < >   R 3.3.9.9.9.e.e.e.e.e.e.u.u.u.u.u.u.u.u.",
"u.u.u.u.e.e.e.e.9.O.  @ M M M M @ 1   V 3.3.3.3.3.3.3.$   n M M M < < >   R 3.4   v M M M @ 1   V 3.3.3.3...  @ M v < >   R 3.3.3.V   1 M M M < x   a 3.3.3.3.3.3.3.3.3.R   > M M M x < >   R 3.9.9.9.9.e.e.e.e.e.e.u.u.u.u.u.u.u.u.",
"u.u.e.e.e.e.e.9.9.=.  X M M M M @ 1   V 3.3.3.3.3.3.3.$   n M M M < < >   R 3.4   v M M M @ 1   V 3.3.3.3...  @ M v < >   R 3.3.3.V   1 M M M < x   a 3.3.3.3.3.3.3.3.3.R   > M M M x < >   W 3.9.9.9.9.9.e.e.e.e.e.u.u.u.u.u.u.u.u.",
"u.u.e.u.e.e.e.9.9.9.    M M M M @ 1   V 3.3.3.3.3.3.3.o   m M M M , < @   ..3.4   v M M M @ 1   V 3.3.3.3...  @ M v < >   R 3.3.3.V   1 M M M < x   a 3.3.3.3.3.3.3.3.3.R   > M M M x < >   R 9.9.9.9.e.e.e.e.e.e.u.u.u.u.u.u.u.u.u.",
"u.u.e.e.e.e.e.e.9.9.o   m M M M > 1   V 3.3.3.3.3.3.3.    M M M M # 1 X   %.3.q   c M M M @ 1   V 3.3.3.3...  @ M v < >   R 3.3.3.V   1 M M M < x   a 3.3.3.3.3.3.3.3.3.R   > M M M x < >   R 9.9.9.9.e.e.e.e.u.u.u.u.u.u.u.u.u.u.u.",
"u.u.e.e.e.e.e.e.9.9.0   c M M M , 1   e 3.3.3.3.%.3...  @ M M M M X z   e 3.3.a   x M M M # 1   V 3.3.3.3...  @ M v < >   R 3.3.3.V   1 M M M < x   a 3.3.3.3.3.3.3.3.3.R   > M M M x < >   W 9.9.9.9.e.e.e.e.u.u.u.u.u.u.u.u.u.u.u.",
"u.u.u.e.e.e.e.e.e.9.V   1 M M M 1 < X   +.3.3.e   e Y   > M M M b   x   a 3.3.a   x M M M > 1   V 3.3.3.3...  @ M v < >   R 3.3.3.V   1 M M M < x   a 3.3.3.3.3.3.3.3.3.R   > M M M x < >   W 9.9.9.9.e.e.e.e.e.u.u.u.u.u.u.u.u.u.u.",
"u.u.u.e.e.e.e.e.e.9.(   # M M M v # ,   J ! 2   X       1 M M M 1 # ,   G 3.3.g   z M M M > 1   V 3.3.3.3.R   > M c < @   ..3.3.3.V   1 M M M < x   a 3.3.3.3.3.3.3.3.3.R   > M M M x < >   W 9.9.9.9.e.e.e.e.u.u.u.u.u.u.u.u.u.u.u.",
"u.u.u.e.e.e.e.e.e.9.9.:   v M M M X 1   e       < z #   v M M m X 1 X   +.3.3.V   1 M M M > x   : 3.3.3.3.J   , M x 1 @   ..3.3.3.V   1 M M M < x   a 3.3.3.3.9.3.3.3.3.W   > M M M x < >   W 9.9.9.9.e.e.e.u.u.u.u.u.u.u.u.u.u.u.u.",
"u.u.u.u.e.e.e.e.e.e.9.N   > M M M 1 1 X     1 M z   1 z M M M 1 X 1   e 3.3.3.R   > M M M 1 1 #   ! 3.3.3.s   z M z x   6 3.3.3.3.V   1 M M M < x   a 3.3.3.3.9.9.3.3.3.R   > M M M x < >   W 9.9.9.9.e.e.e.u.u.u.u.u.u.u.u.u.u.u.u.",
"u.u.u.u.u.e.e.e.e.e.9.<.*   z M M M > 1   X M M M b # v M M c   1 X   ! 3.3.3.-.o   m M M c @ 1   : 3.3.G     b M , x   a 3.3.3.3.V   1 M M M < x   a 3.9.3.3.3.3.3.9.3.R   > M M M x < >   W 9.9.e.e.e.e.e.u.u.u.u.u.u.u.u.u.u.u.u.",
"u.u.u.u.u.e.e.e.e.e.e.9.R     b M M n 1 ,     > b M M M M n X , ,   e ! 3.3.3.3.8   x M M M # 1 #           1 M M # x   a 3.3.3.Y .   1 M M M < x     ( 9.9.3.3.9.3.9.| %   > M M M x < >   Y 9.9.e.e.e.e.e.u.u.u.u.u.u.u.u.u.u.u.u.",
"u.u.u.u.u.u.e.e.e.e.e.9.9.d   X b M M m c X     X m M M n @   b         e R -.3.G   X n M M M 1 ,       # x M M z c >   G 3.3.Y     < M M M M n 1 1   % <.9.9.9.9.9.| .   > m M M M M < z   . ..9.e.e.e.e.e.e.u.u.u.u.u.u.u.u.u.u.u.",
"u.u.u.u.u.u.e.e.e.e.e.e.9.9.e     1 M M M M M M M M M M M 1   # v 1 1 X     % -.3.e   @ v M M M M M M M M M M x c z   % -.3.3.g   z M M M M M M M z >   6 9.9.9.9.9.A   < M M M M M M M 1 <   : <.e.e.e.e.e.e.u.u.u.u.u.u.u.u.u.u.u.",
"u.u.u.u.u.u.e.e.e.e.e.e.e.9.9.s     1 c b M M M m 1 1 M M M c >     < z   >   R 3.%.  X < v n n M M M M n b c M 1     Y 3.3.3.Y                     , @   d 9.9.9.9.| .                   # #   e e.e.e.e.e.e.u.u.u.u.u.u.u.u.u.u.u.",
"u.u.u.u.u.u.e.e.e.e.e.e.9.9.9.9.(     1 x M M M M M c c M M M M M M m X 1 @   ..3.3.e     X 1 x M M M M M v 1 X     Y 9.9.9.9.O.  @ M M M M M M M M M b   : 9.9.9.9.9.%   n M M M M M M M M n X   -.e.e.e.e.u.u.u.u.u.u.u.u.u.u.u.u.",
"u.u.u.u.u.u.u.e.u.e.e.e.e.e.e.9.9.(                     x M M M M M 1 # <   6 3.3.3.3.| e                       2 ( 9.9.9.9.9.9.2                         d 9.9.9.9.9.u                         t e.e.e.u.e.u.u.u.u.u.u.u.u.u.u.u.u.",
"u.u.u.u.u.u.u.u.u.e.e.e.e.e.e.e.9.9.( V 2           2     1 M M M n   x   . | 9.9.9.9.9.9.( V 2           2 N ( 9.9.9.9.9.9.9.9.| 2                   : d 9.9.9.9.9.9.<.u %                 $ u 3.e.e.e.u.u.u.u.u.u.u.u.u.u.u.u.u.u.",
"u.u.u.u.u.u.u.u.u.e.e.e.e.e.e.e.e.e.9.9.9.9.9.3.3.3.3.G     @ 1 M < 1 @   G 9.9.9.9.9.9.9.9.9.9.9.9.9.9.9.9.9.9.9.9.9.9.9.9.9.9.9.9.9.9.9.9.9.9.9.9.9.9.e.e.e.e.e.e.e.e.e.e.e.9.9.9.9.9.9.e.e.e.e.e.e.e.e.u.u.u.u.u.u.u.u.u.u.u.u.u.",
"u.u.u.u.u.u.u.u.u.u.e.e.e.e.e.e.e.e.e.9.9.9.9.9.9.9.9.9.( 2         ,   6 9.9.9.9.9.9.9.9.9.9.9.9.9.9.9.e.e.e.9.9.9.e.e.e.e.9.9.e.e.9.9.9.9.e.e.9.e.e.e.e.e.e.e.e.e.e.e.e.e.e.e.e.e.e.e.e.e.e.e.e.e.u.u.u.u.u.u.u.u.u.u.u.u.u.u.u.u.",
"u.u.u.u.u.u.u.u.u.u.u.e.e.e.e.e.e.e.e.e.e.9.9.9.9.9.9.9.9.9.( 2   o   o @.9.9.9.9.9.e.e.9.9.e.e.9.9.e.e.e.e.e.e.e.e.e.e.e.e.e.e.e.e.e.e.e.e.e.e.e.e.e.e.e.e.e.e.e.e.e.e.e.e.e.e.e.e.e.e.e.e.e.e.e.u.u.u.u.u.u.u.u.u.u.u.u.u.u.u.u.u.",
"u.u.u.u.u.u.u.u.u.u.u.u.e.e.u.e.e.e.e.e.e.e.9.9.9.9.9.9.9.9.9.9.9.%.K %.e.e.e.9.9.e.e.e.e.e.e.e.e.e.e.e.e.e.e.e.e.e.e.e.e.e.e.e.e.e.e.e.e.e.e.e.e.e.e.e.e.e.e.e.e.e.e.e.e.e.e.e.e.e.e.e.e.e.e.e.u.u.u.u.u.u.u.u.u.u.u.u.u.u.u.u.u.u.",
"u.u.u.u.u.u.u.u.u.u.u.u.u.e.e.e.e.e.e.e.e.e.e.e.e.e.e.e.e.e.e.e.e.e.e.e.e.e.e.e.e.e.e.e.e.e.e.e.e.e.e.e.e.e.e.e.e.e.e.e.e.e.e.e.e.e.e.e.e.e.e.e.e.e.e.e.e.e.e.e.e.e.e.e.e.e.e.e.e.e.e.e.e.e.u.u.e.e.u.u.u.u.u.u.u.u.u.u.u.u.u.u.u.u.",
"u.u.u.u.u.u.u.u.u.u.u.u.u.u.u.u.u.u.e.e.e.e.e.e.e.e.e.e.e.e.e.e.e.e.e.e.e.e.e.e.e.e.e.e.e.e.e.e.e.e.e.e.e.e.e.e.e.e.e.e.e.e.e.e.e.e.e.e.e.e.e.e.e.e.e.u.e.e.e.e.e.e.u.u.u.e.e.e.u.u.e.e.e.e.u.u.u.u.u.u.u.u.u.u.u.u.u.u.u.u.u.u.u.u.",
"u.u.u.u.u.u.u.u.u.u.u.u.u.u.u.u.u.u.e.e.e.e.e.e.e.e.e.e.e.e.e.e.e.e.e.e.e.e.e.e.e.e.e.e.e.e.e.u.e.u.u.u.u.u.e.e.e.e.u.u.u.u.e.e.u.u.u.u.e.e.u.e.u.e.u.u.e.e.u.u.e.e.u.u.e.e.e.e.u.e.e.e.e.u.u.u.u.u.u.u.u.u.u.u.u.u.u.u.u.u.u.u.u.u.",
"u.u.u.u.u.u.u.u.u.u.u.u.u.u.u.u.u.u.u.u.e.e.e.u.e.e.e.e.e.e.e.e.e.e.e.e.e.e.e.e.e.e.e.e.u.u.u.u.e.u.u.u.u.u.u.u.u.u.u.u.u.u.u.u.u.u.u.u.u.u.u.u.u.u.u.u.u.u.u.u.u.u.u.u.u.u.u.u.u.u.u.u.u.u.u.u.u.u.u.u.u.u.u.u.u.u.u.u.u.u.u.u.u.u.",
"u.u.u.u.u.u.u.u.u.u.u.u.u.u.u.u.u.u.u.u.u.u.e.e.e.e.e.e.e.e.e.e.e.u.e.e.e.e.u.u.e.e.u.u.u.u.u.u.u.u.u.u.u.u.u.u.u.u.u.u.u.u.u.u.u.u.u.u.u.u.u.u.u.u.u.u.u.u.u.u.u.u.u.u.u.u.u.u.u.u.u.u.u.u.u.u.u.u.u.u.u.u.u.u.u.u.u.u.u.u.u.u.u.u.",
"u.u.u.u.u.u.u.u.u.u.u.u.u.u.u.u.u.u.u.u.u.u.u.u.u.u.u.e.e.e.e.e.e.e.e.e.u.u.u.u.u.u.u.u.u.u.u.u.u.u.u.u.u.u.u.u.u.u.u.u.u.u.u.u.u.u.u.u.u.u.u.u.u.u.u.u.u.u.u.u.u.u.u.u.u.u.u.u.u.u.u.u.u.u.u.u.u.u.u.u.u.u.u.u.u.u.u.u.u.u.u.u.u.u.",
"u.u.u.u.u.u.u.u.u.u.u.u.u.u.u.u.u.u.u.u.u.u.u.u.u.u.u.u.u.u.u.u.u.u.u.u.u.u.u.u.u.u.u.u.u.u.u.u.u.u.u.u.u.u.u.u.u.u.u.u.u.u.u.u.u.u.u.u.u.u.u.u.u.u.u.u.u.u.u.u.u.u.u.u.u.u.u.u.u.u.u.u.u.u.u.u.u.u.u.u.u.u.u.u.u.u.u.u.u.u.u.u.u.u.",
"u.u.u.u.u.u.u.u.u.u.u.u.u.u.u.u.u.u.u.u.u.u.u.u.u.u.u.u.u.u.u.u.u.u.u.u.u.u.u.u.u.u.u.u.u.u.u.u.u.u.u.u.u.u.u.u.u.u.u.u.u.u.u.u.u.u.u.u.u.u.u.u.u.u.u.u.u.u.u.u.u.u.u.u.u.u.u.u.u.u.u.u.u.u.u.u.u.u.u.u.u.u.u.u.u.u.u.u.u.u.u.u.u.u.",
"u.u.u.u.u.u.u.u.u.u.u.u.u.u.u.u.u.u.u.u.u.u.u.u.u.u.u.u.u.u.u.u.u.u.u.u.u.u.u.u.u.u.u.u.u.u.u.u.u.u.u.u.u.u.u.u.u.u.u.u.u.u.u.u.u.u.u.u.u.u.u.u.u.u.u.u.u.u.u.u.u.u.u.u.u.u.u.u.u.u.u.u.u.u.u.u.u.u.u.u.u.u.u.u.u.u.u.u.u.u.u.u.u.u.",
"u.u.u.u.u.u.u.u.u.u.u.u.u.u.u.u.u.u.u.u.u.u.u.u.u.u.u.u.u.u.u.u.u.u.u.u.u.u.u.u.u.u.u.u.u.u.u.u.u.u.u.u.u.u.u.u.u.u.u.u.u.u.u.u.u.u.u.u.u.u.u.u.u.u.u.u.u.u.u.u.u.u.u.u.u.u.u.u.u.u.u.u.u.u.u.u.u.u.u.u.u.u.u.u.u.u.u.u.u.u.u.u.u.u."
};
