/* XPM */
static xpm_row_t start_game_xpm[] = {
/* columns rows colors chars-per-pixel */
"281 54 52 1 ",
"  c #090909",
". c #0C0C0C",
"X c #191108",
"o c #181818",
"O c #53565a",
"+ c #2A1908",
"@ c #3A2207",
"# c #9C9B98",
"$ c #2D2D2D",
"% c #3A3A3A",
"& c #181818",
"* c #4B2A07",
"= c #5B3206",
"- c #6B3A05",
"; c #7C4205",
": c #434343",
"> c #9fa5a5",
", c #4d4d4d",
"< c #535353",
"1 c #5A5A5A",
"2 c #a3a2a3",
"3 c #646464",
"4 c #6A6A6A",
"5 c #747474",
"6 c #7B7B7B",
"7 c #8C4B04",
"8 c #9D5304",
"9 c #AD5B03",
"0 c #BD6302",
"q c #CE6B02",
"w c #DE7401",
"e c #EF7C01",
"r c #FF8400",
"t c #848484",
"y c #8B8B8B",
"u c #959595",
"i c #9D9D9D",
"p c #A5A5A5",
"a c #ACACAC",
"s c #B6B6B6",
"d c #BCBCBC",
"f c #C6C6C6",
"g c #CECECE",
"h c #D5D5D5",
"j c #BBB5AD",
"k c #DDDDDD",
"l c #e5e5e5",
"z c #E7E7E7",
"x c #EEEEEE",
"c c #606060",
"v c #968D70",
"b c #FFFFFF",
/* pixels */
"bbbbbbbbbbbbbbbbbbbbbbbbbbbbbbbbbbbbbbbbbbbbbbbbbbbbbbbbbbbbbbbbbbbbbbbbbbbbbbbbbbbbbbbbbbbbbbbbbbbbbbbbbbbbbbbbbbbbbbbbbbbbbbbbbbbbbbbbbbbbbbbbbbbbbbbbbbbbbbbbbbbbbbbbbbbbbbbbbbbbbbbbbbbbbbbbbbbbbbbbbbbbbbbbbbbbbbbbbbbbbbbbbbbbbbbbbbbbbbbbbbbbbbbbbbbbbbbbbbbbbbbbbbbbbbbbbbbbbbbbb",
"bbbbbbbbbbbbbbbbbbbbbbbbbbbbbbbbbbbbbbbbbbbbbbbbbbbbbbbbbbbbbbbbbbbbbbbbbbbbbbbbbbbbbbbbbbbbbbbbbbbbbbbbbbbbbbbbbbbbbbbbbbbbbbbbbbbbbbbbbbbbbbbbbbbbbbbbbbbbbbbbbbbbbbbbbbbbbbbbbbbbbbbbbbbbbbbbbbbbbbbbbbbbbbbbbbbbbbbbbbbbbbbbbbbbbbbbbbbbbbbbbbbbbbbbbbbbbbbbbbbbbbbbbbbbbbbbbbbbbbbbb",
"bbbbbbbbbbbbbbbbbbbbbbbbbbbbbbbbbbbbbbbbbbbbbbbbbbbbbbbbbbbbbbbbbbbbbbbbbbbbbbbbbbbbbbbbbbbbbbbbbbbbbbbbbbbbbbbbbbbbbbbbbbbbbbbbbbbbbbbbbbbbbbbbbbbbbbbbbbbbbbbbbbbbbbbbbbbbbbbbbbbbbbbbbbbbbbbbbbbbbbbbbbbbbbbbbbbbbbbbbbbbbbbbbbbbbbbbbbbbbbbbbbbbbbbbbbbbbbbbbbbbbbbbbbbbbbbbbbbbbbbbb",
"bbbbbbbbbbbbbbbbbbbbbbbbbbbbbbbbbbbbbbbbbbbbbbbbbbbbbbbbbbbbbbbbbbbbbbbbbbbbbbbbbbbbbbbbbbbbbbbbbbbbbbbbbbbbbbbbbbbbbbbbbbbbbbbbbbbbbbbbbbbbbbbbbbbbbbbbbbbbbbbbbbbbbbbbbbbbbbbbbbbbbbbbbbbbbbbbbbbbbbbbbbbbbbbbbbbbbbbbbbbbbbbbbbbbbbbbbbbbbbbbbbbbbbbbbbbbbbbbbbbbbbbbbbbbbbbbbbbbbbbbb",
"bbbbbbbbbbbbbbbbbbbbbbbbbbbbbbbbbbbbbbbbbbbbbbbbbbbbbbbbbbbbbbbbbbbbbbbbbbbbbbbbbbbbbbbbbbbbbbbbbbbbbbbbbbbbbbbbbbbbbbbbbbbbbbbbbbbbbbbbbbbbbbbbbbbbbbbbbbbbbbbbbbbbbbbbbbbbbbbbbbbbbbbbbbbbbbbbbbbbbbbbbbbbbbbbbbbbbbbbbbbbbbbbbbbbbbbbbbbbbbbbbbbbbbbbbbbbbbbbbbbbbbbbbbbbbbbbbbbbbbbbb",
"bbbbbbbbbbbbbbbbbbbbbbbbbbbbbbbbbbbbbbbbbbbbbbbbbbbbbbbbbbbbbbbbbbbbbbbbbbbbbbbbbbbbbbbbbbbbbbbbbbbbbbbbbbbbbbbbbbbbbbbbbbbbbbbbbbbbbbbbbbbbbbbbbbbbbbbbbbbbbbbbbbbbbbbbbbbbbbbbbbbbbbbbbbbbbbbbbbbbbbbbbbbbbbbbbbbbbbbbbbbbbbbbbbbbbbbbbbbbbbbbbbbbbbbbbbbbbbbbbbbbbbbbbbbbbbbbbbbbbbbbb",
"bbbbbbbbbbbbbbbbbbbbbbbbbbbbbbbbbbbbbbbbbbbbbbbbbbbbbbbbbbbbbbbbbbbbbbbbbbbbbbbbbbbbbbbbbbbbbbbbbbbbbbbbbbbbbbbbbbbbbbbbbbbbbbbbbbbbbbbbbbbbbbbbbbbbbbbbbbbbbbbbbbbbbbbbbbbbbbbbbbbbbbbbbbbbbbbbbbbbbbbbbbbbbbbbbbbbbbbbbbbbbbbbbbbbbbbbbbbbbbbbbbbbbbbbbbbbbbbbbbbbbbbbbbbbbbbbbbbbbbbbb",
"bbbbbbbbbbbbbbbbbbbbbbbbbbbbbbbbbbbbbbbbbbbbbbbbbbbbbbbbbbbbbbbbbbbbbbbbbbbbbbbbbbbbbbbbbbbbbbbbbbbbbbbbbbbbbbbbbbbbbbbbbbbbbbbbbbbbbbbbbbbbbbbbbbbbbbbbbbbbbbbbbbbbbbbbbbbbbbbbbbbbbbbbbbbbbbbbbbbbbbbbbbbbbbbbbbbbbbbbbbbbbbbbbbbbbbbbbbbbbbbbbbbbbbbbbbbbbbbbbbbbbbbbbbbbbbbbbbbbbbbbb",
"bbbbbbbbbbbbbbbbbbbbbbbbbbbbbbbbbbbbbbbbbbbbbbbbbbbbbbbbbbbbbbbbbbbbbbbbbbbbbbbbbbbbbbbbbbbbbbbbbbbbbbbbbbbbbbbbbbbbbbbbbbbbbbbbbbbbbbbbbbbbbbbbbbbbbbbbbbbbbbbbbbbbbbbbbbbbbbbbbbbbbbbbbbbbbbbbbbbbbbbbbbbbbbbbbbbbbbbbbbbbbbbbbbbbbbbbbbbbbbbbbbbbbbbbbbbbbbbbbbbbbbbbbbbbbbbbbbbbbbbbb",
"bbbbbbbbbbbbbbbbbbbbbbbbbbbbbbbbbbbbbbbbbbbbbbbbbbbbbbbbbbbbbbbbbbbbbbbbbbbbbbbbbbbbbbbbbbbbbbbbbbbbbbbbbbbbbbbbbbbbbbbbbbbbbbbbbbbbbbbbbbbbbbbbbbbbbbbbbbbbbbbbbbbbbbbbbbbbbbbbbbbbbbbbbbbbbbbbbbbbbbbbbbbbbbbbbbbbbbbbbbbbbbbbbbbbbbbbbbbbbbbbbbbbbbbbbbbbbbbbbbbbbbbbbbbbbbbbbbbbbbbbb",
"bbbbbbbbbbbbbbvd:     :tyfbfyfbbp:                      :hbbbbbbbbbp:       :fgbbbbbbbbbbbbbbbbfy3#     %5dvbbbbbbbp:                      :hbbbbbbbbbbbbbbbbbbbbhi:     :yyfbbbgbbbbbbbbbbbbbbbp:       :fgbbbbbbbbbbp:        :fbbbbh:        :pbbbh:                   :sbbbbbbbbbbbbb",
"bbbbbbbbbbbbbu$               2p                         $fbbbbbbbp            &bbbbbbbbbbbbf3#            $5vbbbbp                         $fbbbbbbbbbbbbbbbbbh<.               &fbbbbbbbbbbbbp            &bbbbbbbbp            sbbzO           pbzO                      sbbbbbbbbbbbb",
"bbbbbbbbbbbb2  *;rrrrr0;;X X;X , 8rrrrrrrrrrrrrrrrrrrrrr*  fbbbbbb4 8rrrrrrr;@@ gbbbbbbbbbbp   X;;wrrrrrq;*  $fkbb4 8rrrrrrrrrrrrrrrrrrrrrr*  fbbbbbbbbbbbbbbbu.  -7rrrrr9;;+   @  fbbbbbbbbbbb4 8rrrrrrr;@@ gbbbbbbb4 8rrrrrrrr;  2ba =rrrrrrrr8  sa =rrrrrrrrrrrrrrrrrrr7  fbbbbbbbbbbb",
"bbbbbbbbbbb2 X9rrrrrrrrrrrrr*-+  +rrrrrrrrrrrrrrrrrrrrr0X; ybbbbbbp  0rrrrr7+8 &bbbbbbbbbb2  ;wrrw;    ;qrrq*   ,bp +rrrrrrrrrrrrrrrrrrrrr0X; ybbbbbbbbbbbbbbt  -errrrrrrrrrrrrr;; ybbbbbbbbbbbp  0rrrrr7+8 &bbbbbbbbp  ;rrrrrr=@7X xzO -rrrrrr8 7 6zO *rrrrrrrrrrrrrrrrrq ; ybbbbbbbbbbb",
"bbbbbbbbbbp Xqrrw0wrrrrrrrr0X7 ,: 9rrq-   *rrr8   @8rrr@7X fbbbbbbbt @rrrre 9  pbbbbbbbbbx X8rrrr8@0rrr8*8rrr; + 2b: 9rrq-   *rrr8   @8rrr@7X fbbbbbbbbbbbbbt  9rrreqqrrewwrrrrw+- ibbbbbbbbbbbbt @rrrre 9  pbbbbbbbbbp  8rrrr-=-  2bbh. 7rrrr8*8X sbh$ @errr      +;errr@-+ fbbbbbbbbbbb",
"bbbbbbbbbb: 8rrq;0*  X;errr=;X su *rq =qrr9rrr8-qrr99r8*; 2bbbbbbbb3 7rrrrr=7 &bbbbbbbbbbb2  =rrr8-+   =8;9rrr-*X hu *rq =qrr9rrr8-qrr99r8*; 2bbbbbbbbbbbbbu  0rrr97q-  X;0qrrr-; .hbbbbbbbbbbbb3 7rrrrr=7 &bbbbbbbbbbby ;rrrr;-+ sbbbb: 0rrrr-;  2bbbh# wrrr 88rrre;*er8+; ,bbbbbbbbbbbb",
"bbbbbbbbbf +rrr@9       -rw+; 2bv# w==9@  *rrr8-+   Xe*7X fbbbbbbbv# we9rrr9-@ fbbbbbbbbbbbp *rrr8-+     @=rrrwX- iv# w==9@  *rrr8-+   Xe*7X fbbbbbbbbbbbbzO 9rrr0;0       =wrw+- ibbbbbbbbbbbbv# we9rrr9-@ fbbbbbbbbbby ;rerrqX- ibbbf +rrrrr-; ybbbbb# wrrr ;     =87r+7  fbbbbbbbbbbbb",
"bbbbbbbbby ;rrw 7 ,vbf<. 8;7X fbb3 ;+7    *rrr8-+  : 7+; 2bbbbbbbbp *r7-rrrr+; ybbbbbbbbbbbd *rrr8-+ kzp&  rrrr+; yb3 ;+7    *rrr8-+  : 7+; 2bbbbbbbbbbbbb3 =rrre@q  5hbftO -r-7 .hbbbbbbbbbbbbp *r7-rrrr+; ybbbbbbbbbby ;r9rrr+; ,bbb3 ;rwrrr-; ybbbbb# wrrr ;    o  +;** sbbbbbbbbbbbbb",
"bbbbbbbbb6 7rrw ;+ $vbbp @@; 2bbbf + ; yd *rrr8-+ ks  -+ fbbbbbbu1< 8r@8wrrr;7 Okbbbbbbbbbbd *rrr8-+ kbbb  rrrr+; ybf + ; yd *rrr8-+ ks  -+ fbbbbbbbbbbbbv# wrrr;;=  :hbbbh Xw+; ybbbbbbbbbbbu1< 8r@8wrrr;7 Okbbbbbbbbby ;r=rrr;=+ fbb# we7rrr-; ybbbbb# wrrr ; ybb,    - $vbbbbbbbbbbbbb",
"bbbbbbbbb6 7rrr@ =* dbbb&    fbbbb,    fd *rrr8-+ kbs.  ,bbbbbbu   XeqX7;rrrq*=  ,dvbbbbbbbd *rrr8-+ kbbp @rrrrX7 6bb,    fd *rrr8-+ kbs.  ,bbbbbbbbbbbbbs *rrrr@8    &bbbb2 @7X fbbbbbbbbbbu   XeqX7;rrrq*=  ,dvbbbbbby ;rXerrqX; ybs @r8;rrr-; ybbbbb# wrrr ; yb, +@ . .hbbbbbbbbbbbbbb",
"bbbbbbbbby ;rrrqX  $yfbbbgfyfbbbbbbkfyfbd *rrr8-+ kbbhihbbbbbbu  9*-r;;@+rrrr@7 +  $vbbbbbbd *rrr8-+ kbp. 8rrr8X7 6bbbkfyfbd *rrr8-+ kbbhihbbbbbbbbbbbbbb5 7rrre 8Xqr@ fbbbv&   2bbbbbbbbbbu  9*-r;;@+rrrr@7 +  $vbbbbby ;r wrrr+; &b< 7r*8rrr-; ybbbbb# wrrr ; yu +9-+ ihbbbbbbbbbbbbbbb",
"bbbbbbbbbd *rrrrw-     :yfbbbbbbbbbbbbbbd *rrr8-+ kbbbbbbbbbbv$ 9@7qrX8  0rrr7;*w@* dbbbbbbd *rrr8-+ i:  -rrrwX;+ sbbbbbbbbd *rrr8-+ kbbbbbbbbbbbbbbbbbbb% qrrr9+7-rr;           :tkbbbbbbv$ 9@7qrX8  0rrr7;*w@* dbbbbby ;r qrrr;=@ fo eeXerrr-; ybbbbu# wrrr ;    90-+ kbbbbbbbbbbbbbbbb",
"bbbbbbbbbv# wrrrrrr7;X    :sbxbbbbbbbbbbd *rrr8-+ kbbbbbbbbbb5 *re-r9@;  -rrre8rr;; .hbbbbbd *rrr8-+   X8rrrq+*7 ,bbbbbbbbbd *rrr8-+ kbbbbbbbbbbbbbbbbbbbo errr7@;=r8+              ,bbbbb5 *re-r9@;  -rrre8rr;; .hbbbby ;r 7errq ; y =r7-0rrr-; ybbv,   wrrr ;   -r0-+ kbbbbbbbbbbbbbbbb",
"bbbbbbbbbb3 @rrrrrrrrrr8;   2 2bbbbbbbbbd *rrr8-* dbbbbbbbbbb% qrrrr=7X  Xerrrrrrw+- ibbbb5% *rrr8-+ -8rrre; =7  sbbbbbbbbbd *rrr8-* dbbbbbbbbbbbbbbbbbbb  rrrr;*- 8rrrrrrrrrrrrr0=+ kbbbb% qrrrr=7X  Xerrrrrrw+- ibbbby ;r ;8rrr@; & 9r@8;rrr-; ybb2 +9rrrrrrrrrrrr0-+ kbbbbbbbbbbbbbbbb",
"bbbbbbbbbbx X9errrrrrrrrrr7  X ,bbbbbbbbd *rrr8-* dbbbbbbbbbb5 ;7rrr--; O 8rrrrrrr*8 .hbb5   *rrrqqrrrrrw= @8=  sbbbbbbbbbbd *rrr8-* dbbbbbbbbbbbbbbbbbbb  rrrr;*- -@      *rrrr0*; ,bbbbb5 ;7rrr--; O 8rrrrrrr*8 .hbbby ;r ;=rrr;*@ XrqX;;rrr-; ybf Xwrrrrrrrrrrrrr0-+ kbbbbbbbbbbbbbbbb",
"bbbbbbbbbbb2 *89wrrrrrrrrrrw+@+ fbbbbbbbd *rrr8-* dbbbbbbbbbbf   -rrr=-=  ;rrrr+   +- ibb% qrrrrrrr7;;;reX;;  Osbbbbbbbbbbbd *rrr8-* dbbbbbbbbbbbbbbbbbbb  rrrr;*- +9rrrrrrrrrr0@7  fbbbbbf   -rrr=-=  ;rrrr+   +- ibbby ;r ; errq ; -r;;@;rrr-; yby ;9+ wrrr     -r0-+ kbbbbbbbbbbbbbbbb",
"bbbbbbbbbbbv$  ;9;e;wrrrrrrrwX; Ozbbbbbbd *rrr8-* dbbbbbbbbbbbf< 9r0re@;+-rrrrr;8re;- ibk +r88rrr8   --rr-@= pzbbbbbbbbbbbbd *rrr8-* dbbbbbbbbbbbbbbbbbbb  rrrr;+-         *rrr8-* sbbbbbbbf< 9r0re@;+-rrrrr;8re;- ibbby ;r ; 8rrr@; 0rX8 ;rrr-; ybi -X;errrr 0rrr090-+ kbbbbbbbbbbbbbbbb",
"bbbbbbbbbbbbvp    =;0;00rrrrr;@= abbbbbbd *rrr8-* dbbbbbbbbbbbh Xew wrw 9rrerrrq*=   .hbb:   ;rrr8-7;  9rw ; ,bbbbbbbbbbbbbd *rrr8-* dbbbbbbbbbbbbbbbbbbb% qrrr8X; y:      *rrr8-* dbbbbbbbh Xew wrw 9rrerrrq*=   .hbbby ;r ; =rrr;@=r0@; ;rrr-; ybh. 8- wrrr ;    +9-+ kbbbbbbbbbbbbbbbb",
"bbbbbbbbbbbz& &y1O    =7qerrre ; ybbbbbbd *rrr8-* dbbbbbbbbbbbt -r7=*qr9er8*rrrr@7 <ihbbbd *;*rrr8-+   =rr-*+ hbbbbbbbbbbbbd *rrr8-* dbbbbbbbbbbbbbbbbbbb5 7rrr0 ; ybbbbbd *rrr8-* dbbbbbbbt -r7=*qr9er8*rrrr@7 <ihbbbby ;r ;  errw qr-7X ;rrr-; ybbp    wrrr ;   : +@X xbbbbbbbbbbbbbbbb",
"bbbbbbbbbbzO @  ,zat>O  +8errr+; ybbbbbbd *rrr8-* dbbbbbbbbbbb& 0r@7 +err9X;0rrr7;X fbbbbv$  *rrr8-+ fo erw - $vbbbbbbbbbbbd *rrr8-* dbbbbbbbbbbbbbbbbbbba =rrre ; 2bbbbbd *rrr8-* dbbbbbbb& 0r@7 +err9X;0rrr7;X fbbbbby ;r ;  8rrr@0eX8  ;rrr-; ybbbp4# wrrr ; ybb,   2gkgbbbbbbbbbbbbbb",
"bbbbbbbbbbu =;++ fbbbza, X7rrr+7 6bbbbbbd *rrr8-* dbbbbbbbbbbp @reX;  -rq 7 -rrre+; ybbbbbvd *rrr8-+ k< 8rr;** dbbbbbbbbbbbd *rrr8-* dbbbbbbbbbbbbbbbbbbbzO wrrr*-X zbbbbd *rrr8-* dbbbbbbp @reX;  -rq 7 -rrre+; ybbbbby ;r ;  =rrr0r8*-  ;rrr-; ybbbbb# wrrr ; ybbbkgf&   &bbbbbbbbbbbbb",
"bbbbbbbbbb: 99X; ybbbbbb2 @rrr+8 4bbbbbbd *rrr8-* dbbbbbbbbbb& 8r9*= . 9@;X  errr=7 &bbbbbbd *rrr8-+ kp =rrr+;  fbbbbbbbbbbd *rrr8-* dbbbbbbbbbbbbbbbbbbbb3 -rrr8X= 2bbbbd *rrr8-* dbbbbbb& 8r9*= . 9@;X  errr=7 &bbbbb6 7r ; o errrr*8X  ;rrr-; ybbbbb# wrrr ; ybbbbf  @+@ sbbbbbbbbbbbb",
"bbbbbbbbbp +rrX8  sbbbbbk +rre*; ybbbbbbd *rrr8-* dbbbbbbbbb5 @rr;;@ u  =@ < 7rrr9=@ fbbbbbd *rrr8-+ kz XrrrqX; Ozbbbbbbbbbd *rrr8-* dbbbbbbbbbbbbbbbbbbbbh. 9rrr*-X fbbbd *rrr8-* dbbbbb5 @rr;;@ u  =@ < 7rrr9=@ fbbbb< 9r+; < 7rrreX8 2 ;rrr-; ybbbbb# wrrr ; ybbbb: ;8 7  fbbbbbbbbbbb",
"bbbbbbbbb: 8rr7+7  fbbbbp @rr;0+ fbbbbbbd *rrr8-* dbbbbbbbbt  qrr;;+ kuO  &s @rrrrX; 2bbbbbd *rrr8-+ kb% qrrr7*= &bbbbbbbbbd *rrr8-* dbbbbbbbbbbbbbbbbbbbbbu Xwrrw+; .fbbd *rrr8-* dbbbbt  qrr;;+ kuO  &s @rrrrX; 2bbbzo er@7 6 *rrr7== y ;rrr-; ybbbbb# wrrr ; ybfy: +reX+; &bbbbbbbbbbb",
"bbbbbbbbu +rrrr=*; $vbzu. 8rw;7 ,bbbbbbh$ *rrr8-* sbbbbbbv3  9rrr0=@ gbzagbt  qrrr;;X 2bbbh& =rrr8-+ fb5 7rrrr=-@ &vbbbbbbh$ *rrr8-* sbbbbbbbbbbbbbbbbbbbbbb2 Xqrrw*-      *rrr8-* dbbv3  9rrr0=@ gbzagbt  qrrr;;X 2bp$ =rr;; Oo err@8 OO ;rrr;;  sbbv5. wrrr ;      +qrr9 ;@ ,bbbbbbbbbb",
"bbbbbbbv$ 9rrrrr=X*      -re7q  sbbbbbh. *errrr-7 .hbbbbv$  0rrrrr;- ,bbbb2  9rrrrr;7X 2bv$ @errrr;; .ha =rrrrr@;@ $fbbbbh. *errrr-7 .hbbbbbbbbbbbbbbbbbbbbbv2  7rrr0;X    *rrrw-; Ozv$  0rrrrr;- ,bbbb2  9rrrrr;7X 2  *errw@= , 7rqX8   =rrrrr-7 .hv$  -rrrr ;    ;7rrrrr; ;+ ,bbbbbbbbb",
"bbbbbbbd *;  X;0r0;    =9rqq0X 5bbbbbbi -rrrrrrr;- &vbbbd *wrrrrrrr;+ sbbx X0rrrrrrr0;X 2d *rrrrrrr;- $h Xrrrrre*-*  fbbbi -rrrrrrr;- &vbbbbbbbbbbbbbbbbbbbbbb5  +;qrrrrrrrrrrrrr0= ,d *wrrrrrrr;+ sbbx X0rrrrrrr0;X  8rrrrrw8+  *r;;*  7rrrrrrr;- &d *qrrrrrrrrrrrrrrrrrrr; ;+ kbbbbbbbb",
"bbbbbbbv$ =wrrr7;e8wrrrrewr;  2bbbbbbbh.         @@ 2bbbv$          *  sbb2           *X 2$         +* &o errrr9= *; ybbbh.         @@ 2bbbbbbbbbbbbbbbbbbbbbbbs:                 @+ ,$          *  sbb2           *X         =     9 $          *@ ,$                       8 ,bbbbbbbbb",
"bbbbbbbbg @    -;;qrrrrr9;   tbbbbbbbbb# wrrrrrrrrwX xbbb% qrrrrrrrrr7 6bbk +rrrrrrrrrrqX 4 8rrrrrrrrr@ < 9rr0@ +;;= abbbb# wrrrrrrrrwX xbbbbbbbbbbbbbbbbbbbbbbbg @9rrrrrrrrrrrrrrre+ % qrrrrrrrrr7 6bbk +rrrrrrrrrrq;rrrrrrrrr7  7r7 6 Xrrrrrrrrrw+ a =rrrrrrrrrrrrrrrrrrrrr; ybbbbbbbbb",
"bbbbbbbbb& #               :fbbbbbbbbbb3            2bbbb5             sbbb:             2p            &6 7e= *7-   Ozbbbb3            2bbbbbbbbbbbbbbbbbbbbbbbbb&                   ,5             sbbb:                             s:            ,zO                        fbbbbbbbbb",
"bbbbbbbbbbgbbbhiy5%     :yfbbbbbbbbbbbbv3#        #3vbbbbb5%         :sbbbbh:          %5bbp:         :hs @X@7*  .yazbbbbbv3#        #3vbbbbbbbbbbbbbbbbbbbbbbbbbbu:               o<zb5%         :sbbbbh:          %:         :ss: :sbh:         #3vbh:                     :fbbbbbbbbbb",
"bbbbbbbbbbbbbbbbbbbbbbbbbbbbbbbbbbbbbbbbbbbbbbbbbbbbbbbbbbbbbbbbbbbbbbbbbbbbbbbbbbbbbbbbbbbbbbbbbbbbbbbbb& *-  $ihbbbbbbbbbbbbbbbbbbbbbbbbbbbbbbbbbbbbbbbbbbbbbbbbbbbbbbbbbbbbbbbbbbbbbbbbbbbbbbbbbbbbbbbbbbbbbbbbbbbbbbbbbbbbbbbbbbbbbbbbbbbbbbbbbbbbbbbbbbbbbbbbbbbbbbbbbbbbbbbbbbbbbbb",
"bbbbbbbbbbbbbbbbbbbbbbbbbbbbbbbbbbbbbbbbbbbbbbbbbbbbbbbbbbbbbbbbbbbbbbbbbbbbbbbbbbbbbbbbbbbbbbbbbbbbbbbbbv$  .svbbbbbbbbbbbbbbbbbbbbbbbbbbbbbbbbbbbbbbbbbbbbbbbbbbbbbbbbbbbbbbbbbbbbbbbbbbbbbbbbbbbbbbbbbbbbbbbbbbbbbbbbbbbbbbbbbbbbbbbbbbbbbbbbbbbbbbbbbbbbbbbbbbbbbbbbbbbbbbbbbbbbbbbbb",
"bbbbbbbbbbbbbbbbbbbbbbbbbbbbbbbbbbbbbbbbbbbbbbbbbbbbbbbbbbbbbbbbbbbbbbbbbbbbbbbbbbbbbbbbbbbbbbbbbbbbbbbbbbvdihbbbbbbbbbbbbbbbbbbbbbbbbbbbbbbbbbbbbbbbbbbbbbbbbbbbbbbbbbbbbbbbbbbbbbbbbbbbbbbbbbbbbbbbbbbbbbbbbbbbbbbbbbbbbbbbbbbbbbbbbbbbbbbbbbbbbbbbbbbbbbbbbbbbbbbbbbbbbbbbbbbbbbbbbbbb",
"bbbbbbbbbbbbbbbbbbbbbbbbbbbbbbbbbbbbbbbbbbbbbbbbbbbbbbbbbbbbbbbbbbbbbbbbbbbbbbbbbbbbbbbbbbbbbbbbbbbbbbbbbbbbbbbbbbbbbbbbbbbbbbbbbbbbbbbbbbbbbbbbbbbbbbbbbbbbbbbbbbbbbbbbbbbbbbbbbbbbbbbbbbbbbbbbbbbbbbbbbbbbbbbbbbbbbbbbbbbbbbbbbbbbbbbbbbbbbbbbbbbbbbbbbbbbbbbbbbbbbbbbbbbbbbbbbbbbbbbbb",
"bbbbbbbbbbbbbbbbbbbbbbbbbbbbbbbbbbbbbbbbbbbbbbbbbbbbbbbbbbbbbbbbbbbbbbbbbbbbbbbbbbbbbbbbbbbbbbbbbbbbbbbbbbbbbbbbbbbbbbbbbbbbbbbbbbbbbbbbbbbbbbbbbbbbbbbbbbbbbbbbbbbbbbbbbbbbbbbbbbbbbbbbbbbbbbbbbbbbbbbbbbbbbbbbbbbbbbbbbbbbbbbbbbbbbbbbbbbbbbbbbbbbbbbbbbbbbbbbbbbbbbbbbbbbbbbbbbbbbbbbb",
"bbbbbbbbbbbbbbbbbbbbbbbbbbbbbbbbbbbbbbbbbbbbbbbbbbbbbbbbbbbbbbbbbbbbbbbbbbbbbbbbbbbbbbbbbbbbbbbbbbbbbbbbbbbbbbbbbbbbbbbbbbbbbbbbbbbbbbbbbbbbbbbbbbbbbbbbbbbbbbbbbbbbbbbbbbbbbbbbbbbbbbbbbbbbbbbbbbbbbbbbbbbbbbbbbbbbbbbbbbbbbbbbbbbbbbbbbbbbbbbbbbbbbbbbbbbbbbbbbbbbbbbbbbbbbbbbbbbbbbbbb",
"bbbbbbbbbbbbbbbbbbbbbbbbbbbbbbbbbbbbbbbbbbbbbbbbbbbbbbbbbbbbbbbbbbbbbbbbbbbbbbbbbbbbbbbbbbbbbbbbbbbbbbbbbbbbbbbbbbbbbbbbbbbbbbbbbbbbbbbbbbbbbbbbbbbbbbbbbbbbbbbbbbbbbbbbbbbbbbbbbbbbbbbbbbbbbbbbbbbbbbbbbbbbbbbbbbbbbbbbbbbbbbbbbbbbbbbbbbbbbbbbbbbbbbbbbbbbbbbbbbbbbbbbbbbbbbbbbbbbbbbbb",
"bbbbbbbbbbbbbbbbbbbbbbbbbbbbbbbbbbbbbbbbbbbbbbbbbbbbbbbbbbbbbbbbbbbbbbbbbbbbbbbbbbbbbbbbbbbbbbbbbbbbbbbbbbbbbbbbbbbbbbbbbbbbbbbbbbbbbbbbbbbbbbbbbbbbbbbbbbbbbbbbbbbbbbbbbbbbbbbbbbbbbbbbbbbbbbbbbbbbbbbbbbbbbbbbbbbbbbbbbbbbbbbbbbbbbbbbbbbbbbbbbbbbbbbbbbbbbbbbbbbbbbbbbbbbbbbbbbbbbbbbb",
"bbbbbbbbbbbbbbbbbbbbbbbbbbbbbbbbbbbbbbbbbbbbbbbbbbbbbbbbbbbbbbbbbbbbbbbbbbbbbbbbbbbbbbbbbbbbbbbbbbbbbbbbbbbbbbbbbbbbbbbbbbbbbbbbbbbbbbbbbbbbbbbbbbbbbbbbbbbbbbbbbbbbbbbbbbbbbbbbbbbbbbbbbbbbbbbbbbbbbbbbbbbbbbbbbbbbbbbbbbbbbbbbbbbbbbbbbbbbbbbbbbbbbbbbbbbbbbbbbbbbbbbbbbbbbbbbbbbbbbbbb",
"bbbbbbbbbbbbbbbbbbbbbbbbbbbbbbbbbbbbbbbbbbbbbbbbbbbbbbbbbbbbbbbbbbbbbbbbbbbbbbbbbbbbbbbbbbbbbbbbbbbbbbbbbbbbbbbbbbbbbbbbbbbbbbbbbbbbbbbbbbbbbbbbbbbbbbbbbbbbbbbbbbbbbbbbbbbbbbbbbbbbbbbbbbbbbbbbbbbbbbbbbbbbbbbbbbbbbbbbbbbbbbbbbbbbbbbbbbbbbbbbbbbbbbbbbbbbbbbbbbbbbbbbbbbbbbbbbbbbbbbbb",
"bbbbbbbbbbbbbbbbbbbbbbbbbbbbbbbbbbbbbbbbbbbbbbbbbbbbbbbbbbbbbbbbbbbbbbbbbbbbbbbbbbbbbbbbbbbbbbbbbbbbbbbbbbbbbbbbbbbbbbbbbbbbbbbbbbbbbbbbbbbbbbbbbbbbbbbbbbbbbbbbbbbbbbbbbbbbbbbbbbbbbbbbbbbbbbbbbbbbbbbbbbbbbbbbbbbbbbbbbbbbbbbbbbbbbbbbbbbbbbbbbbbbbbbbbbbbbbbbbbbbbbbbbbbbbbbbbbbbbbbbb",
"bbbbbbbbbbbbbbbbbbbbbbbbbbbbbbbbbbbbbbbbbbbbbbbbbbbbbbbbbbbbbbbbbbbbbbbbbbbbbbbbbbbbbbbbbbbbbbbbbbbbbbbbbbbbbbbbbbbbbbbbbbbbbbbbbbbbbbbbbbbbbbbbbbbbbbbbbbbbbbbbbbbbbbbbbbbbbbbbbbbbbbbbbbbbbbbbbbbbbbbbbbbbbbbbbbbbbbbbbbbbbbbbbbbbbbbbbbbbbbbbbbbbbbbbbbbbbbbbbbbbbbbbbbbbbbbbbbbbbbbbb",
"bbbbbbbbbbbbbbbbbbbbbbbbbbbbbbbbbbbbbbbbbbbbbbbbbbbbbbbbbbbbbbbbbbbbbbbbbbbbbbbbbbbbbbbbbbbbbbbbbbbbbbbbbbbbbbbbbbbbbbbbbbbbbbbbbbbbbbbbbbbbbbbbbbbbbbbbbbbbbbbbbbbbbbbbbbbbbbbbbbbbbbbbbbbbbbbbbbbbbbbbbbbbbbbbbbbbbbbbbbbbbbbbbbbbbbbbbbbbbbbbbbbbbbbbbbbbbbbbbbbbbbbbbbbbbbbbbbbbbbbbb"
};
