/* XPM */
static xpm_row_t tower_orange_down[] = {
/* columns rows colors chars-per-pixel */
"50 50 12 1 ",
"  c #000000",
". c #444444",
"X c #44575F",
"o c #58666D",
"O c #AD4D0C",
"+ c #C06C09",
"@ c #F47622",
"# c #D98D5A",
"$ c #778899",
"% c #2285F4",
"& c #BFCED9",
"* c #ffffff",
/* pixels */
"**************************************************",
"**************************************************",
"**************************************************",
"**************************************************",
"**************************************************",
"**************************************************",
"**************************************************",
"**************......................**************",
"*************.                      .*************",
"************. .OOOOOOOOOOOOOOOOOOOO. .************",
"***********. .######################. .***********",
"**********. .#OO+OOOOOOOOOOOOO+OO+OO#. .**********",
"*********. .#O+O++O+O+O+++O+OOOOOOO+O#. .*********",
"********* .#OO+OO+OOO++O+OO++OOO+OO++O#. *********",
"********* .###OOO+O+OOOO+OO+OOO+O++OO##. *********",
"********* .++##OO++@##@@@@@@##+++OO##++. *********",
"********* .+O+++++@@#########@O++@++OO+. *********",
"********* .++@++@@@##.      .@@O++O+++O. *********",
"********* .O++@+@@##  OO+O+O  @OO+OO+O+. *********",
"********* .++O++### O@@@@@@@@O @@#+++@+. *********",
"********* .+@++O##. @+.+@@@@@@ .@#+++++. *********",
"********* .+O+++#@ .@.%%+@@@@@. @#OO@++. *********",
"********* .++@O+#@ .#+%.@@@@@@. @#+O+O+. *********",
"********* .+++@+#@. ##+@@@@@#@ .@#+O+++. *********",
"********* .+@+O+#@@. #######@ .@@#+O@+@. *********",
"********* .+++@+#@@@.        .@@@#+++++. *********",
"********* .@+@+O#@@@@@OOOOOO@@++@#++O++. *********",
"********* .@O+++@@+@@###@@@@@@+@@#+@+++. *********",
"********* .@+O+++++@.        .+@@@++@@+. *********",
"********* .@OOOO#@@@@@@@@@@@@@@+@@OOO++. *********",
"********* .OOO+++@@@.        .@@@@@@OOO. *********",
"********* .@###@@@@@@@++++@@@@OO@@@##@@. *********",
"********* .##@@@@O@@##########@@@O@@@##. *********",
"*********. O@@@@#@##############@@@@@@O .*********",
"**********  O@@###################@+@O  **********",
"***********  @@##OO            O@#@@@  ***********",
"***********. O###  X..XXXXXX..X  ##@O .***********",
"************  ##O oooo$&&&&$oooo O#O  ************",
"************* .O .oXX........Xo$. O. *************",
"**************   ..            ..   **************",
"****************.   ..Xo$&XX..   .****************",
"*****************. Xooo$&$$$$oX .*****************",
"*****************. .XoX$$$oooX. .*****************",
"*****************. .XXXo$$$ooX. .*****************",
"*****************. .XoXo$$$ooX. .*****************",
"*****************. .Xoo$&$oo$X. .*****************",
"*****************. oo$$&&&&$$oo .*****************",
"*****************. .Xoo$$$$ooX. .*****************",
"******************              ******************",
"**************************************************"
};
