/* XPM */
static xpm_row_t tower_orange_up_left[] = {
/* columns rows colors chars-per-pixel */
"50 50 225 2 ",
"   c #040504",
".  c #0B0300",
"X  c #0A0A0B",
"o  c #0C0805",
"O  c #1B0800",
"+  c #120903",
"@  c #11100F",
"#  c #090D13",
"$  c #0E1113",
"%  c #131313",
"&  c #1C1815",
"*  c #1A1A1C",
"=  c #210900",
"-  c #2A0F00",
";  c #231106",
":  c #391703",
">  c #221E1E",
",  c #171F23",
"<  c #001222",
"1  c #1E252A",
"2  c #1E303A",
"3  c #2A2726",
"4  c #392D25",
"5  c #363637",
"6  c #2B3238",
"7  c #49210A",
"8  c #5B2C0E",
"9  c #452B11",
"0  c #712F02",
"q  c #643B1E",
"w  c #77370D",
"e  c #523B2C",
"r  c #443D37",
"t  c #4E3C30",
"y  c #4B4234",
"u  c #46423C",
"i  c #49423B",
"p  c #5A483D",
"a  c #68472D",
"s  c #794B2D",
"d  c #744629",
"f  c #7A4E31",
"g  c #7C5439",
"h  c #6A4B37",
"j  c #2D3F47",
"k  c #3C4448",
"l  c #384950",
"z  c #2E434D",
"x  c #444343",
"c  c #45494B",
"v  c #494B4C",
"b  c #444648",
"n  c #524A47",
"m  c #484F53",
"M  c #42555C",
"N  c #4B595F",
"B  c #495458",
"V  c #58514A",
"C  c #6C5849",
"Z  c #6A5C52",
"A  c #765844",
"S  c #726357",
"D  c #4B5D65",
"F  c #465A63",
"G  c #535E63",
"H  c #54646B",
"J  c #59666C",
"K  c #536066",
"L  c #5C6C74",
"P  c #576A76",
"I  c #5F727C",
"U  c #62717C",
"Y  c #626B75",
"T  c #883C0A",
"R  c #823F12",
"E  c #9F4508",
"W  c #884014",
"Q  c #954917",
"!  c #A34506",
"~  c #AC4B07",
"^  c #A8460A",
"/  c #AB4C0A",
"(  c #A74808",
")  c #AE530B",
"_  c #AA5801",
"`  c #B35702",
"'  c #B45C05",
"]  c #B1520B",
"[  c #B55B0A",
"{  c #B95E0A",
"}  c #BC5509",
"|  c #B75616",
" . c #AF4F0E",
".. c #9C6218",
"X. c #AF6105",
"o. c #BC6505",
"O. c #BD6B05",
"+. c #BC6509",
"@. c #BD6A09",
"#. c #B76607",
"$. c #A3661B",
"%. c #BA6816",
"&. c #9A5B27",
"*. c #86593A",
"=. c #935830",
"-. c #A05A29",
";. c #9C6625",
":. c #9D623B",
">. c #A46A24",
",. c #A66927",
"<. c #BD6528",
"1. c #A56337",
"2. c #B66B3B",
"3. c #C55A13",
"4. c #CD5D13",
"5. c #C05E05",
"6. c #C16D05",
"7. c #CB6D00",
"8. c #C36D0A",
"9. c #CC6E0E",
"0. c #C76509",
"q. c #D86C0A",
"w. c #C87006",
"e. c #D77208",
"r. c #C96217",
"t. c #D4661C",
"y. c #DA6617",
"u. c #C67318",
"i. c #D57112",
"p. c #DC7415",
"a. c #D6751C",
"s. c #E4680F",
"d. c #E77305",
"f. c #E36C1E",
"g. c #E46A14",
"h. c #EC741C",
"j. c #E57616",
"k. c #F5751D",
"l. c #FC751B",
"z. c #FE7A1E",
"x. c #F67414",
"c. c #C66626",
"v. c #D26E2F",
"b. c #C57326",
"n. c #DC762D",
"m. c #C66F34",
"M. c #C7763A",
"N. c #D5793C",
"B. c #D06E33",
"V. c #EB7422",
"C. c #EC7825",
"Z. c #E67628",
"A. c #F47622",
"S. c #FA7723",
"D. c #F57823",
"F. c #FC7B23",
"G. c #F27A2A",
"H. c #FD7E2A",
"J. c #EB7D34",
"K. c #F97D32",
"L. c #E06F22",
"P. c #805A41",
"I. c #996847",
"U. c #896E4E",
"Y. c #B37D58",
"T. c #A97453",
"R. c #CD7B45",
"E. c #CD7E4B",
"W. c #C87742",
"Q. c #D67D43",
"!. c #DD883B",
"~. c #D48338",
"^. c #DB8022",
"/. c #FF8323",
"(. c #FF8B2B",
"). c #FD8534",
"_. c #FD883B",
"`. c #F8863B",
"'. c #E98534",
"]. c #B6815D",
"[. c #B68666",
"{. c #CD8548",
"}. c #DA854C",
"|. c #DD8A4D",
" X c #D38545",
".X c #C6875D",
"XX c #DD8A51",
"oX c #D48B5A",
"OX c #D98D59",
"+X c #D38855",
"@X c #DB915F",
"#X c #E0874A",
"$X c #E78746",
"%X c #F88C45",
"&X c #FC954A",
"*X c #EA8C52",
"=X c #E58D58",
"-X c #E89359",
";X c #F19759",
":X c #F49052",
">X c #D88F61",
",X c #D69060",
"<X c #DC9263",
"1X c #EB9C67",
"2X c #F19C64",
"3X c #FAA86E",
"4X c #5B7494",
"5X c #6C7D8C",
"6X c #657885",
"7X c #0C6BCB",
"8X c #748493",
"9X c #798A9B",
"0X c #6F8191",
"qX c #7B8CA0",
"wX c #2286F6",
"eX c #82929D",
"rX c #8E9FB0",
"tX c #8696A7",
"yX c #97A9B8",
"uX c #97ABBA",
"iX c #A4B4C3",
"pX c #B1BDC6",
"aX c #AFC0CE",
"sX c #B8C6D2",
"dX c #FFFFFF",
/* pixels */
"dXdXdXdXdXdXdXdXdXdXdXdXdXdXdXdXdXdXdXdXdXdXdXdXdXdXdXdXdXdXdXdXdXdXdXdXdXdXdXdXdXdXdXdXdXdXdXdXdXdX",
"dXdXdXdXdXdXdXdXdXdXdXdXdXdXdXdXdXdXdXdXdXdXdXdXdXdXdXdXdXdXdXdXdXdXdXdXdXdXdXdXdXdXdXdXdXdXdXdXdXdX",
"dXdXdXdXdXdXdXdXdXdXdXdXdXdXdXdXdXdXdXdXdXdXdXdXdXdXdXdXdXdXdXdXdXdXdXdXdXdXdXdXdXdXdXdXdXdXdXdXdXdX",
"dXdXdXdXdXdXdXdXdXdXdXdXdXdXdXdXdXdXdXdXdXdXdXdXdXdXdXdXdXdXdXdXdXdXdXdXdXdXdXdXdXdXdXdXdXdXdXdXdXdX",
"dXdXdXdXdXdXdXdXdXdXdXdXdXdXdXdXdXdXdXdXdXdXdXdXdXdXdXdXdXdXdXdXdXdXdXdXdXdXdXdXdXdXdXdXdXdXdXdXdXdX",
"dXdXdXdXdXdXdXdXdXdXdXdX* > dXdXdXdXdXdXdXdXdXdXdXdXdXdXdXdXdXdXdXdXdXdXdXdXdXdXdXdXdXdXdXdXdXdXdXdX",
"dXdXdXdXdXdXdXdXdXdXdXX > * > dXdXdXdXdXdXdXdXdXdXdXdXdXdXdXdXdXdXdXdXdXdXdXdXdXdXdXdXdXdXdXdXdXdXdX",
"dXdXdXdXdXdXdXdXdXdXX l m * X > dXdXdXdXdXdXdXdXdXdXdXdXdXdXdXdXdXdXdXdXdXdXdXdXdXdXdXdXdXdXdXdXdXdX",
"dXdXdXdXdXdXdXdXdXX B 5XI v > % > dXdXdXdX> * 3 * > dXdXdXdXdXdXdXdXdXdXdXdXdXdXdXdXdXdXdXdXdXdXdXdX",
"dXdXdXdXdXdXdXdXX I eX8XG D b %   > dX5 >     o     > > > > dXdXdXdXdXdXdXdXdXdXdXdXdXdXdXdXdXdXdXdX",
"dXdXdXdXdXdXdX$ U aXiXP D D F k 1   @     | .Xa T           > dXdXdXdXdXdXdXdXdXdXdXdXdXdXdXdXdXdXdX",
"dXdXdXdXdXdXX 6XsXsXiXH F F G J D   * x   4.3X1Xx. .| g.:.e   > dXdXdXdXdXdXdXdXdXdXdXdXdXdXdXdXdXdX",
"dXdXdXdXdXX B yXpXtXtX6XG F J J b   b H   8 -X@X`./.A.'.3Xc.5 X 3 dXdXdXdXdXdXdXdXdXdXdXdXdXdXdXdXdX",
"dXdXdXdX  M 8XtXH qXqX9X5X5XJ m @ % M L ,   m.,X#XA.S.=X+X} <.x   * dXdXdXdXdXdXdXdXdXdXdXdXdXdXdXdX",
"dXdXdX  x U 5X8XD 5X9X9XrXyXG $   m H J   E R.}.XXD.D.oX| / l.v.p   > dXdXdXdXdXdXdXdXdXdXdXdXdXdXdX",
"dXdXdX  , G M P J J J 9XyXyX,   v U J 5   N.<XA.c.D.C.u.^ / +.4.m.x   > dXdXdXdXdXdXdXdXdXdXdXdXdXdX",
"dXdXdX>   & x D H H 5X0X8X6 . v pXU 5 X f <X<Xz.4.A.8.%.) { @.4.x...y   > dXdXdXdXdXdXdXdXdXdXdXdXdX",
"dXdXdXdX>   > v N U 8XD 3   v pXuXl   s 2XOX}.z.D.S.a.<.@.#.O.V.w.j...x   > dXdXdXdXdXdXdXdXdXdXdXdX",
"dXdXdXdXdX*   % l N V $   b sXuXj   s 1XOX<X).Z.z.S.C.8.j.%.#.D.X.k.6.>.y   > dXdXdXdXdXdXdXdXdXdXdX",
"dXdXdXdXdXdX>   1 X o $ x 6XuXj   s 2XOX<X!.f.5 /.C.O.9.H.W.@.q.{ 8.j.7.$.u   > dXdXdXdXdXdXdXdXdXdX",
"dXdXdXdXdXdXdX5   3 1 M K L z   d 2X,X<X!.X.o 1.| v.i.h.A.}.N.#.g.) p.) j.;.r   > dXdXdXdXdXdXdXdXdX",
"dXdXdXdXdXdXdXdX1 c 5XI P 4   s 1XOX,X!.X.  W 4.% J.F.A.z.(.=X{.a.` 8.#.y.e.Q y   * dXdXdXdXdXdXdXdX",
"dXdXdXdXdXdXdX3 3 m z 2 m   s 2XOX,X%X_   W t.  U.H.h.m.=.y.Z.&X~.O.` 6.[ O.{ ;.x   > dXdXdXdXdXdXdX",
"dXdXdXdXdXdX>   : T 3     f 1XOXOX%Xy.o W t.  *.*Xt.; d v @ 7 c.:X X%.8.L.p.6.{ $.n   > dXdXdXdXdXdX",
"dXdXdXdXdXdX  h T.<.s y.1.2XOX*X$Xy.+ W t.  Q $X! O y q ,Xn # - E.,XN.@.i.h.O.a.a.Y.V   > dXdXdXdXdX",
"dXdXdXdXdXdXX 9 `.-XN.&X:X*XJ.c.A.3 w t.  Q z.^ . t ;Xb.j.Y.C   I.OXC.j.#.@.|.M.OXm.S   > dXdXdXdXdX",
"dXdXdXdXdXdX  = g.G.Z.XXA.Z.k.! S.s G.  Q l.( . e ;XV.4XU.&.n.: *.OXl.k.@._ E.m.| c.Z   > dXdXdXdXdX",
"dXdXdXdXdXdX  O | k.s.A.y.g.h.f.i.F.V Q /.! . e ;XG.f.7XwXa /.0 *.OXk.9.@.( ^ %.' c.Z   > dXdXdXdXdX",
"dXdXdXdXdXdX>   T D.A.S.n.k.S.H.8.j.../.F.= q ;XG.k.n.6XU.;.D.+ I.OXl.8.{ [ ^ ' @.c.Z   > dXdXdXdXdX",
"dXdXdXdXdXdXdX  0 D.'.'.#XH.t.S.k.x.7.9.:.  &XG.k.k.h.N.d.l.4.  ].oX%X8.] +.{ ] / XXZ   > dXdXdXdXdX",
"dXdXdXdXdXdXdX  0 ;X).+X4.3.] j.*XK.9.h.A . &XS.A.A.k.z.A.q.: 4 OX<XB.8./ { 6.' R.#Xp   > dXdXdXdXdX",
"dXdXdXdXdXdXdX  4 Y.x.| } | #.q. X*XV.l.P.. N.F.A.A.H.k.3.: & +XK.W./ ] / ) ~  X}.] +   > dXdXdXdXdX",
"dXdXdXdXdXdXdX>   u &.} 0.S.8.0.O.~.$XD.A   a Z.(.z.t.e.- > +X_.s.~ 6.[ ] ~ R.}.^ =   > dXdXdXdXdXdX",
"dXdXdXdXdXdXdXdX> % r $.d.e.9.{ #.%.{.:XN.: < ; Q t.- 9 & oX_.s.] ^ 8.+.~ R.}./ =   > dXdXdXdXdXdXdX",
"dXdXdXdXdXdXdXdXdX>   x ,.@.+.@.p.~ @.~.%Xf.a 8 O 7 w 6 +X).y.) +.{ ] ~ R.}./ =   > dXdXdXdXdXdXdXdX",
"dXdXdXdXdXdXdXdXdXdX>   y $.7.e.k.[ _ %.R.:XQ.F.| W V.$X1Xs.] ^ +.O.~ R.}./ O   > dXdXdXdXdXdXdXdXdX",
"dXdXdXdXdXdXdXdXdXdXdX> X i ,.i.8.[ 3.^ @. X$X} 0.h.| $XM.[ @.[ [ ~ R.}./ =   > dXdXdXdXdXdXdXdXdXdX",
"dXdXdXdXdXdXdXdXdXdXdXdX*   n >.7.o.A.X.o.0.%.[ 0.8.+.b./ [ +.o.~ R.}./ =   > dXdXdXdXdXdXdXdXdXdXdX",
"dXdXdXdXdXdXdXdXdXdXdXdXdX> % t $.w.i.p.@./ ` O.V.+.+.[ / ] ^ ~ R.}./ =   > dXdXdXdXdXdXdXdXdXdXdXdX",
"dXdXdXdXdXdXdXdXdXdXdXdXdXdX*   x ;.O.h.+.{ [ O.} @./ { / / ~ R.}.( O   > dXdXdXdXdXdXdXdXdXdXdXdXdX",
"dXdXdXdXdXdXdXdXdXdXdXdXdXdXdX*   t ..e.0.o.[ +X! 8.] ] / [  X}./ =   > dXdXdXdXdXdXdXdXdXdXdXdXdXdX",
"dXdXdXdXdXdXdXdXdXdXdXdXdXdXdXdX>   x &.+./ u.E.[ [  .~ ~ R.}./ O   > dXdXdXdXdXdXdXdXdXdXdXdXdXdXdX",
"dXdXdXdXdXdXdXdXdXdXdXdXdXdXdXdXdX>   r $.7.|./ O.` ~ ' R.}./ O   > dXdXdXdXdXdXdXdXdXdXdXdXdXdXdXdX",
"dXdXdXdXdXdXdXdXdXdXdXdXdXdXdXdXdXdX>   y >.1X} ^.u.~ $X}./ =   > dXdXdXdXdXdXdXdXdXdXdXdXdXdXdXdXdX",
"dXdXdXdXdXdXdXdXdXdXdXdXdXdXdXdXdXdXdX>   b ].d T..X*.T.( =   > dXdXdXdXdXdXdXdXdXdXdXdXdXdXdXdXdXdX",
"dXdXdXdXdXdXdXdXdXdXdXdXdXdXdXdXdXdXdXdX>       . .         > dXdXdXdXdXdXdXdXdXdXdXdXdXdXdXdXdXdXdX",
"dXdXdXdXdXdXdXdXdXdXdXdXdXdXdXdXdXdXdXdXdX> > > > > > > > > dXdXdXdXdXdXdXdXdXdXdXdXdXdXdXdXdXdXdXdX",
"dXdXdXdXdXdXdXdXdXdXdXdXdXdXdXdXdXdXdXdXdXdXdXdXdXdXdXdXdXdXdXdXdXdXdXdXdXdXdXdXdXdXdXdXdXdXdXdXdXdX",
"dXdXdXdXdXdXdXdXdXdXdXdXdXdXdXdXdXdXdXdXdXdXdXdXdXdXdXdXdXdXdXdXdXdXdXdXdXdXdXdXdXdXdXdXdXdXdXdXdXdX",
"dXdXdXdXdXdXdXdXdXdXdXdXdXdXdXdXdXdXdXdXdXdXdXdXdXdXdXdXdXdXdXdXdXdXdXdXdXdXdXdXdXdXdXdXdXdXdXdXdXdX"
};
