/* XPM */
static xpm_row_t tower_orange_down_right[] = {
/* columns rows colors chars-per-pixel */
"50 50 225 2 ",
"   c #040504",
".  c #0B0300",
"X  c #0A0A0B",
"o  c #0C0805",
"O  c #1B0800",
"+  c #120903",
"@  c #11100F",
"#  c #090D13",
"$  c #0E1113",
"%  c #131313",
"&  c #1C1815",
"*  c #1A1A1C",
"=  c #210900",
"-  c #2A0F00",
";  c #231106",
":  c #391703",
">  c #221E1E",
",  c #171F23",
"<  c #001222",
"1  c #1E252A",
"2  c #1E303A",
"3  c #2A2726",
"4  c #392D25",
"5  c #363637",
"6  c #2B3238",
"7  c #49210A",
"8  c #5B2C0E",
"9  c #452B11",
"0  c #712F02",
"q  c #643B1E",
"w  c #77370D",
"e  c #523B2C",
"r  c #443D37",
"t  c #4E3C30",
"y  c #4B4234",
"u  c #46423C",
"i  c #49423B",
"p  c #5A483D",
"a  c #68472D",
"s  c #794B2D",
"d  c #744629",
"f  c #7A4E31",
"g  c #7C5439",
"h  c #6A4B37",
"j  c #2D3F47",
"k  c #3C4448",
"l  c #384950",
"z  c #2E434D",
"x  c #444343",
"c  c #45494B",
"v  c #494B4C",
"b  c #444648",
"n  c #524A47",
"m  c #484F53",
"M  c #42555C",
"N  c #4B595F",
"B  c #495458",
"V  c #58514A",
"C  c #6C5849",
"Z  c #6A5C52",
"A  c #765844",
"S  c #726357",
"D  c #4B5D65",
"F  c #465A63",
"G  c #535E63",
"H  c #54646B",
"J  c #59666C",
"K  c #536066",
"L  c #5C6C74",
"P  c #576A76",
"I  c #5F727C",
"U  c #62717C",
"Y  c #626B75",
"T  c #883C0A",
"R  c #823F12",
"E  c #9F4508",
"W  c #884014",
"Q  c #954917",
"!  c #A34506",
"~  c #AC4B07",
"^  c #A8460A",
"/  c #AB4C0A",
"(  c #A74808",
")  c #AE530B",
"_  c #AA5801",
"`  c #B35702",
"'  c #B45C05",
"]  c #B1520B",
"[  c #B55B0A",
"{  c #B95E0A",
"}  c #BC5509",
"|  c #B75616",
" . c #AF4F0E",
".. c #9C6218",
"X. c #AF6105",
"o. c #BC6505",
"O. c #BD6B05",
"+. c #BC6509",
"@. c #BD6A09",
"#. c #B76607",
"$. c #A3661B",
"%. c #BA6816",
"&. c #9A5B27",
"*. c #86593A",
"=. c #935830",
"-. c #A05A29",
";. c #9C6625",
":. c #9D623B",
">. c #A46A24",
",. c #A66927",
"<. c #BD6528",
"1. c #A56337",
"2. c #B66B3B",
"3. c #C55A13",
"4. c #CD5D13",
"5. c #C05E05",
"6. c #C16D05",
"7. c #CB6D00",
"8. c #C36D0A",
"9. c #CC6E0E",
"0. c #C76509",
"q. c #D86C0A",
"w. c #C87006",
"e. c #D77208",
"r. c #C96217",
"t. c #D4661C",
"y. c #DA6617",
"u. c #C67318",
"i. c #D57112",
"p. c #DC7415",
"a. c #D6751C",
"s. c #E4680F",
"d. c #E77305",
"f. c #E36C1E",
"g. c #E46A14",
"h. c #EC741C",
"j. c #E57616",
"k. c #F5751D",
"l. c #FC751B",
"z. c #FE7A1E",
"x. c #F67414",
"c. c #C66626",
"v. c #D26E2F",
"b. c #C57326",
"n. c #DC762D",
"m. c #C66F34",
"M. c #C7763A",
"N. c #D5793C",
"B. c #D06E33",
"V. c #EB7422",
"C. c #EC7825",
"Z. c #E67628",
"A. c #F47622",
"S. c #FA7723",
"D. c #F57823",
"F. c #FC7B23",
"G. c #F27A2A",
"H. c #FD7E2A",
"J. c #EB7D34",
"K. c #F97D32",
"L. c #E06F22",
"P. c #805A41",
"I. c #996847",
"U. c #896E4E",
"Y. c #B37D58",
"T. c #A97453",
"R. c #CD7B45",
"E. c #CD7E4B",
"W. c #C87742",
"Q. c #D67D43",
"!. c #DD883B",
"~. c #D48338",
"^. c #DB8022",
"/. c #FF8323",
"(. c #FF8B2B",
"). c #FD8534",
"_. c #FD883B",
"`. c #F8863B",
"'. c #E98534",
"]. c #B6815D",
"[. c #B68666",
"{. c #CD8548",
"}. c #DA854C",
"|. c #DD8A4D",
" X c #D38545",
".X c #C6875D",
"XX c #DD8A51",
"oX c #D48B5A",
"OX c #D98D59",
"+X c #D38855",
"@X c #DB915F",
"#X c #E0874A",
"$X c #E78746",
"%X c #F88C45",
"&X c #FC954A",
"*X c #EA8C52",
"=X c #E58D58",
"-X c #E89359",
";X c #F19759",
":X c #F49052",
">X c #D88F61",
",X c #D69060",
"<X c #DC9263",
"1X c #EB9C67",
"2X c #F19C64",
"3X c #FAA86E",
"4X c #5B7494",
"5X c #6C7D8C",
"6X c #657885",
"7X c #0C6BCB",
"8X c #748493",
"9X c #798A9B",
"0X c #6F8191",
"qX c #7B8CA0",
"wX c #2286F6",
"eX c #82929D",
"rX c #8E9FB0",
"tX c #8696A7",
"yX c #97A9B8",
"uX c #97ABBA",
"iX c #A4B4C3",
"pX c #B1BDC6",
"aX c #AFC0CE",
"sX c #B8C6D2",
"dX c #FFFFFF",
/* pixels */
"dXdXdXdXdXdXdXdXdXdXdXdXdXdXdXdXdXdXdXdXdXdXdXdXdXdXdXdXdXdXdXdXdXdXdXdXdXdXdXdXdXdXdXdXdXdXdXdXdXdX",
"dXdXdXdXdXdXdXdXdXdXdXdXdXdXdXdXdXdXdXdXdXdXdXdXdXdXdXdXdXdXdXdXdXdXdXdXdXdXdXdXdXdXdXdXdXdXdXdXdXdX",
"dXdXdXdXdXdXdXdXdXdXdXdXdXdXdXdXdXdXdXdXdXdXdXdXdXdXdXdXdXdXdXdXdXdXdXdXdXdXdXdXdXdXdXdXdXdXdXdXdXdX",
"dXdXdXdXdXdXdXdXdXdXdXdXdXdXdXdXdXdXdXdX> > > > > > > > > dXdXdXdXdXdXdXdXdXdXdXdXdXdXdXdXdXdXdXdXdX",
"dXdXdXdXdXdXdXdXdXdXdXdXdXdXdXdXdXdXdX>     .             > dXdXdXdXdXdXdXdXdXdXdXdXdXdXdXdXdXdXdXdX",
"dXdXdXdXdXdXdXdXdXdXdXdXdXdXdXdXdXdX>   = / T.f .X2.d [.b   > dXdXdXdXdXdXdXdXdXdXdXdXdXdXdXdXdXdXdX",
"dXdXdXdXdXdXdXdXdXdXdXdXdXdXdXdXdX>   O / }.$X~ u.'.} 1X>.i   > dXdXdXdXdXdXdXdXdXdXdXdXdXdXdXdXdXdX",
"dXdXdXdXdXdXdXdXdXdXdXdXdXdXdXdX>   = / }.R.#.~ ` O. .#X7.$.r   > dXdXdXdXdXdXdXdXdXdXdXdXdXdXdXdXdX",
"dXdXdXdXdXdXdXdXdXdXdXdXdXdXdX>   = ^ }. X~ / / ` [ {.b.^ +.&.u   > dXdXdXdXdXdXdXdXdXdXdXdXdXdXdXdX",
"dXdXdXdXdXdXdXdXdXdXdXdXdXdX>   = ^ }. X` / | ] 8.! }.[ +.0.e...y   > dXdXdXdXdXdXdXdXdXdXdXdXdXdXdX",
"dXdXdXdXdXdXdXdXdXdXdXdXdX>   O / }.R.~ / / { / @.} O.[ [ @.h.O.;.b   > dXdXdXdXdXdXdXdXdXdXdXdXdXdX",
"dXdXdXdXdXdXdXdXdXdXdXdX>   = / }.R.~ ^ ] / [ +.+.h.O.' / @.i.e.7.$.t @ * dXdXdXdXdXdXdXdXdXdXdXdXdX",
"dXdXdXdXdXdXdXdXdXdXdX>   = / }.R.~ #.{ [ / b.+.8.0.[ r.@.O.X.k.5.7.,.n   > dXdXdXdXdXdXdXdXdXdXdXdX",
"dXdXdXdXdXdXdXdXdXdX>   = / }.R./ { { @.[ W.$X] h.0.| '. X%.! 3.[ 8.i.,.u   > dXdXdXdXdXdXdXdXdXdXdX",
"dXdXdXdXdXdXdXdXdX>   O / }.R.~ o.+.^ ) s.1X#XZ.W | H.Q.*XR.%._ [ A.e.7.$.r   > dXdXdXdXdXdXdXdXdXdX",
"dXdXdXdXdXdXdXdX>   = / }.R.~ ] { +.) y.).oX3 w 7 O 8 a f.%X~.@._ p.@.@.O.,.x   > dXdXdXdXdXdXdXdXdX",
"dXdXdXdXdXdXdX3   = ^ }.R.~ #.8./ ] g._.+X& 9 ; t.Q ; < : N.:X{.%.#.{ 9.p.d.$.t X > dXdXdXdXdXdXdXdX",
"dXdXdXdXdXdX*   = ^ }.R.~ ] { @.~ s._.+X& : e.p.F.(.L.a   A S.$X~.o.0.8.D.0.' -.i   > dXdXdXdXdXdXdX",
"dXdXdXdXdX>   +  .}. X~ ~ / ] / M.K.oX& : 3.k.H.D.D.S.Q.+ A l.V.*X{.q.O. .} | k.].4   dXdXdXdXdXdXdX",
"dXdXdXdXdX> o p #XR.' 8.+./ +.B.<XoX4 : q.A.l.k.D.A.l.&X. A k.9.K.*Xj.] 3.c.+X).:X0   dXdXdXdXdXdXdX",
"dXdXdXdXdX>   Z |.~ [ { +.] 8.`.OX].  y.k.d.R.h.A.l.G.&X  :.9.7.x.k.F.t.F.Q.$X'.S.0   dXdXdXdXdXdXdX",
"dXdXdXdXdX>   Z c.o.' ^ [ { 8.l.OXI.+ D.,.U.5XL.k.G.;Xq = F.F.;.j.0.F.S.S.n.l.k.k.W   > dXdXdXdXdXdX",
"dXdXdXdXdX>   Z c.[ %.^ ! @.8.k.OX*.0 /.a wX7Xy.G.;Xe   E /.Q V F.i.f.V.g.g.D.s.k.| O   dXdXdXdXdXdX",
"dXdXdXdXdX>   Z c.| m.R.~ 8.D.l.OX*.: Z.&.U.4XV.;Xe . ( z.Q   C.d S.! k.L.S.|.C.G.s.-   dXdXdXdXdXdX",
"dXdXdXdXdX>   S m.OXM.|.@.#.j.A.OXU.  C ].j.b.;Xt . ( l.Q   t.w 3 k.c.'.#X;X:X X-X).7   dXdXdXdXdXdX",
"dXdXdXdXdX>   n Y.a.a.O.j.e.O.~.>XE.- # n ,Xq t O E $XQ . t.R + f.}.=XOX2X1.y.*.<.T.h   dXdXdXdXdXdX",
"dXdXdXdXdXdX> o n $.{ O.a.h.@.%.Q.:Xc.7 @ v d ; t.$XP.  t.W . f.%XoXOX2Xs     3 w :   > dXdXdXdXdXdX",
"dXdXdXdXdXdXdX>   x ;.+.O.] @.' @.~.&XZ.y.=.m.V.H.U.. t.W o _ %X,XOX2Xd   v 2 z n 3 1 dXdXdXdXdXdXdX",
"dXdXdXdXdXdXdXdX>   y Q e.y.+.6.] a.{.=X(.z.A.F.J.% 4.R   X.!.,XOX2Xs   5 H I 5Xm * dXdXdXdXdXdXdXdX",
"dXdXdXdXdXdXdXdXdX*   u ;.h.~ p.) g.#.~.}.A.h.i.B.| 1.+ X.!.@XoX2Xd   z Y K F 1 3   5 dXdXdXdXdXdXdX",
"dXdXdXdXdXdXdXdXdXdX>   y $.7.j.8.+.9.@.R.F.9.@.V./.x f.!.<XOX2Xs   6 iX6Xx $ X X 1 X > dXdXdXdXdXdX",
"dXdXdXdXdXdXdXdXdXdXdX>   u >.6.A.X.D.#.%.j.@.C.S.F.L.).<XOX2Xs   z uXsXb   $ V N l %   > dXdXdXdXdX",
"dXdXdXdXdXdXdXdXdXdXdXdX>   x ;.j.7.k.O.O.O.<.a.H.S.z.#XOX2Xs   l uXaXv   3 F 8XU F c >   > dXdXdXdX",
"dXdXdXdXdXdXdXdXdXdXdXdXdX>   t ..x.4.O.{ ) %.@.D.4.z.,X<Xf   5 I pXv   6 9X5X5XJ K F b &   > dXdXdX",
"dXdXdXdXdXdXdXdXdXdXdXdXdXdX*   x 2.4.o./ ! u.C.k.<.A.,XN.  5 K U v   * yXrXqXJ J J P M D *   dXdXdX",
"dXdXdXdXdXdXdXdXdXdXdXdXdXdXdX>   p v.l.~ | oXD.S.XX|.R.E X J J m   $ J yXrX9X9X5XG 8X5X6Xx   dXdXdX",
"dXdXdXdXdXdXdXdXdXdXdXdXdXdXdXdX>   i 2.] +X=XF.k.XX,Xm.  , L M % @ B J 5X0X9X9X9XH tX8XM X dXdXdXdX",
"dXdXdXdXdXdXdXdXdXdXdXdXdXdXdXdXdX>   r c.3XJ.D./.`.<X-X8   H b   v J J F K 6XtXtXaXrXB o dXdXdXdXdX",
"dXdXdXdXdXdXdXdXdXdXdXdXdXdXdXdXdXdX>   e I.y.}  .x.1X3Xr.  x >   F J H M N H iXsXsX6XX dXdXdXdXdXdX",
"dXdXdXdXdXdXdXdXdXdXdXdXdXdXdXdXdXdXdX>   .     X T a .X|     @ o 1 k M F D J iXpX6XX dXdXdXdXdXdXdX",
"dXdXdXdXdXdXdXdXdXdXdXdXdXdXdXdXdXdXdXdX> > > >           > 5 dX*   & k D H 8XqXI # dXdXdXdXdXdXdXdX",
"dXdXdXdXdXdXdXdXdXdXdXdXdXdXdXdXdXdXdXdXdXdXdXdX> > > > > dXdXdXdX3 % > v L 0Xm # dXdXdXdXdXdXdXdXdX",
"dXdXdXdXdXdXdXdXdXdXdXdXdXdXdXdXdXdXdXdXdXdXdXdXdXdXdXdXdXdXdXdXdXdX>   * m l X dXdXdXdXdXdXdXdXdXdX",
"dXdXdXdXdXdXdXdXdXdXdXdXdXdXdXdXdXdXdXdXdXdXdXdXdXdXdXdXdXdXdXdXdXdXdX> * > X dXdXdXdXdXdXdXdXdXdXdX",
"dXdXdXdXdXdXdXdXdXdXdXdXdXdXdXdXdXdXdXdXdXdXdXdXdXdXdXdXdXdXdXdXdXdXdXdX> > dXdXdXdXdXdXdXdXdXdXdXdX",
"dXdXdXdXdXdXdXdXdXdXdXdXdXdXdXdXdXdXdXdXdXdXdXdXdXdXdXdXdXdXdXdXdXdXdXdXdXdXdXdXdXdXdXdXdXdXdXdXdXdX",
"dXdXdXdXdXdXdXdXdXdXdXdXdXdXdXdXdXdXdXdXdXdXdXdXdXdXdXdXdXdXdXdXdXdXdXdXdXdXdXdXdXdXdXdXdXdXdXdXdXdX",
"dXdXdXdXdXdXdXdXdXdXdXdXdXdXdXdXdXdXdXdXdXdXdXdXdXdXdXdXdXdXdXdXdXdXdXdXdXdXdXdXdXdXdXdXdXdXdXdXdXdX",
"dXdXdXdXdXdXdXdXdXdXdXdXdXdXdXdXdXdXdXdXdXdXdXdXdXdXdXdXdXdXdXdXdXdXdXdXdXdXdXdXdXdXdXdXdXdXdXdXdXdX",
"dXdXdXdXdXdXdXdXdXdXdXdXdXdXdXdXdXdXdXdXdXdXdXdXdXdXdXdXdXdXdXdXdXdXdXdXdXdXdXdXdXdXdXdXdXdXdXdXdXdX"
};
