/* XPM */
static xpm_row_t tower_orange_up_right[] = {
/* columns rows colors chars-per-pixel */
"50 50 225 2 ",
"   c #040504",
".  c #0B0300",
"X  c #0A0A0B",
"o  c #0C0805",
"O  c #1B0800",
"+  c #120903",
"@  c #11100F",
"#  c #090D13",
"$  c #0E1113",
"%  c #131313",
"&  c #1C1815",
"*  c #1A1A1C",
"=  c #210900",
"-  c #2A0F00",
";  c #231106",
":  c #391703",
">  c #221E1E",
",  c #171F23",
"<  c #001222",
"1  c #1E252A",
"2  c #1E303A",
"3  c #2A2726",
"4  c #392D25",
"5  c #363637",
"6  c #2B3238",
"7  c #49210A",
"8  c #5B2C0E",
"9  c #452B11",
"0  c #712F02",
"q  c #643B1E",
"w  c #77370D",
"e  c #523B2C",
"r  c #443D37",
"t  c #4E3C30",
"y  c #4B4234",
"u  c #46423C",
"i  c #49423B",
"p  c #5A483D",
"a  c #68472D",
"s  c #794B2D",
"d  c #744629",
"f  c #7A4E31",
"g  c #7C5439",
"h  c #6A4B37",
"j  c #2D3F47",
"k  c #3C4448",
"l  c #384950",
"z  c #2E434D",
"x  c #444343",
"c  c #45494B",
"v  c #494B4C",
"b  c #444648",
"n  c #524A47",
"m  c #484F53",
"M  c #42555C",
"N  c #4B595F",
"B  c #495458",
"V  c #58514A",
"C  c #6C5849",
"Z  c #6A5C52",
"A  c #765844",
"S  c #726357",
"D  c #4B5D65",
"F  c #465A63",
"G  c #535E63",
"H  c #54646B",
"J  c #59666C",
"K  c #536066",
"L  c #5C6C74",
"P  c #576A76",
"I  c #5F727C",
"U  c #62717C",
"Y  c #626B75",
"T  c #883C0A",
"R  c #823F12",
"E  c #9F4508",
"W  c #884014",
"Q  c #954917",
"!  c #A34506",
"~  c #AC4B07",
"^  c #A8460A",
"/  c #AB4C0A",
"(  c #A74808",
")  c #AE530B",
"_  c #AA5801",
"`  c #B35702",
"'  c #B45C05",
"]  c #B1520B",
"[  c #B55B0A",
"{  c #B95E0A",
"}  c #BC5509",
"|  c #B75616",
" . c #AF4F0E",
".. c #9C6218",
"X. c #AF6105",
"o. c #BC6505",
"O. c #BD6B05",
"+. c #BC6509",
"@. c #BD6A09",
"#. c #B76607",
"$. c #A3661B",
"%. c #BA6816",
"&. c #9A5B27",
"*. c #86593A",
"=. c #935830",
"-. c #A05A29",
";. c #9C6625",
":. c #9D623B",
">. c #A46A24",
",. c #A66927",
"<. c #BD6528",
"1. c #A56337",
"2. c #B66B3B",
"3. c #C55A13",
"4. c #CD5D13",
"5. c #C05E05",
"6. c #C16D05",
"7. c #CB6D00",
"8. c #C36D0A",
"9. c #CC6E0E",
"0. c #C76509",
"q. c #D86C0A",
"w. c #C87006",
"e. c #D77208",
"r. c #C96217",
"t. c #D4661C",
"y. c #DA6617",
"u. c #C67318",
"i. c #D57112",
"p. c #DC7415",
"a. c #D6751C",
"s. c #E4680F",
"d. c #E77305",
"f. c #E36C1E",
"g. c #E46A14",
"h. c #EC741C",
"j. c #E57616",
"k. c #F5751D",
"l. c #FC751B",
"z. c #FE7A1E",
"x. c #F67414",
"c. c #C66626",
"v. c #D26E2F",
"b. c #C57326",
"n. c #DC762D",
"m. c #C66F34",
"M. c #C7763A",
"N. c #D5793C",
"B. c #D06E33",
"V. c #EB7422",
"C. c #EC7825",
"Z. c #E67628",
"A. c #F47622",
"S. c #FA7723",
"D. c #F57823",
"F. c #FC7B23",
"G. c #F27A2A",
"H. c #FD7E2A",
"J. c #EB7D34",
"K. c #F97D32",
"L. c #E06F22",
"P. c #805A41",
"I. c #996847",
"U. c #896E4E",
"Y. c #B37D58",
"T. c #A97453",
"R. c #CD7B45",
"E. c #CD7E4B",
"W. c #C87742",
"Q. c #D67D43",
"!. c #DD883B",
"~. c #D48338",
"^. c #DB8022",
"/. c #FF8323",
"(. c #FF8B2B",
"). c #FD8534",
"_. c #FD883B",
"`. c #F8863B",
"'. c #E98534",
"]. c #B6815D",
"[. c #B68666",
"{. c #CD8548",
"}. c #DA854C",
"|. c #DD8A4D",
" X c #D38545",
".X c #C6875D",
"XX c #DD8A51",
"oX c #D48B5A",
"OX c #D98D59",
"+X c #D38855",
"@X c #DB915F",
"#X c #E0874A",
"$X c #E78746",
"%X c #F88C45",
"&X c #FC954A",
"*X c #EA8C52",
"=X c #E58D58",
"-X c #E89359",
";X c #F19759",
":X c #F49052",
">X c #D88F61",
",X c #D69060",
"<X c #DC9263",
"1X c #EB9C67",
"2X c #F19C64",
"3X c #FAA86E",
"4X c #5B7494",
"5X c #6C7D8C",
"6X c #657885",
"7X c #0C6BCB",
"8X c #748493",
"9X c #798A9B",
"0X c #6F8191",
"qX c #7B8CA0",
"wX c #2286F6",
"eX c #82929D",
"rX c #8E9FB0",
"tX c #8696A7",
"yX c #97A9B8",
"uX c #97ABBA",
"iX c #A4B4C3",
"pX c #B1BDC6",
"aX c #AFC0CE",
"sX c #B8C6D2",
"dX c #FFFFFF",
/* pixels */
"dXdXdXdXdXdXdXdXdXdXdXdXdXdXdXdXdXdXdXdXdXdXdXdXdXdXdXdXdXdXdXdXdXdXdXdXdXdXdXdXdXdXdXdXdXdXdXdXdXdX",
"dXdXdXdXdXdXdXdXdXdXdXdXdXdXdXdXdXdXdXdXdXdXdXdXdXdXdXdXdXdXdXdXdXdXdXdXdXdXdXdXdXdXdXdXdXdXdXdXdXdX",
"dXdXdXdXdXdXdXdXdXdXdXdXdXdXdXdXdXdXdXdXdXdXdXdXdXdXdXdXdXdXdXdXdXdXdXdXdXdXdXdXdXdXdXdXdXdXdXdXdXdX",
"dXdXdXdXdXdXdXdXdXdXdXdXdXdXdXdXdXdXdXdXdXdXdXdXdXdXdXdXdXdXdXdXdX>     dXdXdXdXdXdXdXdXdXdXdXdXdXdX",
"dXdXdXdXdXdXdXdXdXdXdXdXdXdXdXdXdXdXdXdXdXdXdXdXdXdXdXdXdXdXdXdX>   * x   dXdXdXdXdXdXdXdXdXdXdXdXdX",
"dXdXdXdXdXdXdXdXdXdXdXdXdXdXdXdXdXdXdXdXdXdXdXdXdXdXdXdXdXdXdX>   * G 6XM X dXdXdXdXdXdXdXdXdXdXdXdX",
"dXdXdXdXdXdXdXdXdXdXdXdXdXdXdXdXdXdXdXdXdX>         * dXdXdX>   > x M 5X8Xm X dXdXdXdXdXdXdXdXdXdXdX",
"dXdXdXdXdXdXdXdXdXdXdXdXdXdXdXdXdX>         O = 9 h   1 dXr   % c F P 9XtXrX5X# dXdXdXdXdXdXdXdXdXdX",
"dXdXdXdXdXdXdXdXdXdXdXdXdXdXdXdX>   4 0 0 W | g.`.T.: 3 *   1 l N K H G H pXsX6X# dXdXdXdXdXdXdXdXdX",
"dXdXdXdXdXdXdXdXdXdXdXdXdXdXdX* % x ].:Xz.D.k.G.=Xc.W m v 3 X N U J J 5X9XtXsXaXI X dXdXdXdXdXdXdXdX",
"dXdXdXdXdXdXdXdXdXdXdXdXdXdX> o r &.k.).J.A.s.Z.Q.f 3 z 5X1 o m 8X5XJ 9X9XtXiXiXeXm X dXdXdXdXdXdXdX",
"dXdXdXdXdXdXdXdXdXdXdXdXdX3   x $.} | +X'.k.A.}.%Xt.o 2 Y D $ % D 8X9X8XqX6XK J 9X5Xl X dXdXdXdXdXdX",
"dXdXdXdXdXdXdXdXdXdXdXdX*   r ,.d.0.} r.#Xn.s.A.:X1.  m H K x . 1 9XrXrX0XK N D K I m > > dXdXdXdXdX",
"dXdXdXdXdXdXdXdXdXdXdX>   i $.O.e.S.| 3.F.S.g.Z.|.2Xs   5 L 6Xc   6 yXyX5XF M F D c * * > dXdXdXdXdX",
"dXdXdXdXdXdXdXdXdXdX* % n ,.7.@.9.8.O.] t.A.h.k.J.OX1Xs   j iXaXv   * J H H H F b >   > dXdXdXdXdXdX",
"dXdXdXdXdXdXdXdXdX>   t $.i.e.@.[ 0.i.j.F.F.f.( c.*XOX2Xd   k uXpXv   $ B J H k & & * dXdXdXdXdXdXdX",
"dXdXdXdXdXdXdXdX>   x $.7.8.k.p.O.@.{.*Xk.9.i.S.k.$X,XoX2Xs   z uXaXv . @ c D 1   > dXdXdXdXdXdXdXdX",
"dXdXdXdXdXdXdX>   y >.w.o.[ [ ~ %.~.#XK.x.j.F.s 3 y.%X,XOX2Xd   z 6XU m %     o > dXdXdXdXdXdXdXdXdX",
"dXdXdXdXdXdX>   u ..O.i.A.3._ @.{.$XV.9.7...V Z.w + f.%XoXOX2Xs   5 G H M c * @ dXdXdXdXdXdXdXdXdXdX",
"dXdXdXdXdX>   r &.e.h.i.' ! %.!.*XS.l.k.9.F.Q   v.T . _ !.<XOX2Xs X 5 H L J k   4 dXdXdXdXdXdXdXdXdX",
"dXdXdXdX>   i $.@.0.+.O.O.%.R.%XN.A P.A 1.H./.Q   t.R . X.!.<XOX2Xg     , X     , dXdXdXdXdXdXdXdXdX",
"dXdXdX>   x >.7./ +.[ / +. X*Xf.:   . .   O E F.Q   t.R   X.!.<XOX<XN.!   8 4.]   > dXdXdXdXdXdXdXdX",
"dXdXdX>   [.1X|.b.[ [ ` r.'.Q.a < a Q.&X&Xq . ( l.E   t.R + f.).#XOX<XR.m.-X3X.X  > dXdXdXdXdXdXdXdX",
"dXdXdX>   d } / {.|.O.O.] | S.8 ; V.F.S.G.;Xe . ( *X*.  4.:.x L.z.A.A.|.,X<X1Xd   > dXdXdXdXdXdXdXdX",
"dXdXdX>   2.'.O.[ ! } h.+.9.| O Q (.A.A.k.G.;Xe . ! *XU.# <.z.z.S.4.%.=XXX`.h.T   > dXdXdXdXdXdXdXdX",
"dXdXdX>   .Xu.` [ 8.0.+.8.h.R 9 t.F.A.A.A.k.G.;Xt O t.H.Z.v.V.F.F.G.D.A.A.F.|     > dXdXdXdXdXdXdXdX",
"dXdXdX>   f ~ (  . ./ +.+.] V.w ; y./.A.h.L.j.C.;Xt ; V.F.i.@.C.a.8.C.D.S.S.}   > dXdXdXdXdXdXdXdXdX",
"dXdXdX>   T.`.'  .] #.{ b.$X$X3 9 e.k.l.Q.6X7X4Xb.q s m.D.h.9.@.<.%.u.oX=X'.y.  > dXdXdXdXdXdXdXdXdX",
"dXdXdX>   ) }.E.~ ^ / / ~ W.1X+X> : 3.k.d.U.wXU.j.oXv =.z.A.S.j.o.) ( | XX2XI.  > dXdXdXdXdXdXdXdXdX",
"dXdXdX>   O / }.{.` / ] [ [ s.).+X& : q.S.-.a &.Y.n X y.(.#XW.%.o.[ / ~ } c.e   > dXdXdXdXdXdXdXdXdX",
"dXdXdXdX>   O / }.Q.) ^ #.@.] y._.+X& : 4.l./.n.C # 7 G.=XR.@.#.6.@.+.x.2.r   > dXdXdXdXdXdXdXdXdXdX",
"dXdXdXdXdX>   O ^ }.R.~ +.[ ^ ) y._.+X4   + 0 :   - c.&X{.#.q.D.h.4.4.v.n   * dXdXdXdXdXdXdXdXdXdXdX",
"dXdXdXdXdXdX>   = ^ }.R.~ [ +.#.[ s.).oX].I.*.*.I..X:X~.a.j.+.X.w.x.2.p   > dXdXdXdXdXdXdXdXdXdXdXdX",
"dXdXdXdXdXdXdX>   = / }.R.~ @.{ ^ ^ M.<XOX@XOXOXoX>XQ.6.] ) 8.k.j...u   > dXdXdXdXdXdXdXdXdXdXdXdXdX",
"dXdXdXdXdXdXdXdX>   = / }.R.^ ] 8.O.^ B.`.l.l.l.A.N.%._ @.p.j.6...y   > dXdXdXdXdXdXdXdXdXdXdXdXdXdX",
"dXdXdXdXdXdXdXdXdX>   = / }.R.~ o.{ ] @.8.8.8.A.j.O.8.6.#.) 7.>.x   > dXdXdXdXdXdXdXdXdXdXdXdXdXdXdX",
"dXdXdXdXdXdXdXdXdXdX>   = / }.R.~ ] / / ] [ @.8.#.i.f.] y.h.$.y   > dXdXdXdXdXdXdXdXdXdXdXdXdXdXdXdX",
"dXdXdXdXdXdXdXdXdXdXdX>   = / }.R.~ ] { +.[ ( ~ 8.j.p.6.e.;.u   > dXdXdXdXdXdXdXdXdXdXdXdXdXdXdXdXdX",
"dXdXdXdXdXdXdXdXdXdXdXdX>   = / }.R.~ 6.#.^ ^ E.|.@.6.{ Q u   > dXdXdXdXdXdXdXdXdXdXdXdXdXdXdXdXdXdX",
"dXdXdXdXdXdXdXdXdXdXdXdXdX>   O ^ }. X' ] [ %.m.M.u.o.;.y   > dXdXdXdXdXdXdXdXdXdXdXdXdXdXdXdXdXdXdX",
"dXdXdXdXdXdXdXdXdXdXdXdXdXdX>   = / }.R.~ 0.' | +X^...x   > dXdXdXdXdXdXdXdXdXdXdXdXdXdXdXdXdXdXdXdX",
"dXdXdXdXdXdXdXdXdXdXdXdXdXdXdX>   = ) #X}.c.c.c.m.Y.n   > dXdXdXdXdXdXdXdXdXdXdXdXdXdXdXdXdXdXdXdXdX",
"dXdXdXdXdXdXdXdXdXdXdXdXdXdXdXdX*   + p C Z Z Z S V   > dXdXdXdXdXdXdXdXdXdXdXdXdXdXdXdXdXdXdXdXdXdX",
"dXdXdXdXdXdXdXdXdXdXdXdXdXdXdXdXdX3                 > dXdXdXdXdXdXdXdXdXdXdXdXdXdXdXdXdXdXdXdXdXdXdX",
"dXdXdXdXdXdXdXdXdXdXdXdXdXdXdXdXdXdX> > > > > > > > dXdXdXdXdXdXdXdXdXdXdXdXdXdXdXdXdXdXdXdXdXdXdXdX",
"dXdXdXdXdXdXdXdXdXdXdXdXdXdXdXdXdXdXdXdXdXdXdXdXdXdXdXdXdXdXdXdXdXdXdXdXdXdXdXdXdXdXdXdXdXdXdXdXdXdX",
"dXdXdXdXdXdXdXdXdXdXdXdXdXdXdXdXdXdXdXdXdXdXdXdXdXdXdXdXdXdXdXdXdXdXdXdXdXdXdXdXdXdXdXdXdXdXdXdXdXdX",
"dXdXdXdXdXdXdXdXdXdXdXdXdXdXdXdXdXdXdXdXdXdXdXdXdXdXdXdXdXdXdXdXdXdXdXdXdXdXdXdXdXdXdXdXdXdXdXdXdXdX",
"dXdXdXdXdXdXdXdXdXdXdXdXdXdXdXdXdXdXdXdXdXdXdXdXdXdXdXdXdXdXdXdXdXdXdXdXdXdXdXdXdXdXdXdXdXdXdXdXdXdX",
"dXdXdXdXdXdXdXdXdXdXdXdXdXdXdXdXdXdXdXdXdXdXdXdXdXdXdXdXdXdXdXdXdXdXdXdXdXdXdXdXdXdXdXdXdXdXdXdXdXdX"
};
