/* XPM */
static xpm_row_t tower_orange_down_left[] = {
/* columns rows colors chars-per-pixel */
"50 50 225 2 ",
"   c #040504",
".  c #0B0300",
"X  c #0A0A0B",
"o  c #0C0805",
"O  c #1B0800",
"+  c #120903",
"@  c #11100F",
"#  c #090D13",
"$  c #0E1113",
"%  c #131313",
"&  c #1C1815",
"*  c #1A1A1C",
"=  c #210900",
"-  c #2A0F00",
";  c #231106",
":  c #391703",
">  c #221E1E",
",  c #171F23",
"<  c #001222",
"1  c #1E252A",
"2  c #1E303A",
"3  c #2A2726",
"4  c #392D25",
"5  c #363637",
"6  c #2B3238",
"7  c #49210A",
"8  c #5B2C0E",
"9  c #452B11",
"0  c #712F02",
"q  c #643B1E",
"w  c #77370D",
"e  c #523B2C",
"r  c #443D37",
"t  c #4E3C30",
"y  c #4B4234",
"u  c #46423C",
"i  c #49423B",
"p  c #5A483D",
"a  c #68472D",
"s  c #794B2D",
"d  c #744629",
"f  c #7A4E31",
"g  c #7C5439",
"h  c #6A4B37",
"j  c #2D3F47",
"k  c #3C4448",
"l  c #384950",
"z  c #2E434D",
"x  c #444343",
"c  c #45494B",
"v  c #494B4C",
"b  c #444648",
"n  c #524A47",
"m  c #484F53",
"M  c #42555C",
"N  c #4B595F",
"B  c #495458",
"V  c #58514A",
"C  c #6C5849",
"Z  c #6A5C52",
"A  c #765844",
"S  c #726357",
"D  c #4B5D65",
"F  c #465A63",
"G  c #535E63",
"H  c #54646B",
"J  c #59666C",
"K  c #536066",
"L  c #5C6C74",
"P  c #576A76",
"I  c #5F727C",
"U  c #62717C",
"Y  c #626B75",
"T  c #883C0A",
"R  c #823F12",
"E  c #9F4508",
"W  c #884014",
"Q  c #954917",
"!  c #A34506",
"~  c #AC4B07",
"^  c #A8460A",
"/  c #AB4C0A",
"(  c #A74808",
")  c #AE530B",
"_  c #AA5801",
"`  c #B35702",
"'  c #B45C05",
"]  c #B1520B",
"[  c #B55B0A",
"{  c #B95E0A",
"}  c #BC5509",
"|  c #B75616",
" . c #AF4F0E",
".. c #9C6218",
"X. c #AF6105",
"o. c #BC6505",
"O. c #BD6B05",
"+. c #BC6509",
"@. c #BD6A09",
"#. c #B76607",
"$. c #A3661B",
"%. c #BA6816",
"&. c #9A5B27",
"*. c #86593A",
"=. c #935830",
"-. c #A05A29",
";. c #9C6625",
":. c #9D623B",
">. c #A46A24",
",. c #A66927",
"<. c #BD6528",
"1. c #A56337",
"2. c #B66B3B",
"3. c #C55A13",
"4. c #CD5D13",
"5. c #C05E05",
"6. c #C16D05",
"7. c #CB6D00",
"8. c #C36D0A",
"9. c #CC6E0E",
"0. c #C76509",
"q. c #D86C0A",
"w. c #C87006",
"e. c #D77208",
"r. c #C96217",
"t. c #D4661C",
"y. c #DA6617",
"u. c #C67318",
"i. c #D57112",
"p. c #DC7415",
"a. c #D6751C",
"s. c #E4680F",
"d. c #E77305",
"f. c #E36C1E",
"g. c #E46A14",
"h. c #EC741C",
"j. c #E57616",
"k. c #F5751D",
"l. c #FC751B",
"z. c #FE7A1E",
"x. c #F67414",
"c. c #C66626",
"v. c #D26E2F",
"b. c #C57326",
"n. c #DC762D",
"m. c #C66F34",
"M. c #C7763A",
"N. c #D5793C",
"B. c #D06E33",
"V. c #EB7422",
"C. c #EC7825",
"Z. c #E67628",
"A. c #F47622",
"S. c #FA7723",
"D. c #F57823",
"F. c #FC7B23",
"G. c #F27A2A",
"H. c #FD7E2A",
"J. c #EB7D34",
"K. c #F97D32",
"L. c #E06F22",
"P. c #805A41",
"I. c #996847",
"U. c #896E4E",
"Y. c #B37D58",
"T. c #A97453",
"R. c #CD7B45",
"E. c #CD7E4B",
"W. c #C87742",
"Q. c #D67D43",
"!. c #DD883B",
"~. c #D48338",
"^. c #DB8022",
"/. c #FF8323",
"(. c #FF8B2B",
"). c #FD8534",
"_. c #FD883B",
"`. c #F8863B",
"'. c #E98534",
"]. c #B6815D",
"[. c #B68666",
"{. c #CD8548",
"}. c #DA854C",
"|. c #DD8A4D",
" X c #D38545",
".X c #C6875D",
"XX c #DD8A51",
"oX c #D48B5A",
"OX c #D98D59",
"+X c #D38855",
"@X c #DB915F",
"#X c #E0874A",
"$X c #E78746",
"%X c #F88C45",
"&X c #FC954A",
"*X c #EA8C52",
"=X c #E58D58",
"-X c #E89359",
";X c #F19759",
":X c #F49052",
">X c #D88F61",
",X c #D69060",
"<X c #DC9263",
"1X c #EB9C67",
"2X c #F19C64",
"3X c #FAA86E",
"4X c #5B7494",
"5X c #6C7D8C",
"6X c #657885",
"7X c #0C6BCB",
"8X c #748493",
"9X c #798A9B",
"0X c #6F8191",
"qX c #7B8CA0",
"wX c #2286F6",
"eX c #82929D",
"rX c #8E9FB0",
"tX c #8696A7",
"yX c #97A9B8",
"uX c #97ABBA",
"iX c #A4B4C3",
"pX c #B1BDC6",
"aX c #AFC0CE",
"sX c #B8C6D2",
"dX c #FFFFFF",
/* pixels */
"dXdXdXdXdXdXdXdXdXdXdXdXdXdXdXdXdXdXdXdXdXdXdXdXdXdXdXdXdXdXdXdXdXdXdXdXdXdXdXdXdXdXdXdXdXdXdXdXdXdX",
"dXdXdXdXdXdXdXdXdXdXdXdXdXdXdXdXdXdXdXdXdXdXdXdXdXdXdXdXdXdXdXdXdXdXdXdXdXdXdXdXdXdXdXdXdXdXdXdXdXdX",
"dXdXdXdXdXdXdXdXdXdXdXdXdXdXdXdXdXdXdXdXdXdXdXdXdXdXdXdXdXdXdXdXdXdXdXdXdXdXdXdXdXdXdXdXdXdXdXdXdXdX",
"dXdXdXdXdXdXdXdXdXdXdXdXdXdXdXdXdXdXdXdXdXdXdXdXdXdXdXdXdXdXdXdXdXdXdXdXdXdXdXdXdXdXdXdXdXdXdXdXdXdX",
"dXdXdXdXdXdXdXdXdXdXdXdXdXdXdXdXdXdXdXdXdXdXdXdXdXdXdXdXdXdXdXdXdXdXdXdXdXdXdXdXdXdXdXdXdXdXdXdXdXdX",
"dXdXdXdXdXdXdXdXdXdXdXdXdXdXdXdXdXdXdXdXdXdXdXdX> > > > > > > > dXdXdXdXdXdXdXdXdXdXdXdXdXdXdXdXdXdX",
"dXdXdXdXdXdXdXdXdXdXdXdXdXdXdXdXdXdXdXdXdXdXdX>     o           > dXdXdXdXdXdXdXdXdXdXdXdXdXdXdXdXdX",
"dXdXdXdXdXdXdXdXdXdXdXdXdXdXdXdXdXdXdXdXdXdX>   n S Z Z Z C V +   > dXdXdXdXdXdXdXdXdXdXdXdXdXdXdXdX",
"dXdXdXdXdXdXdXdXdXdXdXdXdXdXdXdXdXdXdXdXdX>   n Y.m.c.c.c.XX#X~ =   > dXdXdXdXdXdXdXdXdXdXdXdXdXdXdX",
"dXdXdXdXdXdXdXdXdXdXdXdXdXdXdXdXdXdXdXdX>   u $.a.OX| ` @.~ R.}./ O   > dXdXdXdXdXdXdXdXdXdXdXdXdXdX",
"dXdXdXdXdXdXdXdXdXdXdXdXdXdXdXdXdXdXdX>   y ;.{ a.M.m.%.' } '  X}.^ =   > dXdXdXdXdXdXdXdXdXdXdXdXdX",
"dXdXdXdXdXdXdXdXdXdXdXdXdXdXdXdXdXdX*   x Q +.O.O.+X{.~ ^ { 6.~ R.}./ =   > dXdXdXdXdXdXdXdXdXdXdXdX",
"dXdXdXdXdXdXdXdXdXdXdXdXdXdXdXdXdX>   u ;.e.O.p.j.8.~ ( [ +.{ / ~ R.}./ =   > dXdXdXdXdXdXdXdXdXdXdX",
"dXdXdXdXdXdXdXdXdXdXdXdXdXdXdXdX>   u $.h.y.[ f.i.#.6.+.[ ] / ] ) ~ R.}./ =   > dXdXdXdXdXdXdXdXdXdX",
"dXdXdXdXdXdXdXdXdXdXdXdXdXdXdX> o x $.7. .#.6.@.@.j.A.8.8.8.@.] { +.~ R.}./ O   > dXdXdXdXdXdXdXdXdX",
"dXdXdXdXdXdXdXdXdXdXdXdXdXdX>   y ..6.j.p.6.` %.~.D.l.l.S.`.B./ @.6.] ~ R.}./ =   > dXdXdXdXdXdXdXdX",
"dXdXdXdXdXdXdXdXdXdXdXdXdX>   x ..j.k.6.] ] 6.~.>XOXOXOXOXOX<XR.~ / { o./ R.}.~ =   > dXdXdXdXdXdXdX",
"dXdXdXdXdXdXdXdXdXdXdXdX>   p m.x.w.X.+.j.b.~.:X.XI.*.*.I.Y.oXK.s.[ +.+.[ ~ R.}./ O   > dXdXdXdXdXdX",
"dXdXdXdXdXdXdXdXdXdXdX>   x v.4.4.C.D.q.#.{.&Xc.-   : 0 O   4 oX_.y.) ^ [ +.~ R.}./ =   > dXdXdXdXdX",
"dXdXdXdXdXdXdXdXdXdX>   5 m.x.o.O.O.#.#.~.*XG.7 # C n./.A.4.: & +X_.y.) O.{ ^ ) R.}./ =   > dXdXdXdX",
"dXdXdXdXdXdXdXdXdX>   e c.| ~ / { o.%.W.}.(.y.X p ].Q a &.z.i.: & oX`.s.[ [ ) / `  X}./ =   > dXdXdX",
"dXdXdXdXdXdXdXdXdX>   :.2X+X| ( ) O.j.H.A.F.=.v oX^.U.wXU.d.k.4.: ; +X1XM./ / / / / R. X^   > dXdXdX",
"dXdXdXdXdXdXdXdXdX> o t.'.=XoXu.%.<.8.9.h.A.m.d q b.4X7X5XN.l.k.s.9 3 $X$Xb.[ { ] / { %XT.  > dXdXdX",
"dXdXdXdXdXdXdXdXdX>   } A.F.D.C.@.a.C.@.i.F.V.; y ;XV.f.n.h.A./.n.; w Z.] +.+.) / ] ^ ~ g   > dXdXdX",
"dXdXdXdXdXdXdXdX> o    ./.A.A.S.A.S.S.V.B.Z.).t.O t ;XG.k.A.A.D.S.t.7 W h.8.+.+.6.[ ` 8..X  > dXdXdX",
"dXdXdXdXdXdXdXdX>   T x.`.XX#X<.4.H.z.F.| @ U.$XE . e ;XG.k.A.A.(.Q O  .r.8.h.} ! { O.'.T.  > dXdXdX",
"dXdXdXdXdXdXdXdX>   h 2X@X<X}.A.k.z.L.x 1.t.  *.$X( . e ;XG.A.F.Z.; 8 F.} ` O.O.+X{.~ } d . > dXdXdX",
"dXdXdXdXdXdXdXdX>   .X3X-Xm.R.<X,X#X).f.+ R t.  Q z.( . q &X&XQ.a < a Q.$Xr.' [ [ u.|.1X[.. > dXdXdX",
"dXdXdXdXdXdXdXdX>   ] r.8   E N.<XOX<X!.X.  W t.  Q F.E =   . .   : f.:X XO./ { +./ 0.$.x   > dXdXdX",
"dXdXdXdXdXdXdXdXdX*       ,   X f 2XOX<X!._   W t.  Q /.F.:.A P.A N.%XR.@.O.@.+.0.+.>.y   > dXdXdXdX",
"dXdXdXdXdXdXdXdXdX5   k J L J 5   s 2XOX<X!._   R t.  Q /.9.k.l.F.*X~.%.( ' i.h.e.&.r   > dXdXdXdXdX",
"dXdXdXdXdXdXdXdXdXdX@ > c M J K 5   s 2XOX,X%Xf.O w C.V ..7.9.V.$X{.+._ 3.A.e.O.$.x   > dXdXdXdXdXdX",
"dXdXdXdXdXdXdXdXdX> X     % B U U l   d 2XOX,X$Xf.3 s F.j.x.K.$X~.%.~ [ ] o.7.,.r   > dXdXdXdXdXdXdX",
"dXdXdXdXdXdXdXdX>   1 D x X   v pXyXj   s 2XOX,X$Xk.A.i.0.k.*X X@.O.p.h.8.7.$.x   > dXdXdXdXdXdXdXdX",
"dXdXdXdXdXdXdX> % % b J J m %   v pXuXj   d 2XOX*Xc.! f.H.S.j.p.0.[ +.e.i.>.t   > dXdXdXdXdXdXdXdXdX",
"dXdXdXdXdXdX*   > b M J J J J *   v sXiXj   s 2XOXJ.k.h.A.y.] +.8.9.@.7.>.n % > dXdXdXdXdXdXdXdXdXdX",
"dXdXdXdXdX> * * c D F F F 5XyXyX6   c 6XL 5   f 2X|.n.g.S.F.3.] S.j.6.$.i   * dXdXdXdXdXdXdXdXdXdXdX",
"dXdXdXdXdX> > m L H D M K 0XrXrX9X1 . x G P m   1.:XA.g.n.$Xc.} @.d.,.r   > dXdXdXdXdXdXdXdXdXdXdXdX",
"dXdXdXdXdXdXX l 0X8XJ H 6XqX9XqX5XD $ $ F Y 2   y.%XXXD.k.'.oX| ' $.u   > dXdXdXdXdXdXdXdXdXdXdXdXdX",
"dXdXdXdXdXdXdXX B eXiXiXtX9X9XJ 5X8XV o 1 5Xz 3 *.Q.Z.q.k.J.K.k.-.r   > dXdXdXdXdXdXdXdXdXdXdXdXdXdX",
"dXdXdXdXdXdXdXdX# L pXsXqXqX5XJ J I N X 1 c V T <.-XG.l.k.F.:X].i $ > dXdXdXdXdXdXdXdXdXdXdXdXdXdXdX",
"dXdXdXdXdXdXdXdXdX$ 6XsXaXJ D J K N l 3   , 3 - T._.g.| W 0 0 4   > dXdXdXdXdXdXdXdXdXdXdXdXdXdXdXdX",
"dXdXdXdXdXdXdXdXdXdX@ 6XrXtX8XP N c %   r dX1   h 9 O O         > dXdXdXdXdXdXdXdXdXdXdXdXdXdXdXdXdX",
"dXdXdXdXdXdXdXdXdXdXdXX N 8X5XM b >   * dXdXdX>       o > dXdXdXdXdXdXdXdXdXdXdXdXdXdXdXdXdXdXdXdXdX",
"dXdXdXdXdXdXdXdXdXdXdXdXX l 6XG &   > dXdXdXdXdXdXdXdXdXdXdXdXdXdXdXdXdXdXdXdXdXdXdXdXdXdXdXdXdXdXdX",
"dXdXdXdXdXdXdXdXdXdXdXdXdXX u 1   > dXdXdXdXdXdXdXdXdXdXdXdXdXdXdXdXdXdXdXdXdXdXdXdXdXdXdXdXdXdXdXdX",
"dXdXdXdXdXdXdXdXdXdXdXdXdXdX    > dXdXdXdXdXdXdXdXdXdXdXdXdXdXdXdXdXdXdXdXdXdXdXdXdXdXdXdXdXdXdXdXdX",
"dXdXdXdXdXdXdXdXdXdXdXdXdXdXdXdXdXdXdXdXdXdXdXdXdXdXdXdXdXdXdXdXdXdXdXdXdXdXdXdXdXdXdXdXdXdXdXdXdXdX",
"dXdXdXdXdXdXdXdXdXdXdXdXdXdXdXdXdXdXdXdXdXdXdXdXdXdXdXdXdXdXdXdXdXdXdXdXdXdXdXdXdXdXdXdXdXdXdXdXdXdX",
"dXdXdXdXdXdXdXdXdXdXdXdXdXdXdXdXdXdXdXdXdXdXdXdXdXdXdXdXdXdXdXdXdXdXdXdXdXdXdXdXdXdXdXdXdXdXdXdXdXdX"
};
