/* XPM */
static xpm_row_t tower_orange_up[] = {
/* columns rows colors chars-per-pixel */
"50 50 12 1 ",
"  c #000000",
". c #444444",
"X c #44575F",
"o c #58666D",
"O c #AD4D0C",
"+ c #C06C09",
"@ c #F47622",
"# c #D98D5A",
"$ c #778899",
"% c #2285F4",
"& c #BFCED9",
"* c #ffffff",
/* pixels */
"**************************************************",
"******************              ******************",
"*****************. .Xoo$$$$ooX. .*****************",
"*****************. oo$$&&&&$$oo .*****************",
"*****************. .X$oo$&$ooX. .*****************",
"*****************. .Xoo$$$oXoX. .*****************",
"*****************. .Xoo$$$oXXX. .*****************",
"*****************. .Xooo$$$XoX. .*****************",
"*****************. Xo$$$$&$oooX .*****************",
"****************.   ..XX&$oX..   .****************",
"**************   ..            ..   **************",
"************* .O .$oX........XXo. O. *************",
"************  O#O oooo$&&&&$oooo O##  ************",
"***********. O@##  X..XXXXXX..X  ###O .***********",
"***********  @@@#@O            OO##@@  ***********",
"**********  O@+@###################@@O  **********",
"*********. O@@@@@@##############@#@@@@O .*********",
"********* .##@@@O@@@##########@@O@@@@##. *********",
"********* .@@##@@@OO@@@@++++@@@@@@@###@. *********",
"********* .OOO@@@@@@.        .@@@+++OOO. *********",
"********* .++OOO@@+@@@@@@@@@@@@@@#OOOO@. *********",
"********* .+@@++@@@+.        .@+++++O+@. *********",
"********* .+++@+#@@+@@@@@@###@@+@@+++O@. *********",
"********* .++O++#@++@@OOOOOO@@@@@#O+@+@. *********",
"********* .+++++#@@@.        .@@@#+@+++. *********",
"********* .@+@O+#@@. @####### .@@#+O+@+. *********",
"********* .+++O+#@. @#@@@@@+## .@#+@+++. *********",
"********* .+O+O+#@ .@@@@@@.%+#. @#+O@++. *********",
"********* .++@OO#@ .@@@@@+%%.@. @#+++O+. *********",
"********* .+++++#@. @@@@@@+.+@ .##O++@+. *********",
"********* .+@+++#@@ O@@@@@@@@O ###++O++. *********",
"********* .+O+OO+OO@  O+O+OO  ##@@+@++O. *********",
"********* .O+++O++O@@.      .##@@@++@++. *********",
"********* .+OO++@++O@#########@@+++++O+. *********",
"********* .++##OO+++##@@@@@@##@++OO##++. *********",
"********* .##OO++O+OOO+OO+OOOO+O+OOO###. *********",
"********* .#O++OO+OOO++OO+O++OOO+OO+OO#. *********",
"*********. .#O+OOOOOOO+O+++O+O+O++O+O#. .*********",
"**********. .#OO+OO+OOOOOOOOOOOOO+OO#. .**********",
"***********. .######################. .***********",
"************. .OOOOOOOOOOOOOOOOOOOO. .************",
"*************.                      .*************",
"**************......................**************",
"**************************************************",
"**************************************************",
"**************************************************",
"**************************************************",
"**************************************************",
"**************************************************",
"**************************************************"
};
