/* XPM */
static xpm_row_t tower_orange_right[] = {
/* columns rows colors chars-per-pixel */
"50 50 12 1 ",
"  c #000000",
". c #444444",
"X c #44575F",
"o c #58666D",
"O c #AD4D0C",
"+ c #C06C09",
"@ c #F47622",
"# c #D98D5A",
"$ c #778899",
"% c #2285F4",
"& c #BFCED9",
"* c #ffffff",
/* pixels */
"**************************************************",
"**************************************************",
"**************************************************",
"**************************************************",
"**************************************************",
"**************************************************",
"**************************************************",
"**************************************************",
"**************************************************",
"************.                    .****************",
"***********. ....................  ***************",
"**********. .##++O++++++@+++++O@#O  .*************",
"*********. .#O#+O+O@++O+++++@+O@#@O   ************",
"********. .#O+O#O++++@++@+O+@OO#@@@@O  ***********",
"*******. .#O++O#++O++OOOO++@+O@#@@+@@O. **********",
"*******. O#OOO+O+OO++O+++++++O@@@@@@##O **********",
"*******. O#+OO+O@++#########@@@@O@###O  .*********",
"*******. O#OO+O+++O@@@@@@@@@@@@@@@#@  .. .......**",
"*******. O#OOO+++OO@.  .@@+@@+@O@##O o$.         *",
"*******. O#+OOO+O@@  .. .@+++@@O@## Xoo  X....o. *",
"*******. O#OOOO#@@ O@@@@ .@@.@.@### .oX .oXXXXoX *",
"*******. O#OO+O##. @@@@#@ @@ @ @### .o. .$ooo$$o *",
"*******. O#O+++@# O@@@@@# O@ @ @### X$. X$oooo$o *",
"*******. O#OOOO@# +@@@@@# O@ @ @### X&. X$o$$o&$ *",
"*******. O#O+OO@# O@@@@@# O@ @ +### X&. &$$$$$&$ *",
"*******. O#O+++@# +@@+@@# O@ @ +### X&. $&$$$&&$ *",
"*******. O#O+OO@# O@+%.@# O# @ +### X&. o$$oo$&$ *",
"*******. O#OO+O@# O@.%%+# O# @ +### X$. XoXXXo$o *",
"*******. O#O++O##. @+.+## @# @ @### .o. .ooXoo$o *",
"*******. O#OOOO### O@@## .@@.@.@### .oX .oXXXXoX *",
"*******. O#O+O+@@##  .. .@@@@@@@@## XoX  X....o. *",
"*******. O#OOOO+@@##.  .@@@++@@@@##O oo.         *",
"*******. O#O+++++@@##@@@@@@@+@@@O@#O  .. .......**",
"*******. O#++OOO+@@########@+#+@@####O  .*********",
"*******. O#OOOOO++++O+++++O++O+@@@####O **********",
"*******. .#O++O#++@+++O@O@+++O+#@@@@##. **********",
"********. .#OO##+@+O++@+++@+OOO#@@@@O  ***********",
"*********. .#O#+O+++@O++@++O+OO##@O   ************",
"**********. .##+++O+++++++@@@@O@#O  .*************",
"***********. ....................  ***************",
"************.                    .****************",
"**************************************************",
"**************************************************",
"**************************************************",
"**************************************************",
"**************************************************",
"**************************************************",
"**************************************************",
"**************************************************",
"**************************************************"
};
