/* XPM */
static xpm_row_t tower_orange_left[] = {
/* columns rows colors chars-per-pixel */
"50 50 12 1 ",
"  c #000000",
". c #444444",
"X c #44575F",
"o c #58666D",
"O c #AD4D0C",
"+ c #C06C09",
"@ c #F47622",
"# c #D98D5A",
"$ c #778899",
"% c #2285F4",
"& c #BFCED9",
"* c #ffffff",
/* pixels */
"**************************************************",
"**************************************************",
"**************************************************",
"**************************************************",
"**************************************************",
"**************************************************",
"**************************************************",
"**************************************************",
"**************************************************",
"****************.                    .************",
"***************  .................... .***********",
"*************.  O#@O@@@@+++++++O+++##. .**********",
"************   O@##OO+O++@++O@+++O+#O#. .*********",
"***********  O@@@@#OOO+@+++@++O+@+##OO#. .********",
"********** .##@@@@#+O+++@O@O+++@++#O++O#. .*******",
"********** O####@@@+O++O+++++O++++OOOOO#O .*******",
"*********.  O####@@+#+@########@@+OOO++#O .*******",
"**....... ..  O#@O@@@+@@@@@@@##@@+++++O#O .*******",
"*         .oo O##@@@@++@@@.  .##@@+OOOO#O .*******",
"* .o....X  XoX ##@@@@@@@@. ..  ##@@+O+O#O .*******",
"* XoXXXXo. Xo. ###@.@.@@. ##@@O ###OOOO#O .*******",
"* o$ooXoo. .o. ###@ @ #@ ##+.+@ .##O++O#O .*******",
"* o$oXXXoX .$X ###+ @ #O #+%%.@O #@O+OO#O .*******",
"* $&$oo$$o .&X ###+ @ #O #@.%+@O #@OO+O#O .*******",
"* $&&$$$&$ .&X ###+ @ @O #@@+@@+ #@+++O#O .*******",
"* $&$$$$$& .&X ###+ @ @O #@@@@@O #@OO+O#O .*******",
"* $&o$$o$X .&X ###@ @ @O #@@@@@+ #@OOOO#O .*******",
"* o$oooo$X .$X ###@ @ @O #@@@@@O #@+++O#O .*******",
"* o$$ooo$. .o. ###@ @ @@ @#@@@@ .##O+OO#O .*******",
"* XoXXXXo. Xo. ###@.@.@@. @@@@O @@#OOOO#O .*******",
"* .o....X  ooX ##@O@@+++@. ..  @@O+OOO+#O .*******",
"*         .$o O##@O@+@@+@@.  .@OO+++OOO#O .*******",
"**....... ..  @#@@@@@@@@@@@@@@@O+++O+OO#O .*******",
"*********.  O###@O@@@@#########++@O+OO+#O .*******",
"********** O##@@@@@@O+++++++O++OO+O+OOO#O .*******",
"********** .O@@+@@#@O+@++OOOO++O++#O++O#. .*******",
"***********  O@@@@#OO@+O+@++@++++O#O+O#. .********",
"************   O@#@O+@+++++O++@O+O+#O#. .*********",
"*************.  O#@O+++++@++++++O++##. .**********",
"***************  .................... .***********",
"****************.                    .************",
"**************************************************",
"**************************************************",
"**************************************************",
"**************************************************",
"**************************************************",
"**************************************************",
"**************************************************",
"**************************************************",
"**************************************************"
};
