/* XPM */
static xpm_row_t tower_blue_down[] = {
/* columns rows colors chars-per-pixel */
"50 50 21 1 ",
"  c #000000",
". c #1B1B1D",
"X c #041E3B",
"o c #072128",
"O c #6C6D0C",
"+ c #353D43",
"@ c #184C5B",
"# c #124E7F",
"$ c #49545B",
"% c #616B72",
"& c #8F910E",
"* c #FCFF00",
"= c #1C6D85",
"- c #2A879B",
"; c #1D80B8",
": c #7A8D99",
"> c #2492D1",
", c #31ACCC",
"< c #35BBF1",
"1 c #8A9DAB",
"2 c #FFFFFF",
/* pixels */
"22222222222222222222222222222222222222222222222222",
"22222222222222222222222222222222222222222222222222",
"22222222222222222222222222222222222222222222222222",
"22222222222222222222222222222222222222222222222222",
"22222222222222222222222222222222222222222222222222",
"22222222222222222222222222222222222222222222222222",
"22222222222222222222222222222222222222222222222222",
"2222222222222222222           22222222222222222222",
"222222222222222222   o@ooo@@@  2222222222222222222",
"22222222222222222   @;;;@;;;<X  222222222222222222",
"2222222222222222  XXX<;;;;;<@XX  22222222222222222",
"2222222222222222  ;;X<<<<<<<X;#X  2222222222222222",
"222222222222222  X>>;XXXXXXX;;#;X 2222222222222222",
"22222222222222   X>;OO;>>##<<;>;X  222222222222222",
"2222222222222    X>O**O>;;;;>>;>X   22222222222222",
"222222222222  %% X>>&&;#>>>>>#;>X %+ 2222222222222",
"222222222222 +1+ X>>;;##>>#>>##;X %1  222222222222",
"222222222222 +:+ X#<<;>>;>>>;<<;X %:+ 222222222222",
"222222222222 +:+ @##,;>;;;#;#;@#  %:+ 222222222222",
"222222222222 +:%+   X,,<<<#<,X   +%$+ 222222222222",
"222222222222 +$%+ X ,,<,,,#,, XX +$:+ 222222222222",
"222222222222 +:$+ #> XXXXXXXX >X +%:+ 222222222222",
"222222222222 +:%+ #>=        =># +%:+ 222222222222",
"222222222222 +1%+ #<= %++++% =<# +:1+ 222222222222",
"222222222222  ::+ #>@ +%%%%+ @># +1%  222222222222",
"2222222222222  :+ #>@ +%$%$+ =># +%  2222222222222",
"22222222222222    #>@ +%%%$+ =>#    22222222222222",
"2222222222222222  #>= +%%%$+ @># 22222222222222222",
"22222222222222222 #<= +$$%%+ =<# 22222222222222222",
"22222222222222222 #>= +%%%%% @># 22222222222222222",
"22222222222222222 #>= $$::$+ @<# 22222222222222222",
"22222222222222222 #<@ +%$$%% =># 22222222222222222",
"22222222222222222 #>= .++++. =># 22222222222222222",
"22222222222222222 #>=  ....  @># 22222222222222222",
"22222222222222222 #>@ .++++. =<# 22222222222222222",
"22222222222222222 #<= +$%%%+ =># 22222222222222222",
"22222222222222222 #>= +%%$%+ =># 22222222222222222",
"22222222222222222 #>= +%%%$+ =<# 22222222222222222",
"22222222222222222 #>= +$%%$+ =># 22222222222222222",
"22222222222222222 #<@ +%%%%+ @># 22222222222222222",
"22222222222222222 #>@ ++++++ =># 22222222222222222",
"22222222222222222 #>= %:11:% =># 22222222222222222",
"22222222222222222 #>= .%%%%. @<# 22222222222222222",
"22222222222222222 #>= .$%%$. @># 22222222222222222",
"22222222222222222 #>@ +%$%$+ @># 22222222222222222",
"22222222222222222 #>= +%%%$+ =># 22222222222222222",
"22222222222222222 #<-        -<# 22222222222222222",
"22222222222222222 @-@ 222222 @-@ 22222222222222222",
"222222222222222222   22222222   222222222222222222",
"22222222222222222222222222222222222222222222222222"
};
