/* XPM */
static xpm_row_t tower_blue_up_right[] = {
/* columns rows colors chars-per-pixel */
"50 50 195 2 ",
"   c #010101",
".  c #0B0403",
"X  c #01030A",
"o  c #030B0D",
"O  c #0C0C0C",
"+  c #120E0C",
"@  c #030A14",
"#  c #0C0E11",
"$  c #020C18",
"%  c #031113",
"&  c #0D1414",
"*  c #0A1A1A",
"=  c #07151A",
"-  c #111214",
";  c #1A1613",
":  c #1B1C1D",
">  c #181818",
",  c #221F1F",
"<  c #353107",
"1  c #021C23",
"2  c #03162B",
"3  c #1E1F20",
"4  c #141B24",
"5  c #041F3B",
"6  c #021931",
"7  c #09252B",
"8  c #0B282D",
"9  c #072226",
"0  c #1F2222",
"q  c #1E242C",
"w  c #12292A",
"e  c #0B2830",
"r  c #082137",
"t  c #0D313A",
"y  c #222222",
"u  c #252629",
"i  c #25292D",
"p  c #2A292B",
"a  c #282627",
"s  c #272D32",
"d  c #292D32",
"f  c #282F38",
"g  c #2B3136",
"h  c #2D343A",
"j  c #273236",
"k  c #343434",
"l  c #333539",
"z  c #35393E",
"x  c #39393B",
"c  c #6E7212",
"v  c #052546",
"b  c #0A2D4B",
"n  c #062A4A",
"m  c #0C354A",
"M  c #042C56",
"N  c #0B355C",
"B  c #0D395F",
"V  c #093253",
"C  c #363D43",
"Z  c #383D43",
"A  c #0D3B62",
"S  c #0C3964",
"D  c #164756",
"F  c #15414C",
"G  c #3B4246",
"H  c #3C444A",
"J  c #3F484F",
"K  c #0D426B",
"L  c #104165",
"P  c #12466B",
"I  c #15546C",
"U  c #1A576B",
"Y  c #114978",
"T  c #1A5B71",
"R  c #185D7C",
"E  c #1B637C",
"W  c #296E7E",
"Q  c #474B4C",
"!  c #434D54",
"~  c #475158",
"^  c #4B565D",
"/  c #485055",
"(  c #53595D",
")  c #5C5C5C",
"_  c #535659",
"`  c #4E5960",
"'  c #525D64",
"]  c #595F65",
"[  c #556067",
"{  c #566169",
"}  c #5A646B",
"|  c #5E686F",
" . c #5E6A72",
".. c #5F6E78",
"X. c #6C6C6D",
"o. c #262626",
"O. c #626C73",
"+. c #64727B",
"@. c #69747C",
"#. c #657077",
"$. c #A0A4A2",
"%. c #7E7E7E",
"&. c #837700",
"*. c #708D3D",
"=. c #709D54",
"-. c #9A8600",
";. c #A8BF30",
":. c #FBFC01",
">. c #0B4C85",
",. c #124F81",
"<. c #145889",
"1. c #1A6B88",
"2. c #1B718E",
"3. c #176496",
"4. c #196A9C",
"5. c #176A9F",
"6. c #1D7592",
"7. c #216F84",
"8. c #207A96",
"9. c #217E99",
"0. c #267988",
"q. c #1A6DA3",
"w. c #1A73A3",
"e. c #1A73AD",
"r. c #1C78A5",
"t. c #1C7BB4",
"y. c #1D7BBB",
"u. c #1C77B0",
"i. c #0E63A6",
"p. c #217EB2",
"a. c #237DA9",
"s. c #6B7A85",
"d. c #147ECC",
"f. c #0F77C6",
"g. c #27829B",
"h. c #1E83BC",
"j. c #2584A5",
"k. c #3C8FA2",
"l. c #2991AF",
"z. c #2184BC",
"x. c #268ABD",
"c. c #2385B6",
"v. c #3197B8",
"b. c #499C9F",
"n. c #6E818C",
"m. c #74838D",
"M. c #7B8D99",
"N. c #788993",
"B. c #7F919E",
"V. c #1D84C1",
"C. c #1C91DA",
"Z. c #178BDA",
"A. c #2185C3",
"S. c #248DC5",
"D. c #228CCA",
"F. c #2691C7",
"G. c #2693CE",
"H. c #2995CC",
"J. c #2B97C8",
"K. c #2494D2",
"L. c #2699D4",
"P. c #299DD4",
"I. c #269AD9",
"U. c #29A1D9",
"Y. c #2EA5DB",
"T. c #30AFDA",
"R. c #35B4D7",
"E. c #269CE0",
"W. c #2CAAE4",
"Q. c #32B2E6",
"!. c #32B5EB",
"~. c #35B9EA",
"^. c #35BDF2",
"/. c #2EB4F2",
"(. c #39C5E8",
"). c #3BCDFF",
"_. c #848484",
"`. c #8C8C8C",
"'. c #82939F",
"]. c #949494",
"[. c #9B9B9B",
"{. c #8395A1",
"}. c #889CAA",
"|. c #A3A3A3",
" X c #ACACAC",
".X c #484848",
"XX c #4D4D4D",
"oX c #CCCCCC",
"OX c #DFDFDF",
"+X c #D0D0D0",
"@X c #ECECEC",
"#X c #E1E1E1",
"$X c #F3F3F3",
"%X c #FFFFFF",
"&X c #FFFFFF",
/* pixels */
"%X%X%X%X%X%X%X%X%X%X%X%X%X%X%X%X%X%X%X%X%X%X%X%X%X%X%X%X%X%X%X%X%X%X%X%X%X%X%X%X%X%X%X%X%X%X%X%X%X%X",
"%X%X%X%X%X%X%X%X%X%X%X%X%X%X%X%X%X%X%X%X%X%X%X%X%X%X%X%X%X%X%X%X%X%X%X%X%X%X%X%X%X%X%X%X%X%X%X%X%X%X",
"%X%X%X%X%X%X%X%X%X%X%X%X%X%X%X%X%X%X%X%X%X%X%X%X%X%X%X%X%X%X%X%X%X%X@XoXoX@X%X%X%X%X%X%X%X%X%X%X%X%X",
"%X%X%X%X%X%X%X%X%X%X%X%X%X%X%X%X%X%X%X%X%X%X%X%X%X%X%X%X%X%X%X%X%X$X`.h e X ].%X%X%X%X%X%X%X%X%X%X%X",
"%X%X%X%X%X%X%X%X%X%X%X%X%X%X%X%X%X%X%X%X%X%X%X%X%X%X%X%X%X%X%X%X%X XX S a.0.% [.%X%X%X%X%X%X%X%X%X%X",
"%X%X%X%X%X%X%X%X%X%X%X%X%X%X%X%X%X%X%X%X%X%X%X%X%X%X%X%X%X%X%X@X[.h B y.^.g.j #X%X%X%X%X%X%X%X%X%X%X",
"%X%X%X%X%X%X%X%X%X%X%X%X%X%X%X%X%X%X%X%X%X%X%X%X%X%X%X%X%X%X%X].@ B y.L.6.8 o.$X%X%X%X%X%X%X%X%X%X%X",
"%X%X%X%X%X%X%X%X%X%X%X%X%X%X%X%X%X%X%X%X%X%X%X%X%X%X%X%X%X$X Xu P A.S.I & .   $.%X%X%X%X%X%X%X%X%X%X",
"%X%X%X%X%X%X%X%X%X%X%X%X%X%X%X%X%X%X%X%X%X%X%X%X%X%X%X%X%X`.q B y.F.E = - z ! - $.%X%X%X%X%X%X%X%X%X",
"%X%X%X%X%X%X%X%X%X%X%X%X%X%X%X%X%X%X%X%X%X%X%X%X%X%X%X%X Xo A y.G.6.8   : H  .O.: $.%X%X%X%X%X%X%X%X",
"%X%X%X%X%X%X%X%X%X%X%X%X%X%X%X%X%X%X%X%X%X%X%X%X%X%X$X].h B y.x.R 7 a x / } {  .O.: k _.$.XX%X%X%X%X",
"%X%X%X%X%X%X%X%X%X%X%X%X%X%X%X%X%X%X%X%X%X%X%X%X%X%X[.X N G.~.8.1 . G n.m.| O.+.} C . 1 F o ].%X%X%X",
"%X%X%X%X%X%X%X%X%X%X%X%X%X%X%X%X%X%X%X%X%X%X%X%X@X|.d B y.L.1.9 . x ! G '.{.} H i & 1 l.R.W Q .X%X%X",
"%X%X%X%X%X%X%X%X%X%X%X%X%X%X%X%X%X%X%X%X%X%X%X%X`.4 B H.Q.2.1 - l !  .( G M.O.:   % T K.A.L y #X%X%X",
"%X%X%X%X%X%X%X%X%X%X%X%X%X%X%X%X%X%X%X%X%X%X%X X> A y.S.2.7 . Z ^ [ O.@.' C ( p 1 6.L.y.A = `.%X%X%X",
"%X%X%X%X%X%X%X%X%X%X%X%X%X%X$X%._ ) ) oX%X$X`.f N y.L.1.*   p } ' | O.{ { z # 9 1.L.y.A g |.@X%X%X%X",
"%X%X%X%X%X%X%X%X%X%X%X%X%X%X[.          XXXXX N G.~.8.7     i ^ O.O.#.} G O % U S.y.B X |.%X%X%X%X%X",
"%X%X%X%X%X%X%X%X%X%X%X%X@X].a h s.'.N.!   X P D.F.I & , p u 3 g ~ | } l O 9 1.J.y.A f `.$X%X%X%X%X%X",
"%X%X%X%X%X%X%X%X%X%X%X%X_.O s ..}.B.{ > X B y.I.9.= . G O.` s : h ! C . 7 6.G.A.L -  X%X%X%X%X%X%X%X",
"%X%X%X%X%X%X%X%X%X%X$X|.> h +.M.@.H : X N y.K.T o . ] s.' ~ J g - + X 1 6.L.y.A 4 _.%X%X%X%X%X%X%X%X",
"%X%X%X%X%X%X%X%X%X$X%.y i J }  .~ ; X V y.P.2.1 & z } | m.{.+.G -   o 7.!.A.B d |.@X%X%X%X%X%X%X%X%X",
"%X%X%X%X%X%X%X%X%X X  d +.B.+.! 3   V G.~.T @ . C ~ [ O.O.{ ! C O 1 6.L.y.B o ].%X%X%X%X%X%X%X%X%X%X",
"%X%X%X%X%X%X%X%X%X.X( ` M.O.u : X 5 5.G.1.1 # d ^ { O.} ~ ' G > o E I.y.A h ].$X%X%X%X%X%X%X%X%X%X%X",
"%X%X%X%X%X%X%X%X%X%XX.^ @.0       2 5 o   s O. .O.O.O.+.} C . 9 8.~.D.N o  X%X%X%X%X%X%X%X%X%X%X%X%X",
"%X%X%X%X%X%X%X%X%XoX- z x   n ,.P @ * m v X O G | | ' } l O 1 2.L.t.B q `.%X%X%X%X%X%X%X%X%X%X%X%X%X",
"%X%X%X%X%X%X%X%X%X|.:     v e.W.P.w.j.R.v.5   - J O. .z . 7 9.~.A.B q  X$X%X%X%X%X%X%X%X%X%X%X%X%X%X",
"%X%X%X%X%X%X%X%X%X$XX.@ v h.A.Y Y.x.<.Y.z.S 5   > J z O % U S.y.B @ `.%X%X%X%X%X%X%X%X%X%X%X%X%X%X%X",
"%X%X%X%X%X%X%X%X+X) - n 5.D.q.<.u.A.e.3.p.R.l.5   + a * I S.y.A h [.@X%X%X%X%X%X%X%X%X%X%X%X%X%X%X%X",
"%X%X%X%X%X%X%X%X%X[.o 3.K.K.K.K.K.K.K.V.z.!.(.j.5   9 6.G.y.B X   ) %X%X%X%X%X%X%X%X%X%X%X%X%X%X%X%X",
"%X%X%X%X%X%X%X%X%XQ $ S ,.t.L.D.K.z.3.h.V.h.T.).j.@ R W.H.B # .    X%X%X%X%X%X%X%X%X%X%X%X%X%X%X%X%X",
"%X%X%X%X%X%X%X%XoXk @ K A.V.Q.^.h.A.I.I.G.D.K.R.(.T.c.e.N   > +.s.X  X%X%X%X%X%X%X%X%X%X%X%X%X%X%X%X",
"%X%X%X%X%X%X%X%X$X].X 2 b V 2 v ,.t.D.q.Y t.I.r.6   $ N @ ; ` }.! k $X%X%X%X%X%X%X%X%X%X%X%X%X%X%X%X",
"%X%X%X%X%X%X%X%X%XX.7 c.J.~.^.V A D.C.f.i.w.P.P.R o   @ 0 H m.{.J ) oX%X%X%X%X%X%X%X%X%X%X%X%X%X%X%X",
"%X%X%X%X%X%X%X%XOXy 8 E t.t.U.Q.b >.v.c -.*.V./.H.A X 3 ! ^ N.+.s X `.%X%X%X%X%X%X%X%X%X%X%X%X%X%X%X",
"%X%X%X%X%X%X%X%X%XOXy 8 1.h.y.U.Q.V b =.:.;.k.E.>.6 w ! } +.+.h p `.@X%X%X%X%X%X%X%X%X%X%X%X%X%X%X%X",
"%X%X%X%X%X%X%X%X%X%XOXy % t D 4.W.Q.M < &.&.b.d.v X O H M.+.i X |.%X%X%X%X%X%X%X%X%X%X%X%X%X%X%X%X%X",
"%X%X%X%X%X%X%X%X%X%X%XOXy X m h.L.J.x.F.C.Z.d.M   O J s.s.g : %.%X%X%X%X%X%X%X%X%X%X%X%X%X%X%X%X%X%X",
"%X%X%X%X%X%X%X%X%X%X%X%XOXy 9 R V.<.P 3.E.y.n X u O.B.+.h : |.$X%X%X%X%X%X%X%X%X%X%X%X%X%X%X%X%X%X%X",
"%X%X%X%X%X%X%X%X%X%X%X%X%XOXy o e F r K w.v X     H ' s O _.%X%X%X%X%X%X%X%X%X%X%X%X%X%X%X%X%X%X%X%X",
"%X%X%X%X%X%X%X%X%X%X%X%X%X%XOXy       @ @             a ].@X%X%X%X%X%X%X%X%X%X%X%X%X%X%X%X%X%X%X%X%X",
"%X%X%X%X%X%X%X%X%X%X%X%X%X%X%XOXy         ) %X$X$X$X$X$X$X%X%X%X%X%X%X%X%X%X%X%X%X%X%X%X%X%X%X%X%X%X",
"%X%X%X%X%X%X%X%X%X%X%X%X%X%X%X%X%X%X%X%X%X%X%X%X%X%X%X%X%X%X%X%X%X%X%X%X%X%X%X%X%X%X%X%X%X%X%X%X%X%X",
"%X%X%X%X%X%X%X%X%X%X%X%X%X%X%X%X%X%X%X%X%X%X%X%X%X%X%X%X%X%X%X%X%X%X%X%X%X%X%X%X%X%X%X%X%X%X%X%X%X%X",
"%X%X%X%X%X%X%X%X%X%X%X%X%X%X%X%X%X%X%X%X%X%X%X%X%X%X%X%X%X%X%X%X%X%X%X%X%X%X%X%X%X%X%X%X%X%X%X%X%X%X",
"%X%X%X%X%X%X%X%X%X%X%X%X%X%X%X%X%X%X%X%X%X%X%X%X%X%X%X%X%X%X%X%X%X%X%X%X%X%X%X%X%X%X%X%X%X%X%X%X%X%X",
"%X%X%X%X%X%X%X%X%X%X%X%X%X%X%X%X%X%X%X%X%X%X%X%X%X%X%X%X%X%X%X%X%X%X%X%X%X%X%X%X%X%X%X%X%X%X%X%X%X%X",
"%X%X%X%X%X%X%X%X%X%X%X%X%X%X%X%X%X%X%X%X%X%X%X%X%X%X%X%X%X%X%X%X%X%X%X%X%X%X%X%X%X%X%X%X%X%X%X%X%X%X",
"%X%X%X%X%X%X%X%X%X%X%X%X%X%X%X%X%X%X%X%X%X%X%X%X%X%X%X%X%X%X%X%X%X%X%X%X%X%X%X%X%X%X%X%X%X%X%X%X%X%X",
"%X%X%X%X%X%X%X%X%X%X%X%X%X%X%X%X%X%X%X%X%X%X%X%X%X%X%X%X%X%X%X%X%X%X%X%X%X%X%X%X%X%X%X%X%X%X%X%X%X%X",
"%X%X%X%X%X%X%X%X%X%X%X%X%X%X%X%X%X%X%X%X%X%X%X%X%X%X%X%X%X%X%X%X%X%X%X%X%X%X%X%X%X%X%X%X%X%X%X%X%X%X"
};
