/* XPM */
static xpm_row_t tower_blue_up_left[] = {
/* columns rows colors chars-per-pixel */
"50 50 197 2 ",
"   c #010101",
".  c #0B0403",
"X  c #01030A",
"o  c #030B0D",
"O  c #0C0C0C",
"+  c #120E0C",
"@  c #030A14",
"#  c #0C0E11",
"$  c #020C18",
"%  c #031113",
"&  c #0D1414",
"*  c #0A1A1A",
"=  c #07151A",
"-  c #111214",
";  c #1A1613",
":  c #1B1C1D",
">  c #181818",
",  c #221F1F",
"<  c #353107",
"1  c #021C23",
"2  c #03162B",
"3  c #1E1F20",
"4  c #141B24",
"5  c #041F3B",
"6  c #021931",
"7  c #09252B",
"8  c #0B282D",
"9  c #072226",
"0  c #1F2222",
"q  c #1E242C",
"w  c #12292A",
"e  c #0B2830",
"r  c #082137",
"t  c #0D313A",
"y  c #222222",
"u  c #252629",
"i  c #25292D",
"p  c #29292B",
"a  c #282627",
"s  c #272D32",
"d  c #2A2D32",
"f  c #282F38",
"g  c #2B3136",
"h  c #2D343A",
"j  c #273236",
"k  c #343434",
"l  c #333539",
"z  c #35393E",
"x  c #39393B",
"c  c #6E7212",
"v  c #052546",
"b  c #0A2D4B",
"n  c #062A4A",
"m  c #0C354A",
"M  c #042C56",
"N  c #0B355C",
"B  c #0D395F",
"V  c #093253",
"C  c #363D43",
"Z  c #383D43",
"A  c #0D3B62",
"S  c #0C3964",
"D  c #164756",
"F  c #15414C",
"G  c #3B4246",
"H  c #3C444A",
"J  c #3F484F",
"K  c #0D426B",
"L  c #104165",
"P  c #12466B",
"I  c #15546C",
"U  c #1A576B",
"Y  c #114978",
"T  c #1A5B71",
"R  c #185D7C",
"E  c #1B637C",
"W  c #296E7E",
"Q  c #474B4C",
"!  c #434D54",
"~  c #475158",
"^  c #4B565D",
"/  c #485055",
"(  c #53595D",
")  c #5C5C5C",
"_  c #535659",
"`  c #4E5960",
"'  c #525D64",
"]  c #595F65",
"[  c #556067",
"{  c #566169",
"}  c #5A646B",
"|  c #5E686F",
" . c #5E6A72",
".. c #5F6E78",
"X. c #6C6C6D",
"o. c #616161",
"O. c #626C73",
"+. c #64727B",
"@. c #69747C",
"#. c #657077",
"$. c #A0A4A2",
"%. c #7E7E7E",
"&. c #837700",
"*. c #708D3D",
"=. c #709D54",
"-. c #9A8600",
";. c #A8BF30",
":. c #FBFC01",
">. c #0B4C85",
",. c #124F81",
"<. c #145889",
"1. c #1A6B88",
"2. c #1B718E",
"3. c #176496",
"4. c #196A9C",
"5. c #176A9F",
"6. c #1D7592",
"7. c #216F84",
"8. c #207A96",
"9. c #217E99",
"0. c #267988",
"q. c #1A6DA3",
"w. c #1A73A3",
"e. c #1A73AD",
"r. c #1C78A5",
"t. c #1C7BB4",
"y. c #1D7BBB",
"u. c #1C77B0",
"i. c #0E63A6",
"p. c #217EB2",
"a. c #237DA9",
"s. c #6B7A85",
"d. c #147ECC",
"f. c #0F77C6",
"g. c #27829B",
"h. c #1E83BC",
"j. c #2584A5",
"k. c #3C8FA2",
"l. c #2991AF",
"z. c #2184BC",
"x. c #268ABD",
"c. c #2385B6",
"v. c #3197B8",
"b. c #499C9F",
"n. c #6E818C",
"m. c #74838D",
"M. c #7B8D99",
"N. c #788993",
"B. c #7F919E",
"V. c #1D84C1",
"C. c #1C91DA",
"Z. c #178BDA",
"A. c #2185C3",
"S. c #248DC5",
"D. c #228CCA",
"F. c #2691C7",
"G. c #2593CE",
"H. c #2995CC",
"J. c #2B97C8",
"K. c #2494D2",
"L. c #2699D4",
"P. c #299DD4",
"I. c #269AD9",
"U. c #29A1D9",
"Y. c #2EA5DB",
"T. c #30AFDA",
"R. c #35B4D7",
"E. c #269CE0",
"W. c #2CAAE4",
"Q. c #32B2E6",
"!. c #32B5EB",
"~. c #35B9EA",
"^. c #35BDF2",
"/. c #2EB4F2",
"(. c #39C5E8",
"). c #3BCDFF",
"_. c #848484",
"`. c #8C8C8C",
"'. c #82939F",
"]. c #949494",
"[. c #9B9B9B",
"{. c #8395A1",
"}. c #889CAA",
"|. c #A3A3A3",
" X c #ACACAC",
".X c #b8b8b8",
"XX c #c4c4c4",
"oX c #CCCCCC",
"OX c #DFDFDF",
"+X c #D0D0D0",
"@X c #ECECEC",
"#X c #E1E1E1",
"$X c #F3F3F3",
"%X c #FFFFFF",
"&X c #FEFEFE",
"*X c #fcfcfc",
"=X c #FFFFFF",
/* pixels */
"%X%X%X%X%X%X%X%X%X%X%X%X%X%X%X%X%X%X%X%X%X%X%X%X%X%X%X%X%X%X%X%X%X%X%X%X%X%X%X%X%X%X%X%X%X%X%X%X%X%X",
"%X%X%X%X%X%X%X%X%X%X%X%X%X%X%X%X%X%X%X%X%X%X%X%X%X%X%X%X%X%X%X%X%X%X%X%X%X%X%X%X%X%X%X%X%X%X%X%X%X%X",
"%X%X%X%X%X%X%X%X%X%X%X%X.X#X%X%X%X%X%X%X%X%X%X%X%X%X%X%X%X%X%X%X%X%X%X%X%X%X%X%X%X%X%X%X%X%X%X%X%X%X",
"%X%X%X%X%X%X%X%X%X%X%X].Q y `.@X%X%X%X%X%X%X%X%X%X%X%X%X%X%X%X%X%X%X%X%X%X%X%X%X%X%X%X%X%X%X%X%X%X%X",
"%X%X%X%X%X%X%X%X%X%XXXo W L = |.%X%X%X%X%X%X%X%X%X%X%X%X%X%X%X%X%X%X%X%X%X%X%X%X%X%X%X%X%X%X%X%X%X%X",
"%X%X%X%X%X%X%X%X%X%X$.F R.A.A g |.$X%X%X%X%X%X%X%X%X%X%X%X%X%X%X%X%X%X%X%X%X%X%X%X%X%X%X%X%X%X%X%X%X",
"%X%X%X%X%X%X%X%X%X%X_.1 l.K.y.A X `.%X%X%X%X%X%X%X%X%X%X%X%X%X%X%X%X%X%X%X%X%X%X%X%X%X%X%X%X%X%X%X%X",
"%X%X%X%X%X%X%X%X%X%Xk . 1 T L.y.B f  X%X%X%X%X%X%X%X%X%X%X%X%X%X%X%X%X%X%X%X%X%X%X%X%X%X%X%X%X%X%X%X",
"%X%X%X%X%X%X%X%X%X$.: C & % 6.L.y.A - _.@X%X%X%X%X%X%X%X%X%X%X%X%X%X%X%X%X%X%X%X%X%X%X%X%X%X%X%X%X%X",
"%X%X%X%X%X%X%X%X$.: O.{ i   1 1.S.y.L 4 |.%X%X%X%X%X%X%X%X%X%X%X%X%X%X%X%X%X%X%X%X%X%X%X%X%X%X%X%X%X",
"%X%X%X%X[.#X*X$.- O. .#.H : p 9 U J.A.A s ].$X%X%X%X%X%X%X%X%X%X%X%X%X%X%X%X%X%X%X%X%X%X%X%X%X%X%X%X",
"%X%X%X].% j o.  !  .{ O.} O.( # % 1.G.y.B o ].%X%X%X%X%X%X%X%X%X%X%X%X%X%X%X%X%X%X%X%X%X%X%X%X%X%X%X",
"%X%X@XX 0.g.8 . z H { | {.M.C z O 9 6.L.A.N h  X%X%X%X%X%X%X%X%X%X%X%X%X%X%X%X%X%X%X%X%X%X%X%X%X%X%X",
"%X%XoXe a.^.6.& - : / m.'.H ' { G O 7 6.!.y.A o `.$X%X%X%X%X%X%X%X%X%X%X%X%X%X%X%X%X%X%X%X%X%X%X%X%X",
"%X%XoXh S y.L.I =   x n.H ( @.{ { l . 1 7.L.y.N q  X%X%X%X%X%X%X%X%X%X%X%X%X%X%X%X%X%X%X%X%X%X%X%X%X",
"%X%X@X`.X B y.S.E 8 u H !  .O.O.#.} C . o 6.I.D.N q `.@X%X%X X$XoX`.@X%X%X%X%X%X%X%X%X%X%X%X%X%X%X%X",
"%X%X%X*X Xh B A.F.6.7 . x ! [ | O.} ! +   1 E ~.t.B @ [._  X. k _ X `.%X%X%X%X%X%X%X%X%X%X%X%X%X%X%X",
"%X%X%X%X%X[.@ P y.G.R 1 . l ^ ' O.~ h - - O o 8.L.A.N h     s.! J s p |.%X%X%X%X%X%X%X%X%X%X%X%X%X%X",
"%X%X%X%X%X@X].u B y.x.8.9 - Z } ^ g : g G C > 9 2.~.y.A X . +.}.{.+.h . %.$X%X%X%X%X%X%X%X%X%X%X%X%X",
"%X%X%X%X%X%X%X Xq A y.~.1.1 . p i 3 s J #.! G . 1 9.S.y.B # > ` m.N.+.i : |.%X%X%X%X%X%X%X%X%X%X%X%X",
"%X%X%X%X%X%X%X$X`.o N G.L.2.7     p ` ~ {.{ ' C O 7 U S.y.B   ; H ^ +.+.g : _.@X%X%X%X%X%X%X%X%X%X%X",
"%X%X%X%X%X%X%X%X%X Xh N y.Q.2.*   p O.' m.O.~ { l . % I G.H.N @ 0 ! { M.s.h O ].*X%X%X%X%X%X%X%X%X%X",
"%X%X%X%X%X%X%X%X%X%X].X B H.S.1.7 , G s.} O.} #.{ z O * 6.W.e.N @ 3 ! H s.+.s u $X%X%X%X%X%X%X%X%X%X",
"%X%X%X%X%X%X%X%X%X%X$X[.s B y.L.8.& . ] { [ O.O.'  .z a 9 R c.$   X w O J B.'   $X%X%X%X%X%X%X%X%X%X",
"%X%X%X%X%X%X%X%X%X%X%X%X|.4 A y.~.I = . z ~ { O.} O.J +   @ T.  o A 6 X O O.H   $X%X%X%X%X%X%X%X%X%X",
"%X%X%X%X%X%X%X%X%X%X%X%X@X`.> N G.F.9.o & C ^ O.} J >   5 j.(.6 R H.>.v   u     $X%X%X%X%X%X%X%X%X%X",
"%X%X%X%X%X%X%X%X%X%X%X%X%X%X Xf N D.I.T 1 . d  .G -   5 j.).R.r.P./.E.d.M X     *X%X%X%X%X%X%X%X%X%X",
"%X%X%X%X%X%X%X%X%X%X%X%X%X%X%X`.X P y.K.2.o # O.O   5 l.(.T.K.I.I.V.k.b.d.n X   %X%X%X%X%X%X%X%X%X%X",
"%X%X%X%X%X%X%X%X%X%X%X%X%X%X%X*XXXX B y.I.T 1 s X 5 S R.!.h.D.t.w.*.;.&.Z.y.v   ) %X%X%X%X%X%X%X%X%X",
"%X%X%X%X%X%X%X%X%X%X%X%X%X%X%X%XXX  X N y.~.1.  v v.z.p.z.V.G.Y i.-.:.&.C.E.w.@   %X%X%X%X%X%X%X%X%X",
"%X%X%X%X%X%X%X%X%X%X%X%X%X%X%XoX  ! > X V G.G.o m R.Y.3.V.h.I.q.f.c =.< F.3.K @   %X%X%X%X%X%X%X%X%X",
"%X%X%X%X%X%X%X%X%X%X%X%X%X%X%X)   N.{ : X V 5.5 * j.<.e.K.3.I.D.C.v.b M x.P r     %X%X%X%X%X%X%X%X%X",
"%X%X%X%X%X%X%X%X%X%X%X%X%X%X%X)   '.B.H ;   5 2 @ r.x.A.K.z.A.t.D.>.V Q.J.<.F     %X%X%X%X%X%X%X%X%X",
"%X%X%X%X%X%X%X%X%X%X%X%X%X%X%X_   s.}.@.~ 3 X   P P.U.u.K.K.h.,.A b Q.W.L.V.e   y %X%X%X%X%X%X%X%X%X",
"%X%X%X%X%X%X%X%X%X%X%X%X%X%X%X%.  h ..M. .! :   ,.W.Y <.K.D.^.v V Q.U.4.h.R o y OX%X%X%X%X%X%X%X%X%X",
"%X%X%X%X%X%X%X%X%X%X%X%X%X%X%X$X[.u s +.} #.u   n e.A.q.K.L.Q.2 ^.U.y.D m 9 y OX%X%X%X%X%X%X%X%X%X%X",
"%X%X%X%X%X%X%X%X%X%X%X%X%X%X%X%X%X].O h J B.O.0   v h.D.K.t.V.V ~.t.h.t X y OX%X%X%X%X%X%X%X%X%X%X%X",
"%X%X%X%X%X%X%X%X%X%X%X%X%X%X%X%X%X@X_.> i +.M.@.x   v 5.K.,.A.b J.t.1.% y OX%X%X%X%X%X%X%X%X%X%X%X%X",
"%X%X%X%X%X%X%X%X%X%X%X%X%X%X%X%X%X%X%X|.y s ` ^ z   @ n 3.S K 2 c.E 8 y OX%X%X%X%X%X%X%X%X%X%X%X%X%X",
"%X%X%X%X%X%X%X%X%X%X%X%X%X%X%X%X%X%X%X$X%.  ( X.- 3 X.- o $ @ X 7 8 y OX%X%X%X%X%X%X%X%X%X%X%X%X%X%X",
"%X%X%X%X%X%X%X%X%X%X%X%X%X%X%X%X%X%X%X%X*X X.X%XoX|.*X) [.Q k ].X.y OX%X%X%X%X%X%X%X%X%X%X%X%X%X%X%X",
"%X%X%X%X%X%X%X%X%X%X%X%X%X%X%X%X%X%X%X%X%X%X%X%X%X%X%X+X%X%XoX*X%XOX%X%X%X%X%X%X%X%X%X%X%X%X%X%X%X%X",
"%X%X%X%X%X%X%X%X%X%X%X%X%X%X%X%X%X%X%X%X%X%X%X%X%X%X%X%X%X%X%X%X%X%X%X%X%X%X%X%X%X%X%X%X%X%X%X%X%X%X",
"%X%X%X%X%X%X%X%X%X%X%X%X%X%X%X%X%X%X%X%X%X%X%X%X%X%X%X%X%X%X%X%X%X%X%X%X%X%X%X%X%X%X%X%X%X%X%X%X%X%X",
"%X%X%X%X%X%X%X%X%X%X%X%X%X%X%X%X%X%X%X%X%X%X%X%X%X%X%X%X%X%X%X%X%X%X%X%X%X%X%X%X%X%X%X%X%X%X%X%X%X%X",
"%X%X%X%X%X%X%X%X%X%X%X%X%X%X%X%X%X%X%X%X%X%X%X%X%X%X%X%X%X%X%X%X%X%X%X%X%X%X%X%X%X%X%X%X%X%X%X%X%X%X",
"%X%X%X%X%X%X%X%X%X%X%X%X%X%X%X%X%X%X%X%X%X%X%X%X%X%X%X%X%X%X%X%X%X%X%X%X%X%X%X%X%X%X%X%X%X%X%X%X%X%X",
"%X%X%X%X%X%X%X%X%X%X%X%X%X%X%X%X%X%X%X%X%X%X%X%X%X%X%X%X%X%X%X%X%X%X%X%X%X%X%X%X%X%X%X%X%X%X%X%X%X%X",
"%X%X%X%X%X%X%X%X%X%X%X%X%X%X%X%X%X%X%X%X%X%X%X%X%X%X%X%X%X%X%X%X%X%X%X%X%X%X%X%X%X%X%X%X%X%X%X%X%X%X",
"%X%X%X%X%X%X%X%X%X%X%X%X%X%X%X%X%X%X%X%X%X%X%X%X%X%X%X%X%X%X%X%X%X%X%X%X%X%X%X%X%X%X%X%X%X%X%X%X%X%X"
};
