/* XPM */
static xpm_row_t tower_blue_down_right[] = {
/* columns rows colors chars-per-pixel */
"50 50 195 2 ",
"   c #010101",
".  c #0B0403",
"X  c #01030A",
"o  c #030B0D",
"O  c #0C0C0C",
"+  c #120E0C",
"@  c #030A14",
"#  c #0C0E11",
"$  c #020C18",
"%  c #031113",
"&  c #0D1414",
"*  c #0A1A1A",
"=  c #07151A",
"-  c #111214",
";  c #1A1613",
":  c #1B1C1D",
">  c #181818",
",  c #221F1F",
"<  c #353107",
"1  c #021C23",
"2  c #03162B",
"3  c #1E1F20",
"4  c #141B24",
"5  c #041F3B",
"6  c #021931",
"7  c #09252B",
"8  c #0B282D",
"9  c #072226",
"0  c #1F2222",
"q  c #1E242C",
"w  c #12292A",
"e  c #0B2830",
"r  c #082137",
"t  c #0D313A",
"y  c #222222",
"u  c #252629",
"i  c #25292D",
"p  c #2A292B",
"a  c #282627",
"s  c #272D32",
"d  c #2A2D32",
"f  c #282F38",
"g  c #2B3136",
"h  c #2D343A",
"j  c #273236",
"k  c #343434",
"l  c #333539",
"z  c #35393E",
"x  c #39393B",
"c  c #6E7212",
"v  c #052546",
"b  c #0A2D4B",
"n  c #062A4A",
"m  c #0C354A",
"M  c #042C56",
"N  c #0B355C",
"B  c #0D395F",
"V  c #093253",
"C  c #363D43",
"Z  c #383D43",
"A  c #0D3B62",
"S  c #0C3964",
"D  c #164756",
"F  c #15414C",
"G  c #3B4246",
"H  c #3C444A",
"J  c #3F484F",
"K  c #0D426B",
"L  c #104165",
"P  c #12466B",
"I  c #15546C",
"U  c #1A576B",
"Y  c #114978",
"T  c #1A5B71",
"R  c #185D7C",
"E  c #1B637C",
"W  c #296E7E",
"Q  c #474B4C",
"!  c #434D54",
"~  c #475158",
"^  c #4B565D",
"/  c #485055",
"(  c #53595D",
")  c #5C5C5C",
"_  c #535659",
"`  c #4E5960",
"'  c #525D64",
"]  c #595F65",
"[  c #556067",
"{  c #566169",
"}  c #5A646B",
"|  c #5E686F",
" . c #5E6A72",
".. c #5F6E78",
"X. c #6C6C6D",
"o. c #262626",
"O. c #626C73",
"+. c #64727B",
"@. c #69747C",
"#. c #657077",
"$. c #A0A4A2",
"%. c #7E7E7E",
"&. c #837700",
"*. c #708D3D",
"=. c #709D54",
"-. c #9A8600",
";. c #A8BF30",
":. c #FBFC01",
">. c #0B4C85",
",. c #124F81",
"<. c #145889",
"1. c #1A6B88",
"2. c #1B718E",
"3. c #176496",
"4. c #196A9C",
"5. c #176A9F",
"6. c #1D7592",
"7. c #216F84",
"8. c #207A96",
"9. c #217E99",
"0. c #267988",
"q. c #1A6DA3",
"w. c #1A73A3",
"e. c #1A73AD",
"r. c #1C78A5",
"t. c #1C7BB4",
"y. c #1D7BBB",
"u. c #1C77B0",
"i. c #0E63A6",
"p. c #217EB2",
"a. c #237DA9",
"s. c #6A7A85",
"d. c #6C7B86",
"f. c #147ECC",
"g. c #0F77C6",
"h. c #27829B",
"j. c #1E83BC",
"k. c #2584A5",
"l. c #3C8FA2",
"z. c #2991AF",
"x. c #2184BC",
"c. c #268ABD",
"v. c #2385B6",
"b. c #3197B8",
"n. c #499C9F",
"m. c #6E818C",
"M. c #74838D",
"N. c #7B8D99",
"B. c #788993",
"V. c #7F919E",
"C. c #1D84C1",
"Z. c #1C91DA",
"A. c #178BDA",
"S. c #2185C3",
"D. c #248DC5",
"F. c #228CCA",
"G. c #2691C7",
"H. c #2693CE",
"J. c #2995CC",
"K. c #2B97C8",
"L. c #2494D2",
"P. c #2699D4",
"I. c #299DD4",
"U. c #269AD9",
"Y. c #29A1D9",
"T. c #2EA5DB",
"R. c #30AFDA",
"E. c #35B4D7",
"W. c #269CE0",
"Q. c #2CAAE4",
"!. c #32B2E6",
"~. c #32B5EB",
"^. c #35B9EA",
"/. c #2EB4F2",
"(. c #35BDF2",
"). c #39C5E8",
"_. c #3BCDFF",
"`. c #848484",
"'. c #8C8C8C",
"]. c #82939F",
"[. c #949494",
"{. c #9B9B9B",
"}. c #8395A1",
"|. c #889CAA",
" X c #A3A3A3",
".X c #ACACAC",
"XX c #484848",
"oX c #4D4D4D",
"OX c #CCCCCC",
"+X c #DFDFDF",
"@X c #D0D0D0",
"#X c #ECECEC",
"$X c #E1E1E1",
"%X c #F3F3F3",
"&X c #FFFFFF",
/* pixels */
"&X&X&X&X&X&X&X&X&X&X&X&X&X&X&X&X&X&X&X&X&X&X&X&X&X&X&X&X&X&X&X&X&X&X&X&X&X&X&X&X&X&X&X&X&X&X&X&X&X&X",
"&X&X&X&X&X&X&X&X&X&X&X&X&X&X&X&X&X&X&X&X&X&X&X&X&X&X&X&X&X&X&X&X&X&X&X&X&X&X&X&X&X&X&X&X&X&X&X&X&X&X",
"&X&X&X&X&X&X&X&X&X&X&X&X&X&X&X&X&X&X&X&X&X&X&X&X&X&X&X&X&X&X&X&X&X&X&X&X&X&X&X&X&X&X&X&X&X&X&X&X&X&X",
"&X&X&X&X&X&X&X&X&X&X&X&X&X&X&X&X&X&X&X&X&X&X&X&X&X&X&X&X&X&X&X&X&X&X&X&X&X&X&X&X&X&X&X&X&X&X&X&X&X&X",
"&X&X&X&X&X&X&X&X&X&X&X&X&X&X&X&X&X&X&X&X&X&X&X&X&X&X&X&X&X&X&X&X&X&X&X&X&X&X&X&X&X&X&X&X&X&X&X&X&X&X",
"&X&X&X&X&X&X&X&X&X&X&X&X&X&X&X&X&X&X&X&X&X&X&X&X&X&X&X&X&X&X&X&X&X&X&X&X&X&X&X&X&X&X&X&X&X&X&X&X&X&X",
"&X&X&X&X&X&X&X&X&X&X&X&X&X&X&X&X&X&X&X&X&X&X&X&X&X&X&X&X&X&X&X&X&X&X&X&X&X&X&X&X&X&X&X&X&X&X&X&X&X&X",
"&X&X&X&X&X&X&X&X&X&X&X&X&X&X&X&X&X&X&X&X&X&X&X&X&X&X&X&X&X&X&X&X&X&X&X&X&X&X&X&X&X&X&X&X&X&X&X&X&X&X",
"&X&X&X&X&X&X&X&X&X&X&X&X&X&X&X&X+X&X&XOX&X&X@X&X&X&X&X&X&X&X&X&X&X&X&X&X&X&X&X&X&X&X&X&X&X&X&X&X&X&X",
"&X&X&X&X&X&X&X&X&X&X&X&X&X&X&X+Xy X.[.k Q {.) &X XOX&XXX.X&X&X&X&X&X&X&X&X&X&X&X&X&X&X&X&X&X&X&X&X&X",
"&X&X&X&X&X&X&X&X&X&X&X&X&X&X+Xy 8 7 X @ $ o - X.: - X.(   %.%X&X&X&X&X&X&X&X&X&X&X&X&X&X&X&X&X&X&X&X",
"&X&X&X&X&X&X&X&X&X&X&X&X&X+Xy 8 E v.2 K S 3.n @   z ^ ` d y  X&X&X&X&X&X&X&X&X&X&X&X&X&X&X&X&X&X&X&X",
"&X&X&X&X&X&X&X&X&X&X&X&X+Xy % 1.t.K.b S.,.L.5.v   x @.N.+.i : `.#X&X&X&X&X&X&X&X&X&X&X&X&X&X&X&X&X&X",
"&X&X&X&X&X&X&X&X&X&X&X+Xy X t j.t.^.V C.t.L.F.j.v   0 O.V.J h O [.&X&X&X&X&X&X&X&X&X&X&X&X&X&X&X&X&X",
"&X&X&X&X&X&X&X&X&X&X+Xy 9 m D y.Y.(.2 !.P.L.q.S.e.n   u +.} +.s a {.%X&X&X&X&X&X&X&X&X&X&X&X&X&X&X&X",
"&X&X&X&X&X&X&X&X&X+Xy o R j.4.Y.!.V v (.F.L.<.Y Q.,.  : !  .N...h   %.&X&X&X&X&X&X&X&X&X&X&X&X&X&X&X",
"&X&X&X&X&X&X&X&X&Xy   e C.P.Q.!.b A ,.j.L.L.u.T.I.P   X 3 ~ @.|.s.  _ &X&X&X&X&X&X&X&X&X&X&X&X&X&X&X",
"&X&X&X&X&X&X&X&X&X    F <.K.!.V >.F.t.S.x.L.S.c.w.@ 2 5   ; G V.].  ) &X&X&X&X&X&X&X&X&X&X&X&X&X&X&X",
"&X&X&X&X&X&X&X&X&X    r P c.M b b.Z.F.U.3.L.e.<.k.* 5 5.N X : { B.  ) &X&X&X&X&X&X&X&X&X&X&X&X&X&X&X",
"&X&X&X&X&X&X&X&X&X  @ K 3.G.< =.c g.q.U.j.C.3.T.E.m o H.H.N X ; !   OX&X&X&X&X&X&X&X&X&X&X&X&X&X&X&X",
"&X&X&X&X&X&X&X&X&X  @ w.W.Z.&.:.-.i.Y H.C.x.p.x.b.v   1.^.y.N X   oX&X&X&X&X&X&X&X&X&X&X&X&X&X&X&X&X",
"&X&X&X&X&X&X&X&X&X)   v y.A.&.;.*.w.t.F.j.~.E.S 5 X s 1 T I.y.B X oX&X&X&X&X&X&X&X&X&X&X&X&X&X&X&X&X",
"&X&X&X&X&X&X&X&X&X&X  X n f.n.l.C.I.U.L.R.).z.5   O O.# o 2.L.y.P X '.&X&X&X&X&X&X&X&X&X&X&X&X&X&X&X",
"&X&X&X&X&X&X&X&X&X&X    X M f.W./.I.r.E._.k.5   - G  .d . 1 T U.F.N f .X&X&X&X&X&X&X&X&X&X&X&X&X&X&X",
"&X&X&X&X&X&X&X&X&X%X    u   v >.J.R 6 ).k.5   : J } O.^ C & o 9.G.H.N > '.#X&X&X&X&X&X&X&X&X&X&X&X&X",
"&X&X&X&X&X&X&X&X&X%X  H O.O X 6 A o   R.@   + J O.} O.{ ~ z . = I ^.y.A 4  X&X&X&X&X&X&X&X&X&X&X&X&X",
"&X&X&X&X&X&X&X&X&X%X  ' V.J O w X   $ v.R 9 a z  .' O.O.[ { ] . & 8.P.y.B d {.%X&X&X&X&X&X&X&X&X&X&X",
"&X&X&X&X&X&X&X&X&X%Xa s +.d.H ! 3 @ N e.Q.6.* O z { +.} O.} s.G , 7 1.D.J.B X [.&X&X&X&X&X&X&X&X&X&X",
"&X&X&X&X&X&X&X&X&X&X[.O h s.N.{ ! 0 @ N J.H.I % . l { ~ O.M.' O.p   = 2.!.y.N g .X&X&X&X&X&X&X&X&X&X",
"&X&X&X&X&X&X&X&X&X&X#X`.: g +.+.^ H ;   B y.D.U 7 O C ' { }.^ ` i     7 2.P.H.N o '.%X&X&X&X&X&X&X&X",
"&X&X&X&X&X&X&X&X&X&X&X&X X: i +.B.M.` : # B y.D.9.1 . G ! +.J s 3 i p . 1 1.^.y.A q .X&X&X&X&X&X&X&X",
"&X&X&X&X&X&X&X&X&X&X&X&X%X%.X h +.}.|.+.. X A y.^.2.9 > C G g : g ^ } Z - 9 8.c.y.B u [.#X&X&X&X&X&X",
"&X&X&X&X&X&X&X&X&X&X&X&X&X&X Xp s J ! s.    g N S.P.8.o O - - h ~ O.' ^ l . 1 R H.y.P @ {.&X&X&X&X&X",
"&X&X&X&X&X&X&X&X&X&X&X&X&X&X&X'.X ) k X .X) {.@ B t.^.E 1   + ! } O.| [ ! x . 7 6.G.S.B g .X&X&X&X&X",
"&X&X&X&X&X&X&X&X&X&X&X&X&X&X&X#X'.OX%X.X&X&X#X'.q N F.U.6.o X C } #.O.O. .! G a 8 E D.y.B X '.#X&X&X",
"&X&X&X&X&X&X&X&X&X&X&X&X&X&X&X&X&X&X&X&X&X&X&X&X.Xq N y.P.7.1 . l { { @.( G m.x   = I P.y.S h OX&X&X",
"&X&X&X&X&X&X&X&X&X&X&X&X&X&X&X&X&X&X&X&X&X&X&X&X%X'.o A y.~.6.7 O G { ' G ].M./ : - & 6.(.a.e OX&X&X",
"&X&X&X&X&X&X&X&X&X&X&X&X&X&X&X&X&X&X&X&X&X&X&X&X&X&X.Xg N S.P.6.9 O z C N.}.| { H z . 8 h.0.X #X&X&X",
"&X&X&X&X&X&X&X&X&X&X&X&X&X&X&X&X&X&X&X&X&X&X&X&X&X&X&X[.o B y.H.1.% # ( O.} O.{  .!   o.j % [.&X&X&X",
"&X&X&X&X&X&X&X&X&X&X&X&X&X&X&X&X&X&X&X&X&X&X&X&X&X&X&X%X[.d A S.K.U 9 p : H +. .O.- $.&X$X{.&X&X&X&X",
"&X&X&X&X&X&X&X&X&X&X&X&X&X&X&X&X&X&X&X&X&X&X&X&X&X&X&X&X&X X4 L y.D.1.1   i { O.: $.&X&X&X&X&X&X&X&X",
"&X&X&X&X&X&X&X&X&X&X&X&X&X&X&X&X&X&X&X&X&X&X&X&X&X&X&X&X&X#X`.- A y.P.6.% & C : $.&X&X&X&X&X&X&X&X&X",
"&X&X&X&X&X&X&X&X&X&X&X&X&X&X&X&X&X&X&X&X&X&X&X&X&X&X&X&X&X&X&X.Xf B y.P.T 1 . k &X&X&X&X&X&X&X&X&X&X",
"&X&X&X&X&X&X&X&X&X&X&X&X&X&X&X&X&X&X&X&X&X&X&X&X&X&X&X&X&X&X&X&X'.X A y.L.z.1 `.&X&X&X&X&X&X&X&X&X&X",
"&X&X&X&X&X&X&X&X&X&X&X&X&X&X&X&X&X&X&X&X&X&X&X&X&X&X&X&X&X&X&X&X%X Xg A S.E.F $.&X&X&X&X&X&X&X&X&X&X",
"&X&X&X&X&X&X&X&X&X&X&X&X&X&X&X&X&X&X&X&X&X&X&X&X&X&X&X&X&X&X&X&X&X&X X= L W o oX&X&X&X&X&X&X&X&X&X&X",
"&X&X&X&X&X&X&X&X&X&X&X&X&X&X&X&X&X&X&X&X&X&X&X&X&X&X&X&X&X&X&X&X&X&X#X'.y Q [.&X&X&X&X&X&X&X&X&X&X&X",
"&X&X&X&X&X&X&X&X&X&X&X&X&X&X&X&X&X&X&X&X&X&X&X&X&X&X&X&X&X&X&X&X&X&X&X&X$XXX&X&X&X&X&X&X&X&X&X&X&X&X",
"&X&X&X&X&X&X&X&X&X&X&X&X&X&X&X&X&X&X&X&X&X&X&X&X&X&X&X&X&X&X&X&X&X&X&X&X&X&X&X&X&X&X&X&X&X&X&X&X&X&X",
"&X&X&X&X&X&X&X&X&X&X&X&X&X&X&X&X&X&X&X&X&X&X&X&X&X&X&X&X&X&X&X&X&X&X&X&X&X&X&X&X&X&X&X&X&X&X&X&X&X&X"
};
