/* XPM */
static xpm_row_t tower_blue_right[] = {
/* columns rows colors chars-per-pixel */
"50 50 21 1 ",
"  c #000000",
". c #1B1B1D",
"X c #041E3B",
"o c #072128",
"O c #6C6D0C",
"+ c #353D43",
"@ c #184C5B",
"# c #124E7F",
"$ c #49545B",
"% c #616B72",
"& c #8F910E",
"* c #FCFF00",
"= c #1C6D85",
"- c #2A879B",
"; c #1D80B8",
": c #7A8D99",
"> c #2492D1",
", c #31ACCC",
"< c #35BBF1",
"1 c #8A9DAB",
"2 c #FFFFFF",
/* pixels */
"22222222222222222222222222222222222222222222222222",
"22222222222222222222222222222222222222222222222222",
"22222222222222222222222222222222222222222222222222",
"22222222222222222222222222222222222222222222222222",
"22222222222222222222222222222222222222222222222222",
"22222222222222222222222222222222222222222222222222",
"22222222222222222222222222222222222222222222222222",
"22222222222222222222222222222222222222222222222222",
"22222222222222222222222222222222222222222222222222",
"22222222222222222222222222222222222222222222222222",
"22222222222222222222222222222222222222222222222222",
"22222222222222222222222222222222222222222222222222",
"2222222222222222         2222222222222222222222222",
"222222222222222  +++++++  222222222222222222222222",
"22222222222222 +1::$:::1%  22222222222222222222222",
"2222222222222  %%%%%$%%:1% 22222222222222222222222",
"22222222222        +++++++ 22222222222222222222222",
"2222222222  XXXXXX                              22",
"222222222  X;;>>;;# XX#########################@ 2",
"22222222  X##>;;#<@ X>><>>>><><>>><>><>>>><>>><- 2",
"2222222  XX;;;>##<;X  ==@==@=@@==@=====@==@@@=-@ 2",
"2222222 @<@X;<>>>;#,,X                          22",
"2222222 @;<<X<;>>>;<,X %+++++%+%. .++++++%..++ 222",
"2222222 @;;<X#;>#>###X +%$$$%%$%+.+%%$$%+:%$$$ 222",
"2222222 o;;<X#;>>>;<,X +%%%%%%:$+.+%$%%%+1%%%% 222",
"2222222 o@;<X>;>>;;<,X +%$%%$%:$+.+%%%%%+1%%$% 222",
"2222222 o;;<X>>##>;<,X +%%%%$%$%+.+$%%$%+:%$%% 222",
"2222222 @;;<X;O;#>>,<X %++++++$+. .++++++%..++ 222",
"2222222 o;<<XO*&;;;,,X                          22",
"2222222  @XX;O*&;<,X, ==@@@====@==@====@@===@=-@ 2",
"2222222   X;>;O>><#  >><>>>><>><>>><>>><>>>>>><- 2",
"22222222  X;>>>>>## X##########################@ 2",
"222222222   XXXXXX@                             22",
"2222222222         +++++++  2222222222222222222222",
"222222222222   %+++%%$%%:: 22222222222222222222222",
"2222222222222  %1:::$::1:  22222222222222222222222",
"22222222222222  ++++++++  222222222222222222222222",
"222222222222222          2222222222222222222222222",
"22222222222222222222222222222222222222222222222222",
"22222222222222222222222222222222222222222222222222",
"22222222222222222222222222222222222222222222222222",
"22222222222222222222222222222222222222222222222222",
"22222222222222222222222222222222222222222222222222",
"22222222222222222222222222222222222222222222222222",
"22222222222222222222222222222222222222222222222222",
"22222222222222222222222222222222222222222222222222",
"22222222222222222222222222222222222222222222222222",
"22222222222222222222222222222222222222222222222222",
"22222222222222222222222222222222222222222222222222",
"22222222222222222222222222222222222222222222222222"
};
