/* XPM */
static xpm_row_t tower_blue_down_left[] = {
/* columns rows colors chars-per-pixel */
"50 50 195 2 ",
"   c #010101",
".  c #0B0403",
"X  c #01030A",
"o  c #030B0D",
"O  c #0C0C0C",
"+  c #120E0C",
"@  c #030A14",
"#  c #0C0E11",
"$  c #020C18",
"%  c #031113",
"&  c #0D1314",
"*  c #0A1A1A",
"=  c #07151A",
"-  c #111214",
";  c #1A1613",
":  c #1B1C1D",
">  c #181818",
",  c #221F1F",
"<  c #353107",
"1  c #021C23",
"2  c #03162B",
"3  c #1E1F20",
"4  c #141B24",
"5  c #041F3B",
"6  c #021931",
"7  c #09252B",
"8  c #0B282D",
"9  c #072226",
"0  c #1F2222",
"q  c #1E242C",
"w  c #12292A",
"e  c #0B2830",
"r  c #082137",
"t  c #0D313A",
"y  c #222222",
"u  c #252629",
"i  c #25292D",
"p  c #2A292B",
"a  c #282627",
"s  c #272D32",
"d  c #2A2D32",
"f  c #282F38",
"g  c #2B3136",
"h  c #2D343A",
"j  c #273236",
"k  c #343434",
"l  c #333539",
"z  c #35393E",
"x  c #39393B",
"c  c #6E7212",
"v  c #052546",
"b  c #0A2D4B",
"n  c #062A4A",
"m  c #0C354A",
"M  c #042C56",
"N  c #0B355C",
"B  c #0D395F",
"V  c #093253",
"C  c #363D43",
"Z  c #383D43",
"A  c #0D3B62",
"S  c #0C3964",
"D  c #164756",
"F  c #15414C",
"G  c #3B4246",
"H  c #3C444A",
"J  c #3F484F",
"K  c #0D426B",
"L  c #104165",
"P  c #12466B",
"I  c #15546C",
"U  c #1A576B",
"Y  c #114978",
"T  c #1A5B71",
"R  c #185D7C",
"E  c #1B637C",
"W  c #296E7E",
"Q  c #474B4C",
"!  c #434D54",
"~  c #475158",
"^  c #4B565D",
"/  c #485055",
"(  c #53595D",
")  c #5C5C5C",
"_  c #535659",
"`  c #4E5960",
"'  c #525D64",
"]  c #595F65",
"[  c #556067",
"{  c #566169",
"}  c #5A646B",
"|  c #5E686F",
" . c #5E6A72",
".. c #5F6E78",
"X. c #6C6C6D",
"o. c #262626",
"O. c #626C73",
"+. c #64727B",
"@. c #69747C",
"#. c #657077",
"$. c #A0A4A2",
"%. c #7E7E7E",
"&. c #837700",
"*. c #708D3D",
"=. c #709D54",
"-. c #9A8600",
";. c #A8BF30",
":. c #FBFC01",
">. c #0B4C85",
",. c #124F81",
"<. c #145889",
"1. c #1A6B88",
"2. c #1B718E",
"3. c #176496",
"4. c #196A9C",
"5. c #176A9F",
"6. c #1D7592",
"7. c #216F84",
"8. c #207A96",
"9. c #217E99",
"0. c #267988",
"q. c #1A6DA3",
"w. c #1A73A3",
"e. c #1A73AD",
"r. c #1C78A5",
"t. c #1C7BB4",
"y. c #1D7BBB",
"u. c #1C77B0",
"i. c #0E63A6",
"p. c #217EB2",
"a. c #237DA9",
"s. c #6A7A85",
"d. c #6C7B86",
"f. c #147ECC",
"g. c #0F77C6",
"h. c #27829B",
"j. c #1E83BC",
"k. c #2584A5",
"l. c #3C8FA2",
"z. c #2991AF",
"x. c #2184BC",
"c. c #268ABD",
"v. c #2385B6",
"b. c #3197B8",
"n. c #499C9F",
"m. c #6E818C",
"M. c #74838D",
"N. c #7B8D99",
"B. c #788993",
"V. c #7F919E",
"C. c #1D84C1",
"Z. c #1C91DA",
"A. c #178BDA",
"S. c #2185C3",
"D. c #248DC5",
"F. c #228CCA",
"G. c #2691C7",
"H. c #2693CE",
"J. c #2995CC",
"K. c #2B97C8",
"L. c #2494D2",
"P. c #2699D4",
"I. c #299DD4",
"U. c #269AD9",
"Y. c #29A1D9",
"T. c #2EA5DB",
"R. c #30AFDA",
"E. c #35B4D7",
"W. c #269CE0",
"Q. c #2CAAE4",
"!. c #32B2E6",
"~. c #32B5EB",
"^. c #35B9EA",
"/. c #2EB4F2",
"(. c #35BDF2",
"). c #39C5E8",
"_. c #3BCDFF",
"`. c #848484",
"'. c #8C8C8C",
"]. c #82939F",
"[. c #949494",
"{. c #9B9B9B",
"}. c #8395A1",
"|. c #889CAA",
" X c #A4A4A4",
".X c #ACACAC",
"XX c #484848",
"oX c #4D4D4D",
"OX c #CCCCCC",
"+X c #DFDFDF",
"@X c #D0D0D0",
"#X c #ECECEC",
"$X c #E1E1E1",
"%X c #F3F3F3",
"&X c #FFFFFF",
/* pixels */
"&X&X&X&X&X&X&X&X&X&X&X&X&X&X&X&X&X&X&X&X&X&X&X&X&X&X&X&X&X&X&X&X&X&X&X&X&X&X&X&X&X&X&X&X&X&X&X&X&X&X",
"&X&X&X&X&X&X&X&X&X&X&X&X&X&X&X&X&X&X&X&X&X&X&X&X&X&X&X&X&X&X&X&X&X&X&X&X&X&X&X&X&X&X&X&X&X&X&X&X&X&X",
"&X&X&X&X&X&X&X&X&X&X&X&X&X&X&X&X&X&X&X&X&X&X&X&X&X&X&X&X&X&X&X&X&X&X&X&X&X&X&X&X&X&X&X&X&X&X&X&X&X&X",
"&X&X&X&X&X&X&X&X&X&X&X&X&X&X&X&X&X&X&X&X&X&X&X&X&X&X&X&X&X&X&X&X&X&X&X&X&X&X&X&X&X&X&X&X&X&X&X&X&X&X",
"&X&X&X&X&X&X&X&X&X&X&X&X&X&X&X&X&X&X&X&X&X&X&X&X&X&X&X&X&X&X&X&X&X&X&X&X&X&X&X&X&X&X&X&X&X&X&X&X&X&X",
"&X&X&X&X&X&X&X&X&X&X&X&X&X&X&X&X&X&X&X&X&X&X&X&X&X&X&X&X&X&X&X&X&X&X&X&X&X&X&X&X&X&X&X&X&X&X&X&X&X&X",
"&X&X&X&X&X&X&X&X&X&X&X&X&X&X&X&X&X&X&X&X&X&X&X&X&X&X&X&X&X&X&X&X&X&X&X&X&X&X&X&X&X&X&X&X&X&X&X&X&X&X",
"&X&X&X&X&X&X&X&X&X&X&X&X&X&X&X&X&X&X&X&X&X&X&X&X&X&X&X&X&X&X&X&X&X&X&X&X&X&X&X&X&X&X&X&X&X&X&X&X&X&X",
"&X&X&X&X&X&X&X&X&X&X&X&X&X&X&X&X&X&X&X&X&X&X&X&X&X&X&X&X&X&X&X&X&X&X&X&X&X&X&X&X&X&X&X&X&X&X&X&X&X&X",
"&X&X&X&X&X&X&X&X&X&X&X&X&X&X&X&X&X&X&X&X&X&X%X%X%X%X&X&X)         y +X&X&X&X&X&X&X&X&X&X&X&X&X&X&X&X",
"&X&X&X&X&X&X&X&X&X&X&X&X&X&X&X&X&X&X&X&X#X[.a             @ @       y +X&X&X&X&X&X&X&X&X&X&X&X&X&X&X",
"&X&X&X&X&X&X&X&X&X&X&X&X&X&X&X&X&X&X&X&X`.O s ' H     X v w.K r F e o y +X&X&X&X&X&X&X&X&X&X&X&X&X&X",
"&X&X&X&X&X&X&X&X&X&X&X&X&X&X&X&X&X&X%X X: h +.V.O.u X n y.W.3.P <.C.R 9 y +X&X&X&X&X&X&X&X&X&X&X&X&X",
"&X&X&X&X&X&X&X&X&X&X&X&X&X&X&X&X&X&X%.: g s.d.H O   M f.A.Z.G.c.K.P.j.m X y +X&X&X&X&X&X&X&X&X&X&X&X",
"&X&X&X&X&X&X&X&X&X&X&X&X&X&X&X&X&X XX i #.N.H O X v f.n.&.&.< M !.Q.4.D t % y +X&X&X&X&X&X&X&X&X&X&X",
"&X&X&X&X&X&X&X&X&X&X&X&X&X&X&X#X'.p h +.#.} ! w 6 >.W.l.;.:.=.b V !.Y.y.j.1.8 y +X&X&X&X&X&X&X&X&X&X",
"&X&X&X&X&X&X&X&X&X&X&X&X&X&X&X'.X s +.B.^ ! 3 X S J./.C.*.-.c b.>.b !.Y.t.t.E 8 y +X&X&X&X&X&X&X&X&X",
"&X&X&X&X&X&X&X&X&X&X&X&X&X&X&XOX) H }.M.H 0 @   o R I.I.w.i.g.Z.F.S V (.^.K.v.7 X.&X&X&X&X&X&X&X&X&X",
"&X&X&X&X&X&X&X&X&X&X&X&X&X&X&X%Xk ! |.` ; @ N $   6 r.U.t.Y q.F.t.,.v 2 V b 2 X [.&X&X&X&X&X&X&X&X&X",
"&X&X&X&X&X&X&X&X&X&X&X&X&X&X&X.XX s.#.>   N e.v.R.).E.L.F.H.U.U.S.j.(.!.C.S.K @ k OX&X&X&X&X&X&X&X&X",
"&X&X&X&X&X&X&X&X&X&X&X&X&X&X&X&X.X  . # B J.Q.R @ k._.R.j.C.j.3.x.L.F.P.t.,.S $ Q &X&X&X&X&X&X&X&X&X",
"&X&X&X&X&X&X&X&X&X&X&X&X&X&X&X&X)   X B y.H.6.9   5 k.).~.x.C.L.L.L.L.L.L.L.3.o {.&X&X&X&X&X&X&X&X&X",
"&X&X&X&X&X&X&X&X&X&X&X&X&X&X&X#X{.h A y.D.I * a +   5 z.E.p.3.e.S.u.<.q.F.5.n - ) @X&X&X&X&X&X&X&X&X",
"&X&X&X&X&X&X&X&X&X&X&X&X&X&X&X'.@ B y.D.U % O z J >   5 S x.T.<.c.Y.Y S.j.v @ X.&X&X&X&X&X&X&X&X&X&X",
"&X&X&X&X&X&X&X&X&X&X&X&X&X%X.Xq B S.^.9.7 . z  .O.H -   5 b.E.k.r.I.Q.e.v     :  X&X&X&X&X&X&X&X&X&X",
"&X&X&X&X&X&X&X&X&X&X&X&X&X'.q B t.P.2.1 O l } ' | | G O X v m * @ P ,.n   x z - OX&X&X&X&X&X&X&X&X&X",
"&X&X&X&X&X&X&X&X&X&X&X&X.Xo N F.^.8.9 . C } #.O.O.O. .O.s   o 5 2       0 @.^ X.&X&X&X&X&X&X&X&X&X&X",
"&X&X&X&X&X&X&X&X&X&X%X[.h S y.U.E o > G ' ~ } O.{ ^ d # 1 1.H.5.5 X : u O.N.` ( XX&X&X&X&X&X&X&X&X&X",
"&X&X&X&X&X&X&X&X&X&X[.o B y.P.6.1 O C ! { O.O.[ ~ C . @ T ^.H.V   3 ! #.V.+.s   .X&X&X&X&X&X&X&X&X&X",
"&X&X&X&X&X&X&X&X#X Xs B S.~.7.o   - G #.}.M.| } z & 1 2.I.y.V X ; ~  .} H i y %.&X&X&X&X&X&X&X&X&X&X",
"&X&X&X&X&X&X&X&X`.4 S y.P.6.1 X + - g J ^ ' s.] . o T L.y.N X : H @.N.+.h >  X%X&X&X&X&X&X&X&X&X&X&X",
"&X&X&X&X&X&X&X.X- L S.H.6.7 . C ! h : s ` O.G . = 9.U.y.B X > { V.|...s O `.&X&X&X&X&X&X&X&X&X&X&X&X",
"&X&X&X&X&X%X'.f A y.K.1.9 O l } | ~ g 3 u p , & I G.F.P X   ! B.].s.h a [.#X&X&X&X&X&X&X&X&X&X&X&X&X",
"&X&X&X&X&X XX B y.D.U % O G } #.O.O.^ i     7 8.^.H.N X oXoX          [.&X&X&X&X&X&X&X&X&X&X&X&X&X&X",
"&X&X&X#X Xg A y.P.1.9 # z { { O.| ' } p   * 1.P.y.N f '.&X&XOX) ) _ %.%X&X&X&X&X&X&X&X&X&X&X&X&X&X&X",
"&X&X&X'.= S y.P.6.1 p ( C ' @.O.[ ^ Z . 7 2.D.y.S > .X&X&X&X&X&X&X&X&X&X&X&X&X&X&X&X&X&X&X&X&X&X&X&X",
"&X&X$Xy L S.L.T %   : O.N.G (  .! l - 1 2.!.J.B 4 '.&X&X&X&X&X&X&X&X&X&X&X&X&X&X&X&X&X&X&X&X&X&X&X&X",
"&X&XXXQ W E.z.1 & i H } }.].G ! x . 9 1.P.y.B s  X#X&X&X&X&X&X&X&X&X&X&X&X&X&X&X&X&X&X&X&X&X&X&X&X&X",
"&X&X&X[.o F 1 . C } #.O.| M.m.G . 1 8.^.H.N X {.&X&X&X&X&X&X&X&X&X&X&X&X&X&X&X&X&X&X&X&X&X&X&X&X&X&X",
"&X&X&X&XoX$.`.k : O. .{ } / x a 7 R c.y.B h [.%X&X&X&X&X&X&X&X&X&X&X&X&X&X&X&X&X&X&X&X&X&X&X&X&X&X&X",
"&X&X&X&X&X&X&X&X$.: O. .H :   8 6.H.y.S o .X&X&X&X&X&X&X&X&X&X&X&X&X&X&X&X&X&X&X&X&X&X&X&X&X&X&X&X&X",
"&X&X&X&X&X&X&X&X&X$.- ! z - = E G.y.B q '.&X&X&X&X&X&X&X&X&X&X&X&X&X&X&X&X&X&X&X&X&X&X&X&X&X&X&X&X&X",
"&X&X&X&X&X&X&X&X&X&X$.  . & I D.S.P u .X%X&X&X&X&X&X&X&X&X&X&X&X&X&X&X&X&X&X&X&X&X&X&X&X&X&X&X&X&X&X",
"&X&X&X&X&X&X&X&X&X&X&Xo.8 6.P.y.B @ [.&X&X&X&X&X&X&X&X&X&X&X&X&X&X&X&X&X&X&X&X&X&X&X&X&X&X&X&X&X&X&X",
"&X&X&X&X&X&X&X&X&X&X$Xj h.(.y.B h {.#X&X&X&X&X&X&X&X&X&X&X&X&X&X&X&X&X&X&X&X&X&X&X&X&X&X&X&X&X&X&X&X",
"&X&X&X&X&X&X&X&X&X&X{.% 0.a.S X .X&X&X&X&X&X&X&X&X&X&X&X&X&X&X&X&X&X&X&X&X&X&X&X&X&X&X&X&X&X&X&X&X&X",
"&X&X&X&X&X&X&X&X&X&X&X[.X e h '.&X&X&X&X&X&X&X&X&X&X&X&X&X&X&X&X&X&X&X&X&X&X&X&X&X&X&X&X&X&X&X&X&X&X",
"&X&X&X&X&X&X&X&X&X&X&X&X#XOXOX#X&X&X&X&X&X&X&X&X&X&X&X&X&X&X&X&X&X&X&X&X&X&X&X&X&X&X&X&X&X&X&X&X&X&X",
"&X&X&X&X&X&X&X&X&X&X&X&X&X&X&X&X&X&X&X&X&X&X&X&X&X&X&X&X&X&X&X&X&X&X&X&X&X&X&X&X&X&X&X&X&X&X&X&X&X&X",
"&X&X&X&X&X&X&X&X&X&X&X&X&X&X&X&X&X&X&X&X&X&X&X&X&X&X&X&X&X&X&X&X&X&X&X&X&X&X&X&X&X&X&X&X&X&X&X&X&X&X"
};
