/* XPM */
static xpm_row_t enemy_fire_skull_7[] = {
/* columns rows colors chars-per-pixel */
"50 50 19 1 ",
"  c #000000",
". c #2e2e2e",
"X c #3D3D3E",
"o c #4C362C",
"O c #1A466E",
"+ c #BBC6CC",
"@ c #6F6F6F",
"# c #7E7E7E",
"$ c #013CB5",
"% c #29649A",
"& c #315FBD",
"* c #2A7ECC",
"= c #368C96",
"- c #30A8B3",
"; c #1AC49B",
": c #2491F6",
"> c #6AD4E1",
", c #A1C6CA",
"< c #FFFFFF",
/* pixels */
"<<<<<<<<<<<<<<<<<<<<<<<<<<<<<<<<<<<<<<<<<<<<<<<<<<",
"<<<<<<<<<<<<<<<<<<<<<<<<<<<<<<<<<<<<<<<<<<<<<<<<<<",
"<<<<<<<<<,<,<<<<<    o<<<<<<<<<<<<<<<<<<<<<<<<<<<<",
"<<<<<<<<<<<<<<$<o&;&$$  <<<<<<<<<<<<<<<<<<<<<<<<<<",
"<<<<<<<<<<<$<,<o$&==,;$$o<<<<<<<<<<<<<<<<<<<<<<<<<",
"<<<<<<<<<<<<$< $oo&=:,==$o<<<<<<<<<<<<<<<<<<<<<<<<",
"<<<<<<<<<,<<<<< << $=,,>=$ <<<<<<<<<<<<<<<<<<<<<<<",
"<<<<<<<<<<<<<<<<<< $==:>>=&o <<<<<<<<<<<<<<<<<<<<<",
"<<<<<<<<<<<<<<<<<<o&====,==&$o<<<<<<<<<<<<<<<<<<<<",
"<<<<<<<<<<<<<<<<< &&&=>>,>==&&$$o<<<<<<<<<<<<<<<<<",
"<<<<<<<<<<<<<<<<< &=&&,:,,,===&:-o<<<<<<<<<<<<<<<<",
"<<<<<<<<<<<<<<<<o-==,>,:::>>,====o<<<<<<<<<<<<<<<<",
"<<<<<<<<<<<<<<< ;,=>>,>:::,,>>,,=&o<<<<<<<<<<<<<<<",
"<<<<<<<<<<<<<< $,>>,>;;;;;;;,>,:;&&o<<<<<<<<<<<<<<",
"<<<<<<<<<<<<< $;>,;:-       -::,,=&&o<<<<<<<<<<<<<",
"<<<<<<<<<<<<o=&,;---oXXXXX++o--;,===$ <<<<<<<<<<<<",
"<<<<<<<<<<< =,,,--o X+++++##X  -;,>=$o<<<<<<<<<<<<",
"<<<<<<<<<< &&&::-o++++++.++++++o-:,,=$ <<<<<<<<<<<",
"<<<<<<<<<< &&,:-o++++++.+++.++++o-,>,= <<<<<<<<<<<",
"<<<<<<<<<< ;&,: X+##+++.+.+++++#+ :,=; <<<<<<<<<<<",
"<<<<<<<<<<o=>>-oXX+++##+++##+++XXo-;,=o<<<<<<<<<<<",
"<<<<<<<<< &=,- XX ooo.+++++.ooo +X ->=& <<<<<<<<<<",
"<<<<<<<<< &=,- X O**% ++#+. %**O X ->=& <<<<<<<<<<",
"<<<<<<<<< &,>- XXo%**% X#X %**%oXX -,=& <<<<<<<<<<",
"<<<<<<<<< &=>- X#X %*%o+#+o%*% X#+ -,=& <<<<<<<<<<",
"<<<<<<<<< $=>-oX+++  o++++Xo  +++X--,=$o<<<<<<<<<<",
"<<<<<<<<<< =,>,-+++X.X+++++X.X++X--,=$ <<<<<<<<<<<",
"<<<<<<<<<< &=,:, ++++++X.X+++++#X :,&$ <<<<<<<<<<<",
"<<<<<<<<<< $&=,-,X+++++. .++++++,-,>&$ <<<<<<<<<<<",
"<<<<<<<<<< &==>:- +#.+++@++++.+ -:,>&& <<<<<<<<<<<",
"<<<<<<<<<< $,>>:- +#+.++@++++#+ -:,&&& <<<<<<<<<<<",
"<<<<<<<<<<o$;,=,--X+#+.+@+.+#+X-->>&$$o<<<<<<<<<<<",
"<<<<<<<<<<< $$&=,-oX+. .#. .#Xo-,=&&$ <<<<<<<<<<<<",
"<<<<<<<<<<< $&&$=,:oX. .#. .Xo-,=$&>$ <<<<<<<<<<<<",
"<<<<<<<<<<< $&&$=,:oX. .#. .Xo:>=$&&$ <<<<<<<<<<<<",
"<<<<<<<<<<<<o$>;,>:oX. .#. .Xo:>=$&$o<<<<<<<<<<<<<",
"<<<<<<<<<<<<< &:;>,-XX +@+ XX-:,=&$ <<<<<<<<<<<<<<",
"<<<<<<<<<<<<<o&&&&=:-       -:,&$&$ <<<<<<<<<<<<<<",
"<<<<<<<<<<<<<< $&&&>,;;;--;;,>&&&$ <<<<<<<<<<<<<<<",
"<<<<<<<<<<<<<<o$$$&=,,,>>>,>,=&$$$o<<<<<<<<<<<<<<<",
"<<<<<<<<<<<<<<<o o$$========&$$o o<<<<<<<<<<<<<<<<",
"<<<<<<<<<<<<<<<<<<oo$&&&&&&&$  <<<<<<<<<<<<<<<<<<<",
"<<<<<<<<<<<<<<<<<<<<o       o<<<<<<<<<<<<<<<<<<<<<",
"<<<<<<<<<<<<<<<<<<<<<<<<<<<<<<<<<<<<<<<<<<<<<<<<<<",
"<<<<<<<<<<<<<<<<<<<<<<<<<<<<<<<<<<<<<<<<<<<<<<<<<<",
"<<<<<<<<<<<<<<<<<<<<<<<<<<<<<<<<<<<<<<<<<<<<<<<<<<",
"<<<<<<<<<<<<<<<<<<<<<<<<<<<<<<<<<<<<<<<<<<<<<<<<<<",
"<<<<<<<<<<<<<<<<<<<<<<<<<<<<<<<<<<<<<<<<<<<<<<<<<<",
"<<<<<<<<<<<<<<<<<<<<<<<<<<<<<<<<<<<<<<<<<<<<<<<<<<",
"<<<<<<<<<<<<<<<<<<<<<<<<<<<<<<<<<<<<<<<<<<<<<<<<<<"
};
