/* XPM */
static xpm_row_t enemy_fire_skull_10[] = {
/* columns rows colors chars-per-pixel */
"50 50 20 1 ",
"  c #000000",
". c #2e2e2e",
"X c #3D3D3E",
"o c #4C362C",
"O c #1A466E",
"+ c #BBC6CC",
"@ c #6F6F6F",
"# c #7E7E7E",
"$ c #013CB5",
"% c #29649A",
"& c #315FBD",
"* c #2A7ECC",
"= c #368C96",
"- c #30A8B3",
"; c #1AC49B",
": c #2491F6",
"> c #6AD4E1",
", c #A1C6CA",
"< c #FDFDFD",
"1 c #FFFFFF",
/* pixels */
"1111111111>&11111111111111111111111111111111111111",
"1111111111111>&11111111111111111111111111111111111",
"1111111111&11>1 1111111111111111111111111111111111",
"111111111111&1 $o    o1111111111111111111111111111",
"11111111111111o&$&;&$$  11111111111111111111111111",
"111111111111111 &&==,;$$o1111111111111111111111111",
"1111111111111111 &&=:,==$o111111111111111111111111",
"11111111111111111  $=,,>=$ 11111111111111111111111",
"111111111111111111 $==:>>=&o 111111111111111111111",
"111111111111111111o&====,==&$o&1111111111111111111",
"11111111111111111 &&&=>>,>==&&$$o11111111111111111",
"11111111111111111 &=&&,:,,,===&:-o1111111111111111",
"1111111111111111o-==,>,:::>>,====o1111111111111111",
"111111111111111 ;,=>>,>:::,,>>,,=&o111111111111111",
"11111111111111 $,>>,>;;;;;;;,>,:;&&o11111111111111",
"1111111111111 $;>,;:-       -::,,=&&o1111111111111",
"111111111111o=&,;---oXXXXX++o--;,===$ 111111111111",
"11111111111 =,,,--o X+++++##X  -;,>=$o111111111111",
"1111111111 &&&::-o++++++.++++++o-:,,=$ 11111111111",
"1111111111 &&,:-o++++++.+++.++++o-,>,= 11111111111",
"1111111111 ;&,: X+##+++.+.+++++#+ :,=; 11111111111",
"1111111111o=>>-oXX+++##+++##+++XXo-;,=o11111111111",
"111111111 &=,- XX ooo.+++++.ooo +X ->=& 1111111111",
"111111111 &=,- X O**% ++#+. %**O X ->=& 1111111111",
"111111111 &,>- XXo%**% X#X %**%oXX -,=& 1111111111",
"111111111 &=>- X#X %*%o+#+o%*% X#+ -,=& 1111111111",
"111111111 $=>-oX+++  o++++Xo  +++X--,=$o1111111111",
"1111111111 =,>,-+++X.X+++++X.X++X--,=$ 11111111111",
"1111111111 &=,:, ++++++X.X+++++#X :,&$ 11111111111",
"1111111111 $&=,-,X+++++. .++++++,-,>&$ 11111111111",
"1111111111 &==>:- +#.+++@++++.+ -:,>&& 11111111111",
"1111111111 $,>>:- +#+.++@++++#+ -:,&&& 11111111111",
"1111111111o$;,=,--X+#+.+@+.+#+X-->>&$$o11111111111",
"11111111111 $$&=,-oX+. .#. .#Xo-,=&&$ 111111111111",
"11111111111 $&&$=,:oX. .#. .Xo-,=$&>$ 111111111111",
"11111111111 $&&$=,:oX. .#. .Xo:>=$&&$ 111111111111",
"111111111111o$>;,>:oX. .#. .Xo:>=$&$o1111111111111",
"1111111111111 &:;>,-XX +@+ XX-:,=&$ 11111111111111",
"1111111111111o&&&&=:-       -:,&$&$ 11111111111111",
"11111111111111 $&&&>,;;;--;;,>&&&$ 111111111111111",
"11111111111111o$$$&=,,,>>>,>,=&$$$o111111111111111",
"111111111111111o o$$========&$$o o1111111111111111",
"111111111111111111oo$&&&&&&&$  1111111111111111111",
"11111111111111111111o       o111111111111111111111",
"11111111111111111111111111111111111111111111111111",
"11111111111111111111111111111111111111111111111111",
"11111111111111111111111111111111111111111111111111",
"11111111111111111111111111111111111111111111111111",
"11111111111111111111111111111111111111111111111111",
"11111111111111111111111111111111111111111111111111"
};
