/* XPM */
static xpm_row_t enemy_fire_skull_3[] = {
/* columns rows colors chars-per-pixel */
"50 50 20 1 ",
"  c #000000",
". c #2e2e2e",
"X c #3D3D3E",
"o c #4C362C",
"O c #1A466E",
"+ c #BBC6CC",
"@ c #6F6F6F",
"# c #7E7E7E",
"$ c #013CB5",
"% c #29649A",
"& c #315FBD",
"* c #2A7ECC",
"= c #368C96",
"- c #30A8B3",
"; c #1AC49B",
": c #2491F6",
"> c #6AD4E1",
", c #A1C6CA",
"< c #FDFDFD",
"1 c #FFFFFF",
/* pixels */
"11111111111111111111111111111111111111111111111111",
"11111111111111111111111111111111111111111111111111",
"11111111111111111111111111111111111111111111111111",
"11111111111111111111111111111111111111&>1111111111",
"11111111111111111111111111111111111&>1111111111111",
"1111111111111111111111111111111111 1>11&1111111111",
"1111111111111111111111111111o    o$ 1&111111111111",
"11111111111111111111111111  $$&;&$&o11111111111111",
"1111111111111111111111111o$$;,==&& 111111111111111",
"111111111111111111111111o$==,:=&& 1111111111111111",
"11111111111111111111111 $=>,,=$  11111111111111111",
"111111111111111111111 o&=>>:==$ 111111111111111111",
"1111111111111111111&o$&==,====&o111111111111111111",
"11111111111111111o$$&&==>,>>=&&& 11111111111111111",
"1111111111111111o-:&===,,,:,&&=& 11111111111111111",
"1111111111111111o====,>>:::,>,==-o1111111111111111",
"111111111111111o&=,,>>,,:::>,>>=,; 111111111111111",
"11111111111111o&&;:,>,;;;;;;;>,>>,$ 11111111111111",
"1111111111111o&&=,,::-       -:;,>;$ 1111111111111",
"111111111111 $===,;--o++XXXXXo---;,&=o111111111111",
"111111111111o$=>,;-  X##+++++X o--,,,= 11111111111",
"11111111111 $=,,:-o++++++.++++++o-::&&& 1111111111",
"11111111111 =,>,-o++++.+++.++++++o-:,&& 1111111111",
"11111111111 ;=,: +#+++++.+.+++##+X :,&; 1111111111",
"11111111111o=,;-oXX+++##+++##+++XXo->>=o1111111111",
"1111111111 &=>- X+ ooo.+++++.ooo XX -,=& 111111111",
"1111111111 &=>- X O**% .+#++ %**O X -,=& 111111111",
"1111111111 &=,- XXo%**% X#X %**%oXX ->,& 111111111",
"1111111111 &=,- +#X %*%o+#+o%*% X#X ->=& 111111111",
"1111111111o$=,--X+++  oX++++o  +++Xo->=$ 111111111",
"11111111111 $=,--X++X.X+++++X.X+++-,>,= 1111111111",
"11111111111 $&,: X#+++++X.X++++++ ,:,=& 1111111111",
"11111111111 $&>,-,++++++. .+++++X,-,=&$ 1111111111",
"11111111111 &&>,:- +.++++@+++.#+ -:>==& 1111111111",
"11111111111 &&&,:- +#++++@++.+#+ -:>>,$ 1111111111",
"11111111111o$$&>>--X+#+.+@+.+#+X--,=,;$o1111111111",
"111111111111 $&&=,-oX#. .#. .+Xo-,=&$$ 11111111111",
"111111111111 $>&$=,-oX. .#. .Xo:,=$&&$ 11111111111",
"111111111111 $&&$=>:oX. .#. .Xo:,=$&&$ 11111111111",
"1111111111111o$&$=>:oX. .#. .Xo:>,;>$o111111111111",
"11111111111111 $&=,:-XX +@+ XX-,>;:& 1111111111111",
"11111111111111 $&$&,:-       -:=&&&&o1111111111111",
"111111111111111 $&&&>,;;--;;;,>&&&$ 11111111111111",
"111111111111111o$$$&=,>,>>>,,,=&$$$o11111111111111",
"1111111111111111o o$$&========$$o o111111111111111",
"1111111111111111111  $&&&&&&&$oo111111111111111111",
"111111111111111111111o       o11111111111111111111",
"11111111111111111111111111111111111111111111111111",
"11111111111111111111111111111111111111111111111111",
"11111111111111111111111111111111111111111111111111"
};
