/* XPM */
static xpm_row_t enemy_fire_skull_5[] = {
/* columns rows colors chars-per-pixel */
"50 50 29 1 ",
"  c #000000",
". c #2e2e2e",
"X c #3D3D3E",
"o c #4C362C",
"O c #1A466E",
"+ c #BBC6CC",
"@ c #6F6F6F",
"# c #7E7E7E",
"$ c #013CB5",
"% c #29649A",
"& c #315FBD",
"* c #2A7ECC",
"= c #368C96",
"- c #30A8B3",
"; c #1AC49B",
": c #2491F6",
"> c #6AD4E1",
", c #A1C6CA",
"< c #EEEEEE",
"1 c #EAF3F4",
"2 c #968D70",
"3 c #F8F9FD",
"4 c #F9FAFD",
"5 c #FDFDFD",
"6 c #FCFCFE",
"7 c #FEFEFE",
"8 c #FEFEFF",
"9 c #FEFFFF",
"0 c #FFFFFF",
/* pixels */
"000000000000000000;0000000000000000000000000000000",
"000000000000000$000;0>0>00000000000000000000000000",
"0000000000000000000$;00000000000000000000000000000",
"0000000000400000000000>000000000000000000000000000",
"000000000000000000;00o0000000000000000000000000000",
"00000000000000000000 $  00000000000000000000000000",
"000000000000000<0001 ;$$o0000000000000000000000000",
"0000000000000000004 :,==$o000000000000000000000000",
"000000000000000002 $=,,>=$ 00000000000000000000000",
"000000000000000000 $==:>>=&o 000000000000000000000",
"000000000000000000o&====,==&$o&0000000000000000000",
"00000000000000000 &&&=>>,>==&&$$o00000000000000000",
"00000000000000000 &=&&,:,,,===&:-o0000000000000000",
"0000000000000000o-==,>,:::>>,====o0000000000000000",
"000000000000000 ;,=>>,>:::,,>>,,=&o000000000000000",
"00000000000000 $,>>,>;;;;;;;,>,:;&&o00000000000000",
"0000000000000 $;>,;:-       -::,,=&&o0000000000000",
"000000000000o=&,;---oXXXXX++o--;,===$ 000000000000",
"00000000000 =,,,--o X+++++##X  -;,>=$o000000000000",
"0000000000 &&&::-o++++++.++++++o-:,,=$ 00000000000",
"0000000000 &&,:-o++++++.+++.++++o-,>,= 00000000000",
"0000000000 ;&,: X+##+++.+.+++++#+ :,=; 00000000000",
"0000000000o=>>-oXX+++##+++##+++XXo-;,=o00000000000",
"000000000 &=,- XX ooo.+++++.ooo +X ->=& 0000000000",
"000000000 &=,- X O**% ++#+. %**O X ->=& 0000000000",
"000000000 &,>- XXo%**% X#X %**%oXX -,=& 0000000000",
"000000000 &=>- X#X %*%o+#+o%*% X#+ -,=& 0000000000",
"000000000 $=>-oX+++  o++++Xo  +++X--,=$o0000000000",
"0000000000 =,>,-+++X.X+++++X.X++X--,=$ 00000000000",
"0000000000 &=,:, ++++++X.X+++++#X :,&$ 00000000000",
"0000000000 $&=,-,X+++++. .++++++,-,>&$ 00000000000",
"0000000000 &==>:- +#.+++@++++.+ -:,>&& 00000000000",
"0000000000 $,>>:- +#+.++@++++#+ -:,&&& 00000000000",
"0000000000o$;,=,--X+#+.+@+.+#+X-->>&$$o00000000000",
"00000000000 $$&=,-oX+. .#. .#Xo-,=&&$ 000000000000",
"00000000000 $&&$=,:oX. .#. .Xo-,=$&>$ 000000000000",
"00000000000 $&&$=,:oX. .#. .Xo:>=$&&$ 000000000000",
"000000000000o$>;,>:oX. .#. .Xo:>=$&$o0000000000000",
"0000000000000 &:;>,-XX +@+ XX-:,=&$ 00000000000000",
"0000000000000o&&&&=:-       -:,&$&$ 00000000000000",
"00000000000000 $&&&>,;;;--;;,>&&&$ 000000000000000",
"00000000000000o$$$&=,,,>>>,>,=&$$$o000000000000000",
"000000000000000o o$$========&$$o o0000000000000000",
"000000000000000000oo$&&&&&&&$  0000000000000000000",
"00000000000000000000o       o000000000000000000000",
"00000000000000000000000000000000000000000000000000",
"00000000000000000000000000000000000000000000000000",
"00000000000000000000000000000000000000000000000000",
"00000000000000000000000000000000000000000000000000",
"00000000000000000000000000000000000000000000000000"
};
